<svg width="78" height="78" viewBox="0 0 78 78" fill="none" xmlns="http://www.w3.org/2000/svg">
<path d="M58.7438 5.05054L72.306 19.188V72.9495H21.6426V73.125H72.4791V19.366L58.7438 5.05054Z" fill="#909090"/>
<path d="M58.5755 4.875H21.4695V72.9495H72.306V19.1904L58.5755 4.875Z" fill="#F4F4F4"/>
<path d="M21.0966 8.53125H5.52094V25.1721H54.5147V8.53125H21.0966Z" fill="#7A7B7C"/>
<path d="M54.7755 24.8893H5.83783V8.23633H54.7755V24.8893Z" fill="#DD2025"/>
<path d="M22.0642 11.0516H18.8784V22.7516H21.3842V18.8053L21.9375 18.837C22.4753 18.8296 23.0082 18.7332 23.5145 18.5518C23.9597 18.4007 24.3688 18.1592 24.7162 17.8425C25.0725 17.5438 25.3524 17.1644 25.5328 16.7359C25.7796 16.0259 25.867 15.2702 25.7887 14.5226C25.7748 13.9885 25.6812 13.4594 25.5109 12.9529C25.3574 12.5868 25.1292 12.2568 24.8408 11.9839C24.5524 11.7111 24.2103 11.5015 23.8363 11.3685C23.5139 11.2491 23.1797 11.1641 22.8394 11.115C22.5823 11.0731 22.3223 11.0519 22.0618 11.0516M21.6011 16.6433H21.3842V13.0358H21.8546C22.0622 13.0208 22.2706 13.0527 22.4642 13.129C22.6579 13.2054 22.8319 13.3243 22.9734 13.4769C23.2667 13.8694 23.4234 14.3471 23.4195 14.8371C23.4195 15.4367 23.4195 15.9803 22.8784 16.3629C22.4886 16.5776 22.0448 16.6766 21.6011 16.6433ZM30.5492 11.0199C30.2786 11.0199 30.0154 11.0394 29.8301 11.0468L29.25 11.0614H27.3487V22.7614H29.5864C30.4414 22.7834 31.2925 22.6385 32.0921 22.3348C32.7359 22.0806 33.3057 21.6691 33.7496 21.138C34.1846 20.6046 34.4952 19.9809 34.6588 19.3123C34.851 18.5565 34.9444 17.779 34.9367 16.9991C34.9844 16.0781 34.9131 15.1548 34.7246 14.2521C34.5442 13.5883 34.2102 12.9763 33.7496 12.4654C33.3884 12.0522 32.944 11.72 32.4455 11.4904C32.0186 11.2925 31.5692 11.1468 31.1074 11.0565C30.9237 11.0264 30.7377 11.0125 30.5516 11.0151M30.108 20.6115H29.8642V13.143H29.8959C30.3984 13.0849 30.907 13.1756 31.3584 13.4038C31.6891 13.6679 31.9585 14.0005 32.1482 14.3788C32.3528 14.7769 32.4708 15.2139 32.4943 15.6609C32.5162 16.1972 32.4943 16.6359 32.4943 16.9991C32.5033 17.4175 32.4764 17.8358 32.4139 18.2496C32.3372 18.6738 32.1984 19.0845 32.0019 19.4683C31.78 19.8262 31.4769 20.1269 31.1171 20.3458C30.8166 20.5408 30.4603 20.6316 30.1031 20.6042M42.4856 11.0614H36.5625V22.7614H39.0682V18.1204H42.237V15.9461H39.0682V13.2356H42.4807V11.0614" fill="#464648"/>
<path d="M53.0912 49.3716C53.0912 49.3716 60.8619 47.9627 60.8619 50.6171C60.8619 53.2716 56.0479 52.1917 53.0912 49.3716ZM47.346 49.5739C46.1112 49.8459 44.9079 50.2454 43.7555 50.7658L44.7305 48.5721C45.7055 46.3783 46.7171 43.3875 46.7171 43.3875C47.8776 45.3475 49.2315 47.1865 50.7585 48.8767C49.609 49.048 48.4697 49.2823 47.346 49.5787V49.5739ZM44.2699 33.7301C44.2699 31.4169 45.0182 30.7856 45.6007 30.7856C46.1833 30.7856 46.839 31.0659 46.8609 33.0744C46.6708 35.094 46.248 37.0848 45.6007 39.0073C44.7111 37.3943 44.2519 35.5794 44.2674 33.7374L44.2699 33.7301ZM32.9379 59.3629C30.554 57.9369 37.9372 53.547 39.2754 53.4056C39.2681 53.4081 35.4339 60.8546 32.9379 59.3629ZM63.1312 50.9316C63.1069 50.6878 62.8875 47.9895 58.0856 48.1041C56.084 48.069 54.0833 48.2101 52.1064 48.5257C50.1903 46.597 48.5409 44.4205 47.2022 42.0542C48.0451 39.615 48.5558 37.0734 48.7207 34.4979C48.65 31.5729 47.9505 29.8959 45.708 29.9203C43.4655 29.9447 43.1389 31.9069 43.4338 34.827C43.7225 36.7894 44.2674 38.7053 45.0547 40.5259C45.0547 40.5259 44.0188 43.7507 42.6489 46.9584C41.279 50.1662 40.343 51.8481 40.343 51.8481C37.9606 52.6227 35.718 53.7748 33.7009 55.2606C31.6924 57.1301 30.8758 58.5658 31.9337 60.0015C32.8453 61.2397 36.036 61.5201 38.8879 57.7834C40.4005 55.8515 41.7848 53.8224 43.0316 51.7091C43.0316 51.7091 47.3801 50.5172 48.7329 50.1906C50.0857 49.8639 51.7213 49.6056 51.7213 49.6056C51.7213 49.6056 55.692 53.6006 59.5213 53.4592C63.3506 53.3179 63.1654 51.1704 63.141 50.9364" fill="#DD2025"/>
<path d="M58.3879 5.06274V19.3782H72.1183L58.3879 5.06274Z" fill="#909090"/>
<path d="M58.5756 4.875V19.1904H72.306L58.5756 4.875Z" fill="#F4F4F4"/>
<path d="M21.8765 10.8639H18.6907V22.5639H21.2062V18.62L21.762 18.6517C22.2998 18.6443 22.8327 18.5479 23.339 18.3665C23.7842 18.2154 24.1933 17.9739 24.5407 17.6572C24.8943 17.3576 25.1717 16.9783 25.35 16.5506C25.5968 15.8406 25.6841 15.0849 25.6059 14.3373C25.592 13.8031 25.4984 13.2741 25.328 12.7676C25.1746 12.4015 24.9463 12.0715 24.658 11.7986C24.3696 11.5258 24.0275 11.3162 23.6535 11.1832C23.3296 11.0626 22.9937 10.9768 22.6517 10.9273C22.3946 10.8854 22.1346 10.8642 21.8741 10.8639M21.4134 16.4555H21.1965V12.848H21.6694C21.877 12.833 22.0853 12.8649 22.279 12.9413C22.4726 13.0176 22.6466 13.1365 22.7882 13.2892C23.0814 13.6817 23.2381 14.1594 23.2342 14.6493C23.2342 15.2489 23.2342 15.7925 22.6931 16.1752C22.3034 16.3899 21.8596 16.4864 21.4159 16.4531M30.3615 10.8322C30.0909 10.8322 29.8277 10.8517 29.6424 10.859L29.0696 10.8736H27.1684V22.5736H29.406C30.261 22.5956 31.1121 22.4507 31.9117 22.1471C32.5555 21.8928 33.1254 21.4814 33.5692 20.9503C34.0042 20.4168 34.3148 19.7931 34.4784 19.1246C34.6707 18.3688 34.7641 17.5912 34.7563 16.8114C34.804 15.8904 34.7327 14.9671 34.5442 14.0643C34.3638 13.4006 34.0298 12.7885 33.5692 12.2776C33.208 11.8645 32.7636 11.5323 32.2652 11.3026C31.8382 11.1047 31.3889 10.959 30.927 10.8688C30.7433 10.8387 30.5573 10.8248 30.3712 10.8273M29.9276 20.4238H29.6839V12.9553H29.7155C30.2181 12.8972 30.7266 12.9878 31.178 13.2161C31.5087 13.4801 31.7782 13.8128 31.9678 14.1911C32.1724 14.5892 32.2904 15.0262 32.3139 15.4732C32.3359 16.0094 32.3139 16.4482 32.3139 16.8114C32.3229 17.2297 32.296 17.6481 32.2335 18.0618C32.1568 18.4861 32.018 18.8968 31.8215 19.2806C31.5996 19.6385 31.2965 19.9391 30.9367 20.1581C30.6362 20.3531 30.2799 20.4439 29.9227 20.4164M42.2979 10.8736H36.3748V22.5736H38.8805V17.9326H42.0493V15.7584H38.8805V13.0479H42.293V10.8736" fill="white"/>
</svg>
