<svg width="74" height="74" viewBox="0 0 74 74" fill="none" xmlns="http://www.w3.org/2000/svg">
<path d="M25.2032 67.969C25.2032 68.7507 24.8927 69.5005 24.3399 70.0533C23.7871 70.6061 23.0373 70.9166 22.2555 70.9166H6.03413C5.64677 70.917 5.26314 70.8411 4.90516 70.6932C4.54717 70.5452 4.22186 70.3281 3.94782 70.0544C3.67377 69.7806 3.45637 69.4555 3.30805 69.0977C3.15972 68.7399 3.08338 68.3563 3.08338 67.969V6.03406C3.08297 5.64645 3.15902 5.26257 3.30716 4.90438C3.45531 4.5462 3.67264 4.22075 3.94673 3.94666C4.22081 3.67258 4.54626 3.45525 4.90444 3.3071C5.26263 3.15896 5.64651 3.08291 6.03413 3.08331H22.2525C23.035 3.08331 23.7856 3.3942 24.339 3.94757C24.8923 4.50094 25.2032 5.25148 25.2032 6.03406V67.969Z" fill="#FFEF5E"/>
<path d="M48.8 67.969C48.8 68.3563 48.7237 68.7399 48.5753 69.0977C48.427 69.4555 48.2096 69.7806 47.9356 70.0544C47.6615 70.3281 47.3362 70.5452 46.9782 70.6932C46.6202 70.8411 46.2366 70.917 45.8492 70.9166H28.1509C27.3694 70.9158 26.6201 70.605 26.0675 70.0524C25.5149 69.4998 25.2041 68.7505 25.2032 67.969V6.03406C25.2032 5.25148 25.5141 4.50094 26.0675 3.94757C26.6209 3.3942 27.3714 3.08331 28.154 3.08331H45.8492C46.2369 3.08291 46.6207 3.15896 46.9789 3.3071C47.3371 3.45525 47.6626 3.67258 47.9366 3.94666C48.2107 4.22075 48.4281 4.5462 48.5762 4.90438C48.7244 5.26257 48.8004 5.64645 48.8 6.03406V67.969Z" fill="#FFBC44"/>
<path d="M70.9167 67.969C70.9167 68.7508 70.6062 69.5005 70.0534 70.0533C69.5006 70.6061 68.7508 70.9166 67.969 70.9166H51.7476C50.9656 70.9167 50.2155 70.6062 49.6622 70.0535C49.1089 69.5008 48.7977 68.751 48.7969 67.969V6.03406C48.7969 5.25148 49.1078 4.50094 49.6611 3.94757C50.2145 3.3942 50.965 3.08331 51.7476 3.08331H67.966C68.3536 3.08291 68.7375 3.15896 69.0956 3.3071C69.4538 3.45525 69.7793 3.67258 70.0534 3.94666C70.3274 4.22075 70.5448 4.5462 70.6929 4.90438C70.8411 5.26257 70.9171 5.64645 70.9167 6.03406V67.969Z" fill="#78EB7B"/>
<path d="M13.4064 62.0675C14.5799 62.0675 15.7053 61.6013 16.535 60.7715C17.3648 59.9418 17.831 58.8163 17.831 57.6429C17.831 56.4694 17.3648 55.344 16.535 54.5142C15.7053 53.6845 14.5799 53.2183 13.4064 53.2183C12.2329 53.2183 11.1075 53.6845 10.2777 54.5142C9.44797 55.344 8.98181 56.4694 8.98181 57.6429C8.98181 58.8163 9.44797 59.9418 10.2777 60.7715C11.1075 61.6013 12.2329 62.0675 13.4064 62.0675ZM37.0001 62.0675C37.595 62.0897 38.1883 61.9917 38.7445 61.7793C39.3007 61.567 39.8084 61.2446 40.2371 60.8316C40.6659 60.4185 41.007 59.9233 41.2399 59.3754C41.4729 58.8275 41.5929 58.2382 41.5929 57.6429C41.5929 57.0475 41.4729 56.4583 41.2399 55.9104C41.007 55.3625 40.6659 54.8672 40.2371 54.4542C39.8084 54.0411 39.3007 53.7188 38.7445 53.5064C38.1883 53.2941 37.595 53.1961 37.0001 53.2183C35.8552 53.261 34.7714 53.7459 33.9766 54.571C33.1817 55.3961 32.7376 56.4972 32.7376 57.6429C32.7376 58.7886 33.1817 59.8896 33.9766 60.7147C34.7714 61.5398 35.8552 62.0247 37.0001 62.0675ZM60.5968 62.0675C61.7703 62.0675 62.8957 61.6013 63.7255 60.7715C64.5552 59.9418 65.0214 58.8163 65.0214 57.6429C65.0214 56.4694 64.5552 55.344 63.7255 54.5142C62.8957 53.6845 61.7703 53.2183 60.5968 53.2183C59.4233 53.2183 58.2979 53.6845 57.4682 54.5142C56.6384 55.344 56.1722 56.4694 56.1722 57.6429C56.1722 58.8163 56.6384 59.9418 57.4682 60.7715C58.2979 61.6013 59.4233 62.0675 60.5968 62.0675Z" fill="white"/>
<path d="M17.831 10.4556V17.8309H8.98181V10.4525C8.98343 10.0621 9.13923 9.68815 9.41528 9.41211C9.69133 9.13606 10.0653 8.98026 10.4556 8.97864H16.3541C16.745 8.97945 17.1197 9.13489 17.3964 9.41102C17.6731 9.68716 17.8293 10.0646 17.831 10.4556Z" fill="#FF808C"/>
<path d="M17.831 17.8309V42.8984C17.8293 43.2893 17.6731 43.6637 17.3964 43.9398C17.1197 44.216 16.745 44.3714 16.3541 44.3722H10.4556C10.0653 44.3706 9.69133 44.2148 9.41528 43.9387C9.13923 43.6627 8.98343 43.2888 8.98181 42.8984V17.8309H17.831Z" fill="white"/>
<path d="M41.4246 10.4556V17.8309H32.5754V10.4525C32.5771 10.0616 32.7333 9.68716 33.01 9.41102C33.2867 9.13489 33.6614 8.97945 34.0524 8.97864H39.9508C40.3412 8.98026 40.7151 9.13606 40.9911 9.41211C41.2672 9.68815 41.423 10.0652 41.4246 10.4556Z" fill="#FF808C"/>
<path d="M41.4246 17.8309V42.8984C41.423 43.2888 41.2672 43.6627 40.9911 43.9387C40.7151 44.2148 40.3412 44.3706 39.9508 44.3722H34.0524C33.6614 44.3714 33.2867 44.216 33.01 43.9398C32.7333 43.6637 32.5771 43.2893 32.5754 42.8984V17.8309H41.4246Z" fill="white"/>
<path d="M65.0182 10.4556V17.8309H56.1691V10.4525C56.1707 10.0616 56.3269 9.68716 56.6036 9.41102C56.8803 9.13489 57.2551 8.97945 57.646 8.97864H63.5444C63.9348 8.98026 64.3087 9.13606 64.5848 9.41211C64.8608 9.68815 65.0166 10.0652 65.0182 10.4556Z" fill="#FF808C"/>
<path d="M65.0183 17.8309V42.8984C65.0167 43.2888 64.8609 43.6627 64.5849 43.9387C64.3088 44.2148 63.9349 44.3706 63.5445 44.3722H57.6461C57.2557 44.3706 56.8818 44.2148 56.6057 43.9387C56.3297 43.6627 56.1739 43.2888 56.1722 42.8984V17.8309H65.0183Z" fill="white"/>
<path d="M25.2032 67.969C25.2032 68.7507 24.8927 69.5005 24.3399 70.0533C23.7871 70.6061 23.0373 70.9166 22.2555 70.9166H6.03413C5.64677 70.917 5.26314 70.8411 4.90516 70.6932C4.54717 70.5452 4.22186 70.3281 3.94782 70.0544C3.67377 69.7806 3.45637 69.4555 3.30805 69.0977C3.15972 68.7399 3.08338 68.3563 3.08338 67.969V6.03406C3.08297 5.64645 3.15902 5.26257 3.30716 4.90438C3.45531 4.5462 3.67264 4.22075 3.94673 3.94666C4.22081 3.67258 4.54626 3.45525 4.90444 3.3071C5.26263 3.15896 5.64651 3.08291 6.03413 3.08331H22.2525C23.035 3.08331 23.7856 3.3942 24.339 3.94757C24.8923 4.50094 25.2032 5.25148 25.2032 6.03406M25.2032 67.969V6.03406M25.2032 67.969C25.204 68.7505 25.5148 69.4998 26.0675 70.0524C26.6201 70.605 27.3694 70.9158 28.1509 70.9166H45.8492C46.2366 70.917 46.6202 70.8411 46.9782 70.6932C47.3362 70.5452 47.6615 70.3281 47.9355 70.0544C48.2096 69.7806 48.427 69.4555 48.5753 69.0977C48.7236 68.7399 48.8 68.3563 48.8 67.969V6.03406C48.8004 5.64645 48.7243 5.26257 48.5762 4.90438C48.428 4.5462 48.2107 4.22075 47.9366 3.94666C47.6625 3.67258 47.3371 3.45525 46.9789 3.3071C46.6207 3.15896 46.2368 3.08291 45.8492 3.08331H28.154C27.3714 3.08331 26.6208 3.3942 26.0675 3.94757C25.5141 4.50094 25.2032 5.25148 25.2032 6.03406" stroke="#191919" stroke-linecap="round" stroke-linejoin="round"/>
<path d="M70.9167 67.969C70.9167 68.7508 70.6062 69.5005 70.0534 70.0533C69.5006 70.6061 68.7508 70.9166 67.9691 70.9166H51.7476C50.9656 70.9167 50.2155 70.6062 49.6622 70.0535C49.109 69.5008 48.7977 68.751 48.7969 67.969V6.03406C48.7969 5.25148 49.1078 4.50094 49.6612 3.94757C50.2145 3.3942 50.9651 3.08331 51.7476 3.08331H67.966C68.3536 3.08291 68.7375 3.15896 69.0957 3.3071C69.4538 3.45525 69.7793 3.67258 70.0534 3.94666C70.3275 4.22075 70.5448 4.5462 70.6929 4.90438C70.8411 5.26257 70.9171 5.64645 70.9167 6.03406V67.969ZM13.4064 62.0675C14.5799 62.0675 15.7053 61.6013 16.535 60.7716C17.3648 59.9418 17.831 58.8164 17.831 57.6429C17.831 56.4694 17.3648 55.344 16.535 54.5142C15.7053 53.6845 14.5799 53.2183 13.4064 53.2183C12.2329 53.2183 11.1075 53.6845 10.2777 54.5142C9.44797 55.344 8.98181 56.4694 8.98181 57.6429C8.98181 58.8164 9.44797 59.9418 10.2777 60.7716C11.1075 61.6013 12.2329 62.0675 13.4064 62.0675ZM37.0001 62.0675C37.595 62.0897 38.1883 61.9917 38.7445 61.7794C39.3007 61.567 39.8084 61.2447 40.2371 60.8316C40.6659 60.4186 41.007 59.9233 41.2399 59.3754C41.4729 58.8275 41.5929 58.2383 41.5929 57.6429C41.5929 57.0475 41.4729 56.4583 41.2399 55.9104C41.007 55.3625 40.6659 54.8672 40.2371 54.4542C39.8084 54.0411 39.3007 53.7188 38.7445 53.5064C38.1883 53.2941 37.595 53.1961 37.0001 53.2183C35.8552 53.2611 34.7714 53.7459 33.9766 54.571C33.1817 55.3961 32.7376 56.4972 32.7376 57.6429C32.7376 58.7886 33.1817 59.8897 33.9766 60.7148C34.7714 61.5399 35.8552 62.0247 37.0001 62.0675Z" stroke="#191919" stroke-linecap="round" stroke-linejoin="round"/>
<path d="M17.831 17.8309V10.4556C17.8293 10.0646 17.6731 9.68716 17.3964 9.41102C17.1197 9.13489 16.745 8.97945 16.3541 8.97864H10.4556C10.0653 8.98026 9.69133 9.13606 9.41528 9.41211C9.13923 9.68815 8.98343 10.0621 8.98181 10.4525V17.8309M17.831 17.8309H8.98181M17.831 17.8309V42.8984C17.8293 43.2893 17.6731 43.6637 17.3964 43.9398C17.1197 44.216 16.745 44.3714 16.3541 44.3722H10.4556C10.0653 44.3706 9.69133 44.2148 9.41528 43.9388C9.13923 43.6627 8.98343 43.2888 8.98181 42.8984V17.8309M41.4246 17.8309V10.4556C41.423 10.0652 41.2672 9.68815 40.9912 9.41211C40.7151 9.13606 40.3412 8.98026 39.9508 8.97864H34.0524C33.6615 8.97945 33.2868 9.13489 33.01 9.41102C32.7333 9.68716 32.5771 10.0616 32.5755 10.4525V17.8309M41.4246 17.8309H32.5755M41.4246 17.8309V42.8984C41.423 43.2888 41.2672 43.6627 40.9912 43.9388C40.7151 44.2148 40.3412 44.3706 39.9508 44.3722H34.0524C33.6615 44.3714 33.2868 44.216 33.01 43.9398C32.7333 43.6637 32.5771 43.2893 32.5755 42.8984V17.8309M65.0183 17.8309V10.4556C65.0167 10.0652 64.8609 9.68815 64.5848 9.41211C64.3088 9.13606 63.9349 8.98026 63.5445 8.97864H57.6461C57.2551 8.97945 56.8804 9.13489 56.6037 9.41102C56.327 9.68716 56.1708 10.0616 56.1691 10.4525V17.8309H65.0183ZM65.0183 17.8309V42.8984C65.0167 43.2888 64.8609 43.6627 64.5848 43.9388C64.3088 44.2148 63.9349 44.3706 63.5445 44.3722H57.6461C57.2557 44.3706 56.8817 44.2148 56.6057 43.9388C56.3297 43.6627 56.1739 43.2888 56.1722 42.8984V17.8309H65.0183ZM60.5968 62.0675C61.7703 62.0675 62.8957 61.6013 63.7255 60.7715C64.5552 59.9418 65.0214 58.8164 65.0214 57.6429C65.0214 56.4694 64.5552 55.344 63.7255 54.5142C62.8957 53.6845 61.7703 53.2183 60.5968 53.2183C59.4233 53.2183 58.2979 53.6845 57.4682 54.5142C56.6384 55.344 56.1722 56.4694 56.1722 57.6429C56.1722 58.8164 56.6384 59.9418 57.4682 60.7715C58.2979 61.6013 59.4233 62.0675 60.5968 62.0675Z" stroke="#191919" stroke-linecap="round" stroke-linejoin="round"/>
</svg>
