<svg width="41" height="41" viewBox="0 0 41 41" fill="none" xmlns="http://www.w3.org/2000/svg">
<path fill-rule="evenodd" clip-rule="evenodd" d="M8.54165 15.375C8.17033 15.3748 7.80906 15.4956 7.51252 15.7191C7.21599 15.9425 7.00034 16.2565 6.89823 16.6135L3.8369 27.3333H37.1631L34.1 16.6135C33.998 16.2568 33.7826 15.943 33.4864 15.7196C33.1902 15.4961 32.8293 15.3752 32.4583 15.375H8.54165ZM37.2075 30.75H3.79248L4.52877 33.702C4.80608 34.8106 5.44593 35.7947 6.34665 36.4979C7.24737 37.2012 8.35728 37.5832 9.50002 37.5833H31.5016C32.6444 37.5832 33.7543 37.2012 34.655 36.4979C35.5557 35.7947 36.1956 34.8106 36.4729 33.702L37.2075 30.75ZM11.9036 20.2096C12.1163 19.7836 12.4435 19.4253 12.8484 19.1748C13.2534 18.9244 13.7201 18.7917 14.1962 18.7917H26.8071C27.4868 18.7917 28.1385 19.0616 28.6191 19.5422C29.0997 20.0228 29.3696 20.6745 29.3696 21.3542C29.3696 22.0338 29.0997 22.6856 28.6191 23.1661C28.1385 23.6467 27.4868 23.9167 26.8071 23.9167H14.1945C13.7579 23.9167 13.3285 23.8051 12.947 23.5925C12.5656 23.3799 12.2449 23.0734 12.0152 22.702C11.7855 22.3306 11.6546 21.9067 11.6348 21.4705C11.6149 21.0343 11.7069 20.6003 11.9019 20.2096H11.9036Z" fill="#1D4ED8"/>
<path d="M6.36867 9.48125C6.22321 8.97271 6.19781 8.43734 6.29447 7.91731C6.39113 7.39728 6.6072 6.9068 6.92567 6.48448C7.24415 6.06217 7.65632 5.71957 8.12973 5.48366C8.60314 5.24775 9.12486 5.12497 9.6538 5.125H31.3479C31.8769 5.12497 32.3986 5.24775 32.872 5.48366C33.3454 5.71957 33.7576 6.06217 34.076 6.48448C34.3945 6.9068 34.6106 7.39728 34.7072 7.91731C34.8039 8.43734 34.7785 8.97271 34.633 9.48125L32.4583 17.0833H8.54167L6.36867 9.48125Z" stroke="#1D4ED8" stroke-width="2" stroke-linecap="round" stroke-linejoin="round"/>
</svg>
