<svg width="41" height="41" viewBox="0 0 41 41" fill="none" xmlns="http://www.w3.org/2000/svg">
<path fill-rule="evenodd" clip-rule="evenodd" d="M6.40625 2.6778C6.06644 2.6778 5.74055 2.81278 5.50027 3.05307C5.25999 3.29335 5.125 3.61924 5.125 3.95905V31.9159C5.125 32.2557 5.25999 32.5816 5.50027 32.8219C5.74055 33.0622 6.06644 33.1972 6.40625 33.1972H29.4688C29.8086 33.1972 30.1345 33.0622 30.3747 32.8219C30.615 32.5816 30.75 32.2557 30.75 31.9159V13.7452C30.7503 13.5732 30.716 13.4028 30.6491 13.2444C30.5822 13.0859 30.484 12.9425 30.3605 12.8227L20.2719 3.04423C20.0333 2.81158 19.7134 2.68106 19.3802 2.68036L6.40625 2.6778ZM26.3066 12.464L20.6614 6.98792V12.464H26.3066ZM15.375 14.0937H10.25V11.5312H15.375V14.0937ZM25.625 20.5H10.25V17.9375H25.625V20.5ZM10.25 26.9062H25.625V24.3437H10.25V26.9062Z" fill="#475569"/>
<path d="M33.3125 19.2188V35.875H11.5312V38.4375H34.5938C34.9336 38.4375 35.2595 38.3025 35.4997 38.0622C35.74 37.822 35.875 37.4961 35.875 37.1562V19.2188H33.3125Z" fill="#475569"/>
</svg>
