<svg width="19" height="19" viewBox="0 0 19 19" fill="none" xmlns="http://www.w3.org/2000/svg">
<path d="M1.58331 14.25V11.875C1.58331 11.2153 1.81422 10.6545 2.27602 10.1927C2.73783 9.73092 3.29859 9.50002 3.95831 9.50002H4.74998V4.75002C4.74998 4.3146 4.90515 3.94199 5.21548 3.63219C5.52581 3.32238 5.89842 3.16721 6.33331 3.16669H12.6666C13.1021 3.16669 13.4749 3.32185 13.7853 3.63219C14.0956 3.94252 14.2505 4.31513 14.25 4.75002V9.50002H15.0416C15.7014 9.50002 16.2621 9.73092 16.7239 10.1927C17.1857 10.6545 17.4166 11.2153 17.4166 11.875V14.25C17.4166 14.6854 17.2617 15.0583 16.9519 15.3686C16.6421 15.679 16.2693 15.8339 15.8333 15.8334H3.16665C2.73123 15.8334 2.35862 15.6785 2.04881 15.3686C1.73901 15.0588 1.58384 14.686 1.58331 14.25ZM6.33331 9.50002H12.6666V4.75002H6.33331V9.50002ZM14.25 13.4584C14.4743 13.4584 14.6624 13.3824 14.8144 13.2304C14.9664 13.0784 15.0422 12.8905 15.0416 12.6667C15.0411 12.4429 14.9651 12.255 14.8136 12.103C14.6622 11.951 14.4743 11.875 14.25 11.875C14.0257 11.875 13.8378 11.951 13.6863 12.103C13.5348 12.255 13.4588 12.4429 13.4583 12.6667C13.4578 12.8905 13.5338 13.0786 13.6863 13.2311C13.8388 13.3837 14.0267 13.4594 14.25 13.4584Z" fill="white"/>
</svg>
