<svg width="106" height="106" viewBox="0 0 106 106" fill="none" xmlns="http://www.w3.org/2000/svg">
<path d="M95.9532 39.75H31.2766C29.8856 39.7497 28.5298 40.1872 27.4013 41.0005C26.2729 41.8139 25.4291 42.9618 24.9895 44.2815L13.25 79.5V33.125H92.75C92.75 31.3679 92.052 29.6828 90.8096 28.4404C89.5672 27.198 87.8821 26.5 86.125 26.5H50.0983C48.5487 26.4993 47.0483 25.9554 45.8583 24.963L41.5918 21.412C40.4017 20.4196 38.9013 19.8757 37.3518 19.875H13.25C11.4929 19.875 9.80785 20.573 8.56542 21.8154C7.32299 23.0578 6.625 24.7429 6.625 26.5V79.5C6.625 81.2571 7.32299 82.9422 8.56542 84.1846C9.80785 85.427 11.4929 86.125 13.25 86.125H86.125L102.042 48.9853C102.474 47.9776 102.649 46.8785 102.551 45.7866C102.454 44.6946 102.087 43.6438 101.484 42.7285C100.88 41.8132 100.059 41.062 99.0939 40.5421C98.1286 40.0223 97.0495 39.7501 95.9532 39.75Z" fill="#0277BD"/>
<path d="M79.5 33.125H56.3125C55.434 33.125 54.5914 33.474 53.9702 34.0952C53.349 34.7164 53 35.559 53 36.4375V89.4375C53 90.316 53.349 91.1586 53.9702 91.7798C54.5914 92.401 55.434 92.75 56.3125 92.75H96.0625C96.941 92.75 97.7836 92.401 98.4048 91.7798C99.026 91.1586 99.375 90.316 99.375 89.4375V53L79.5 33.125ZM79.5 86.125H59.625V79.5H79.5V86.125ZM92.75 72.875H59.625V66.25H92.75V72.875ZM76.7573 55.7427V39.75L92.75 55.7427H76.7573Z" fill="#B3E5FC"/>
</svg>
