<svg width="19" height="19" viewBox="0 0 19 19" fill="none" xmlns="http://www.w3.org/2000/svg">
<path d="M4.75002 15.8333C4.3146 15.8333 3.94199 15.6784 3.63219 15.3686C3.32238 15.0588 3.16721 14.6859 3.16669 14.25V12.6667C3.16669 12.4424 3.24269 12.2545 3.39469 12.103C3.54669 11.9515 3.73458 11.8755 3.95835 11.875C4.18213 11.8745 4.37028 11.9505 4.52281 12.103C4.67534 12.2555 4.75108 12.4434 4.75002 12.6667V14.25H14.25V12.6667C14.25 12.4424 14.326 12.2545 14.478 12.103C14.63 11.9515 14.8179 11.8755 15.0417 11.875C15.2655 11.8745 15.4536 11.9505 15.6061 12.103C15.7587 12.2555 15.8344 12.4434 15.8334 12.6667V14.25C15.8334 14.6854 15.6785 15.0583 15.3686 15.3686C15.0588 15.679 14.686 15.8339 14.25 15.8333H4.75002ZM8.70835 6.21458L7.22398 7.69896C7.06565 7.85729 6.87776 7.93329 6.66031 7.92696C6.44287 7.92062 6.25471 7.83803 6.09585 7.67917C5.95071 7.52083 5.87471 7.33611 5.86785 7.125C5.86099 6.91389 5.93699 6.72917 6.09585 6.57083L8.94585 3.72083C9.02502 3.64167 9.11078 3.58572 9.20315 3.553C9.29551 3.52028 9.39446 3.50365 9.50002 3.50312C9.60558 3.5026 9.70453 3.51922 9.7969 3.553C9.88926 3.58678 9.97502 3.64272 10.0542 3.72083L12.9042 6.57083C13.0625 6.72917 13.1385 6.91389 13.1322 7.125C13.1259 7.33611 13.0499 7.52083 12.9042 7.67917C12.7459 7.8375 12.558 7.9201 12.3405 7.92696C12.1231 7.93382 11.9349 7.85782 11.7761 7.69896L10.2917 6.21458V11.875C10.2917 12.0993 10.2157 12.2875 10.0637 12.4395C9.91169 12.5915 9.7238 12.6672 9.50002 12.6667C9.27624 12.6661 9.08835 12.5901 8.93635 12.4387C8.78435 12.2872 8.70835 12.0993 8.70835 11.875V6.21458Z" fill="white"/>
</svg>
