<svg width="26" height="26" viewBox="0 0 26 26" fill="none" xmlns="http://www.w3.org/2000/svg">
<path d="M2.16669 19.5V16.25C2.16669 15.3472 2.48266 14.5798 3.1146 13.9479C3.74655 13.316 4.51391 13 5.41669 13H6.50002V6.49998C6.50002 5.90415 6.71235 5.39426 7.13702 4.97031C7.56169 4.54637 8.07158 4.33404 8.66669 4.33331H17.3334C17.9292 4.33331 18.4394 4.54565 18.8641 4.97031C19.2888 5.39498 19.5007 5.90487 19.5 6.49998V13H20.5834C21.4861 13 22.2535 13.316 22.8854 13.9479C23.5174 14.5798 23.8334 15.3472 23.8334 16.25V19.5C23.8334 20.0958 23.6214 20.6061 23.1974 21.0307C22.7735 21.4554 22.2632 21.6674 21.6667 21.6666H4.33335C3.73752 21.6666 3.22763 21.4547 2.80369 21.0307C2.37974 20.6068 2.16741 20.0965 2.16669 19.5ZM8.66669 13H17.3334V6.49998H8.66669V13ZM19.5 18.4166C19.807 18.4166 20.0644 18.3126 20.2724 18.1046C20.4804 17.8966 20.5841 17.6395 20.5834 17.3333C20.5826 17.0271 20.4786 16.77 20.2714 16.562C20.0641 16.354 19.807 16.25 19.5 16.25C19.1931 16.25 18.936 16.354 18.7287 16.562C18.5214 16.77 18.4174 17.0271 18.4167 17.3333C18.416 17.6395 18.52 17.897 18.7287 18.1057C18.9374 18.3145 19.1945 18.4181 19.5 18.4166Z" fill="white"/>
</svg>
