<svg width="34" height="34" viewBox="0 0 34 34" fill="none" xmlns="http://www.w3.org/2000/svg">
<path fill-rule="evenodd" clip-rule="evenodd" d="M7.08335 12.75C6.77543 12.7498 6.47584 12.85 6.22993 13.0353C5.98403 13.2206 5.8052 13.481 5.72052 13.7771L3.18185 22.6667H30.8182L28.2781 13.7771C28.1935 13.4813 28.0149 13.221 27.7693 13.0357C27.5236 12.8504 27.2244 12.7501 26.9167 12.75H7.08335ZM30.855 25.5H3.14502L3.7556 27.948C3.98556 28.8673 4.51617 29.6834 5.26311 30.2666C6.01005 30.8497 6.93047 31.1666 7.8781 31.1667H26.1234C27.071 31.1666 27.9914 30.8497 28.7383 30.2666C29.4853 29.6834 30.0159 28.8673 30.2459 27.948L30.855 25.5ZM9.87135 16.7592C10.0477 16.4059 10.319 16.1088 10.6548 15.9011C10.9906 15.6934 11.3777 15.5833 11.7725 15.5833H22.2304C22.7939 15.5833 23.3344 15.8072 23.733 16.2057C24.1315 16.6042 24.3554 17.1447 24.3554 17.7083C24.3554 18.2719 24.1315 18.8124 23.733 19.2109C23.3344 19.6095 22.7939 19.8333 22.2304 19.8333H11.7711C11.409 19.8333 11.0529 19.7408 10.7366 19.5645C10.4203 19.3882 10.1543 19.134 9.96386 18.826C9.77341 18.5181 9.6648 18.1665 9.64837 17.8048C9.63193 17.4431 9.7082 17.0831 9.86994 16.7592H9.87135Z" fill="white"/>
<path d="M5.28136 7.8625C5.16074 7.44078 5.13967 6.99682 5.21983 6.56558C5.29998 6.13433 5.47917 5.72759 5.74326 5.37738C6.00736 5.02717 6.34917 4.74306 6.74175 4.54742C7.13434 4.35179 7.56698 4.24998 8.00561 4.25H25.9959C26.4345 4.24998 26.8671 4.35179 27.2597 4.54742C27.6523 4.74306 27.9941 5.02717 28.2582 5.37738C28.5223 5.72759 28.7015 6.13433 28.7816 6.56558C28.8618 6.99682 28.8407 7.44078 28.7201 7.8625L26.9167 14.1667H7.08336L5.28136 7.8625Z" stroke="white" stroke-width="2" stroke-linecap="round" stroke-linejoin="round"/>
</svg>
