<svg width="17" height="17" viewBox="0 0 17 17" fill="none" xmlns="http://www.w3.org/2000/svg">
<path d="M1.41663 12.75V10.625C1.41663 10.0348 1.62322 9.53303 2.03642 9.11983C2.44961 8.70664 2.95135 8.50004 3.54163 8.50004H4.24996V4.25004C4.24996 3.86046 4.38879 3.52707 4.66646 3.24987C4.94413 2.97268 5.27752 2.83385 5.66663 2.83337H11.3333C11.7229 2.83337 12.0565 2.97221 12.3342 3.24987C12.6118 3.52754 12.7504 3.86093 12.75 4.25004V8.50004H13.4583C14.0486 8.50004 14.5503 8.70664 14.9635 9.11983C15.3767 9.53303 15.5833 10.0348 15.5833 10.625V12.75C15.5833 13.1396 15.4447 13.4732 15.1675 13.7509C14.8903 14.0286 14.5567 14.1672 14.1666 14.1667H2.83329C2.44371 14.1667 2.11032 14.0281 1.83313 13.7509C1.55593 13.4737 1.4171 13.1401 1.41663 12.75ZM5.66663 8.50004H11.3333V4.25004H5.66663V8.50004ZM12.75 12.0417C12.9507 12.0417 13.119 11.9737 13.255 11.8377C13.391 11.7017 13.4588 11.5336 13.4583 11.3334C13.4578 11.1332 13.3898 10.965 13.2543 10.829C13.1188 10.693 12.9507 10.625 12.75 10.625C12.5493 10.625 12.3812 10.693 12.2456 10.829C12.1101 10.965 12.0421 11.1332 12.0416 11.3334C12.0412 11.5336 12.1092 11.7019 12.2456 11.8384C12.3821 11.9749 12.5502 12.0427 12.75 12.0417Z" fill="white"/>
</svg>
