<svg width="56" height="56" viewBox="0 0 56 56" fill="none" xmlns="http://www.w3.org/2000/svg">
<path fill-rule="evenodd" clip-rule="evenodd" d="M11.6667 21C11.1595 20.9997 10.666 21.1647 10.261 21.4699C9.85601 21.7752 9.56146 22.2041 9.42199 22.6917L5.24066 37.3333H50.7593L46.5757 22.6917C46.4363 22.2044 46.1421 21.7758 45.7376 21.4706C45.333 21.1654 44.8401 21.0002 44.3333 21H11.6667ZM50.82 42H5.17999L6.18566 46.032C6.56442 47.5462 7.43836 48.8903 8.66861 49.8508C9.89886 50.8114 11.4148 51.3332 12.9757 51.3333H43.0267C44.5875 51.3332 46.1035 50.8114 47.3337 49.8508C48.564 48.8903 49.4379 47.5462 49.8167 46.032L50.82 42ZM16.2587 27.6033C16.5491 27.0215 16.996 26.5321 17.5491 26.19C18.1022 25.8479 18.7397 25.6667 19.39 25.6667H36.6147C37.5429 25.6667 38.4332 26.0354 39.0895 26.6918C39.7459 27.3482 40.1147 28.2384 40.1147 29.1667C40.1147 30.0949 39.7459 30.9852 39.0895 31.6415C38.4332 32.2979 37.5429 32.6667 36.6147 32.6667H19.3877C18.7913 32.6666 18.2047 32.5142 17.6838 32.2239C17.1628 31.9335 16.7247 31.5148 16.411 31.0076C16.0973 30.5003 15.9185 29.9214 15.8914 29.3256C15.8643 28.7298 15.9899 28.1369 16.2563 27.6033H16.2587Z" fill="#2563EB"/>
<path d="M8.69866 12.95C8.49999 12.2554 8.4653 11.5242 8.59732 10.8139C8.72934 10.1036 9.02446 9.43367 9.45945 8.85686C9.89444 8.28004 10.4574 7.81209 11.104 7.48987C11.7506 7.16765 12.4632 6.99996 13.1857 7H42.8167C43.5391 6.99996 44.2517 7.16765 44.8983 7.48987C45.5449 7.81209 46.1079 8.28004 46.5429 8.85686C46.9779 9.43367 47.273 10.1036 47.405 10.8139C47.537 11.5242 47.5023 12.2554 47.3037 12.95L44.3333 23.3333H11.6667L8.69866 12.95Z" stroke="#2563EB" stroke-width="2" stroke-linecap="round" stroke-linejoin="round"/>
</svg>
