<svg width="12" height="12" viewBox="0 0 12 12" fill="none" xmlns="http://www.w3.org/2000/svg">
<path fill-rule="evenodd" clip-rule="evenodd" d="M11 6C11 8.7615 8.7615 11 6 11C3.2385 11 1 8.7615 1 6C1 3.2385 3.2385 1 6 1C8.7615 1 11 3.2385 11 6ZM5.5 4C5.5 4.13261 5.55268 4.25979 5.64645 4.35355C5.74021 4.44732 5.86739 4.5 6 4.5H6.004C6.13661 4.5 6.26379 4.44732 6.35755 4.35355C6.45132 4.25979 6.504 4.13261 6.504 4C6.504 3.86739 6.45132 3.74021 6.35755 3.64645C6.26379 3.55268 6.13661 3.5 6.004 3.5H6C5.86739 3.5 5.74021 3.55268 5.64645 3.64645C5.55268 3.74021 5.5 3.86739 5.5 4ZM6 8.5C6.13261 8.5 6.25979 8.44732 6.35355 8.35355C6.44732 8.25979 6.5 8.13261 6.5 8V5.5C6.5 5.36739 6.44732 5.24021 6.35355 5.14645C6.25979 5.05268 6.13261 5 6 5C5.86739 5 5.74021 5.05268 5.64645 5.14645C5.55268 5.24021 5.5 5.36739 5.5 5.5V8C5.5 8.13261 5.55268 8.25979 5.64645 8.35355C5.74021 8.44732 5.86739 8.5 6 8.5Z" fill="#F59E0B"/>
</svg>
