<?xml version="1.0" encoding="UTF-8"?>
<svg version="1.1" xmlns="http://www.w3.org/2000/svg" width="118" height="110">
<path d="M0 0 C6.89126059 5.64557667 11.04407482 12.4852288 12.48046875 21.3046875 C12.89984609 26.65174857 11.89347367 30.85762913 10.234375 35.875 C9.98558594 36.67679688 9.73679688 37.47859375 9.48046875 38.3046875 C9.22974609 39.10261719 8.97902344 39.90054688 8.72070312 40.72265625 C8.19534156 43.34198661 8.19534156 43.34198661 9.83569336 45.22998047 C10.51124268 45.82955566 11.18679199 46.42913086 11.8828125 47.046875 C12.97045898 48.05814453 12.97045898 48.05814453 14.08007812 49.08984375 C15.63262065 50.47766372 17.18729513 51.86310254 18.74414062 53.24609375 C24.34423134 58.46356957 24.34423134 58.46356957 25.109375 63.1875 C24.48046875 66.3046875 24.48046875 66.3046875 22.48046875 68.3046875 C19.00321231 68.93059366 16.59233161 69.02785034 13.55859375 67.0546875 C10.56497095 64.4681974 7.84408853 61.69510673 5.1484375 58.80078125 C4.37113281 57.97707031 3.59382813 57.15335938 2.79296875 56.3046875 C2.08785156 55.5209375 1.38273437 54.7371875 0.65625 53.9296875 C-1.41682816 52.01238261 -1.41682816 52.01238261 -4.125 52.48828125 C-5.81597259 53.06481187 -7.48849054 53.69688531 -9.14453125 54.3671875 C-18.58886919 56.99061471 -27.18465961 55.18551818 -35.64453125 50.6171875 C-43.59717394 44.22049664 -48.23053423 37.18484456 -49.8984375 26.98828125 C-50.34581034 18.9211387 -47.35884097 11.11372289 -42.26953125 4.9296875 C-30.66768414 -7.16796504 -14.08593125 -9.47797545 0 0 Z M-35.51953125 11.3046875 C-39.82204937 17.1523824 -40.52429659 23.20917972 -39.51953125 30.3046875 C-37.42534072 37.50424191 -32.50029495 41.93774692 -26.20703125 45.6796875 C-19.53007393 47.23246827 -13.3669671 47.08120958 -7.33984375 43.640625 C-2.56383302 40.13548408 0.62774499 35.93023055 2.48046875 30.3046875 C3.26837663 24.1754971 3.01035515 18.51017567 -0.1171875 13.08984375 C-3.65132109 8.5909606 -8.94186877 4.69910312 -14.51953125 3.3046875 C-23.15519778 2.60826278 -29.30100681 5.08616306 -35.51953125 11.3046875 Z " fill="#939296" transform="translate(69.51953125,21.6953125)"/>
<path d="M0 0 C0.66 0.33 1.32 0.66 2 1 C1.86078125 1.83313721 1.86078125 1.83313721 1.71875 2.68310547 C1.36457051 6.42175456 1.28482617 8.98450904 3.5 12.12988281 C5.59501054 14.22796222 7.75177312 16.19198061 10 18.125 C17.82782719 24.93468075 17.82782719 24.93468075 18.625 29.8671875 C18 33 18 33 16 35 C12.52274356 35.62590616 10.11186286 35.72316284 7.078125 33.75 C4.0845022 31.1635099 1.36361978 28.39041923 -1.33203125 25.49609375 C-2.10933594 24.67238281 -2.88664062 23.84867188 -3.6875 23 C-4.74517578 21.824375 -4.74517578 21.824375 -5.82421875 20.625 C-7.89741362 18.70311369 -7.89741362 18.70311369 -10.6015625 19.2109375 C-11.78878906 19.60152344 -11.78878906 19.60152344 -13 20 C-18.50625775 21.28052506 -23.45921044 20.7117615 -29 20 C-28.814375 19.38125 -28.62875 18.7625 -28.4375 18.125 C-27.76313824 15.95839822 -27.76313824 15.95839822 -29 14 C-27.72125 13.7525 -26.4425 13.505 -25.125 13.25 C-16.90647913 11.39212401 -10.11080377 8.56714083 -3.59375 3.171875 C-2 2 -2 2 0 2 C0 1.34 0 0.68 0 0 Z " fill="#8D8D91" transform="translate(76,55)"/>
<path d="M0 0 C3.6001556 1.20005187 3.8558784 1.60283613 5.5 4.8125 C9.45362805 14.04856885 8.33305965 21.75688602 5.1875 31.0625 C4.5275 30.0725 3.8675 29.0825 3.1875 28.0625 C0.14897295 29.47226705 -2.4064595 31.15120228 -5.0625 33.1875 C-5.76890625 33.72632813 -6.4753125 34.26515625 -7.203125 34.8203125 C-7.73421875 35.23023438 -8.2653125 35.64015625 -8.8125 36.0625 C-9.4725 35.7325 -10.1325 35.4025 -10.8125 35.0625 C-10.40257812 34.61519531 -9.99265625 34.16789062 -9.5703125 33.70703125 C-9.03148438 33.10246094 -8.49265625 32.49789062 -7.9375 31.875 C-7.40382813 31.28332031 -6.87015625 30.69164063 -6.3203125 30.08203125 C-2.20992464 24.5766672 -2.03380439 18.69068286 -2.8125 12.0625 C-4.22916922 7.97955239 -6.42656709 4.64139937 -8.8125 1.0625 C-7.6059375 1.0934375 -7.6059375 1.0934375 -6.375 1.125 C-3.24912779 1.04875921 -3.21581114 0.07146247 0 0 Z " fill="#98979A" transform="translate(73.8125,28.9375)"/>
<path d="M0 0 C2.5 1.5625 2.5 1.5625 5 4 C5.4375 7.625 5.4375 7.625 5 11 C3 13 3 13 -0.3125 13.4375 C-4.85471922 12.89859263 -6.14762021 11.45743005 -9 8 C-8.34 8 -7.68 8 -7 8 C-7 7.34 -7 6.68 -7 6 C-5.01310269 4.64721885 -3.01254782 3.31431695 -1 2 C-0.67 1.34 -0.34 0.68 0 0 Z " fill="#949497" transform="translate(89,77)"/>
<path d="M0 0 C0.33 0 0.66 0 1 0 C1.14695312 1.30324219 1.14695312 1.30324219 1.296875 2.6328125 C2.44563102 11.53164661 2.44563102 11.53164661 7 19 C7.33 19.66 7.66 20.32 8 21 C6.35 20.67 4.7 20.34 3 20 C0.18447274 13.21256822 -0.3689719 7.31110994 0 0 Z " fill="#B0AFB1" transform="translate(29,42)"/>
<path d="M0 0 C0.66 0.33 1.32 0.66 2 1 C1.67 2.65 1.34 4.3 1 6 C0.34 6 -0.32 6 -1 6 C-1 6.66 -1 7.32 -1 8 C-1.66 7.67 -2.32 7.34 -3 7 C-2.67 5.35 -2.34 3.7 -2 2 C-1.34 2 -0.68 2 0 2 C0 1.34 0 0.68 0 0 Z " fill="#858588" transform="translate(76,55)"/>
<path d="M0 0 C1.32 0 2.64 0 4 0 C3.67 1.65 3.34 3.3 3 5 C1.68 4.34 0.36 3.68 -1 3 C-0.67 2.01 -0.34 1.02 0 0 Z " fill="#838287" transform="translate(29,26)"/>
<path d="M0 0 C-0.33 1.98 -0.66 3.96 -1 6 C-1.66 5.67 -2.32 5.34 -3 5 C-2.67 4.34 -2.34 3.68 -2 3 C-2.99 3 -3.98 3 -5 3 C-5 2.34 -5 1.68 -5 1 C-2 0 -2 0 0 0 Z " fill="#858488" transform="translate(39,65)"/>
</svg>
