<svg width="43" height="43" viewBox="0 0 43 43" fill="none" xmlns="http://www.w3.org/2000/svg">
<path d="M17.9167 7.16666C16.016 7.16666 14.1931 7.92171 12.8491 9.26572C11.5051 10.6097 10.75 12.4326 10.75 14.3333C10.75 16.234 11.5051 18.0569 12.8491 19.4009C14.1931 20.7449 16.016 21.5 17.9167 21.5C19.8174 21.5 21.6403 20.7449 22.9843 19.4009C24.3283 18.0569 25.0834 16.234 25.0834 14.3333C25.0834 12.4326 24.3283 10.6097 22.9843 9.26572C21.6403 7.92171 19.8174 7.16666 17.9167 7.16666ZM30.4584 21.5C30.3489 21.4979 30.2422 21.5345 30.157 21.6034C30.0718 21.6722 30.0136 21.7688 29.9925 21.8762L29.6521 24.2412C29.1146 24.4742 28.595 24.7608 28.1292 25.0833L25.9075 24.1875C25.7105 24.1875 25.4775 24.1875 25.3521 24.4204L23.5605 27.52C23.453 27.7171 23.4888 27.95 23.668 28.0933L25.5671 29.5625C25.4958 30.1576 25.4958 30.7591 25.5671 31.3542L23.668 32.8233C23.5874 32.8924 23.5329 32.9868 23.5134 33.0911C23.4938 33.1953 23.5104 33.3031 23.5605 33.3967L25.3521 36.4962C25.4596 36.7292 25.6925 36.7292 25.9075 36.7292L28.1292 35.8333C28.595 36.1558 29.0967 36.4604 29.6521 36.6754L29.9925 39.0404C30.0284 39.2554 30.2075 39.4167 30.4584 39.4167H34.0417C34.2388 39.4167 34.4359 39.2554 34.4717 39.0404L34.8121 36.6754C35.3496 36.4425 35.8334 36.1558 36.3171 35.8333L38.5209 36.7292C38.7538 36.7292 38.9867 36.7292 39.1121 36.4962L40.9038 33.3967C40.9538 33.3031 40.9704 33.1953 40.9509 33.0911C40.9313 32.9868 40.8768 32.8924 40.7963 32.8233L38.8792 31.3542C38.915 31.0496 38.9509 30.7629 38.9509 30.4583C38.9509 30.1537 38.933 29.8671 38.8792 29.5625L40.7784 28.0933C40.8589 28.0243 40.9134 27.9298 40.933 27.8256C40.9525 27.7213 40.9359 27.6135 40.8859 27.52L39.0942 24.4204C38.9867 24.1875 38.7538 24.1875 38.5209 24.1875L36.3171 25.0833C35.8334 24.7608 35.3496 24.4562 34.7942 24.2412L34.4538 21.8762C34.4425 21.7742 34.3945 21.6797 34.3186 21.6105C34.2428 21.5413 34.1444 21.502 34.0417 21.5H30.4584ZM17.9167 25.0833C9.99754 25.0833 3.58337 28.2904 3.58337 32.25V35.8333H20.9267C20.1271 34.1542 19.7109 32.3182 19.7084 30.4583C19.712 28.6583 20.1031 26.8801 20.855 25.2446C19.9055 25.1371 18.92 25.0833 17.9167 25.0833ZM32.25 27.7708C33.7371 27.7708 34.9375 28.9712 34.9375 30.4583C34.9375 31.9454 33.7371 33.1458 32.25 33.1458C30.745 33.1458 29.5625 31.9454 29.5625 30.4583C29.5625 28.9712 30.763 27.7708 32.25 27.7708Z" fill="#0F172A"/>
</svg>
