<svg width="20" height="20" viewBox="0 0 20 20" fill="none" xmlns="http://www.w3.org/2000/svg">
<path d="M6.66667 11.6667C6.43056 11.6667 6.23278 11.5867 6.07333 11.4267C5.91389 11.2667 5.83389 11.0689 5.83333 10.8333C5.83278 10.5978 5.91278 10.4 6.07333 10.24C6.23389 10.08 6.43167 9.99999 6.66667 9.99999C6.90167 9.99999 7.09972 10.08 7.26083 10.24C7.42195 10.4 7.50167 10.5978 7.5 10.8333C7.49833 11.0689 7.41833 11.2669 7.26 11.4275C7.10167 11.588 6.90389 11.6678 6.66667 11.6667ZM10 11.6667C9.76389 11.6667 9.56611 11.5867 9.40667 11.4267C9.24722 11.2667 9.16722 11.0689 9.16667 10.8333C9.16611 10.5978 9.24611 10.4 9.40667 10.24C9.56722 10.08 9.765 9.99999 10 9.99999C10.235 9.99999 10.4331 10.08 10.5942 10.24C10.7553 10.4 10.835 10.5978 10.8333 10.8333C10.8317 11.0689 10.7517 11.2669 10.5933 11.4275C10.435 11.588 10.2372 11.6678 10 11.6667ZM13.3333 11.6667C13.0972 11.6667 12.8994 11.5867 12.74 11.4267C12.5806 11.2667 12.5006 11.0689 12.5 10.8333C12.4994 10.5978 12.5794 10.4 12.74 10.24C12.9006 10.08 13.0983 9.99999 13.3333 9.99999C13.5683 9.99999 13.7664 10.08 13.9275 10.24C14.0886 10.4 14.1683 10.5978 14.1667 10.8333C14.165 11.0689 14.085 11.2669 13.9267 11.4275C13.7683 11.588 13.5706 11.6678 13.3333 11.6667ZM4.16667 18.3333C3.70833 18.3333 3.31611 18.1703 2.99 17.8442C2.66389 17.518 2.50056 17.1255 2.5 16.6667V4.99999C2.5 4.54166 2.66333 4.14943 2.99 3.82332C3.31667 3.49721 3.70889 3.33388 4.16667 3.33332H5V1.66666H6.66667V3.33332H13.3333V1.66666H15V3.33332H15.8333C16.2917 3.33332 16.6842 3.49666 17.0108 3.82332C17.3375 4.14999 17.5006 4.54221 17.5 4.99999V16.6667C17.5 17.125 17.3369 17.5175 17.0108 17.8442C16.6847 18.1708 16.2922 18.3339 15.8333 18.3333H4.16667ZM4.16667 16.6667H15.8333V8.33332H4.16667V16.6667Z" fill="white"/>
</svg>
