<svg width="43" height="43" viewBox="0 0 43 43" fill="none" xmlns="http://www.w3.org/2000/svg">
<path d="M33.5938 30.9062H33.5655C33.2784 30.9 33.0008 30.8019 32.7734 30.6263C32.5461 30.4507 32.381 30.2069 32.3024 29.9307L28.0441 15.0366L25.4439 21.9703C25.3482 22.2264 25.1767 22.4473 24.9522 22.6033C24.7277 22.7594 24.4609 22.8433 24.1875 22.8438H18.8125V20.1562H23.2563L26.961 10.2783C27.0602 10.0135 27.2404 9.78669 27.476 9.63023C27.7116 9.47378 27.9906 9.39564 28.2732 9.40696C28.5557 9.41827 28.8276 9.51846 29.0499 9.69326C29.2722 9.86805 29.4337 10.1085 29.5114 10.3805L33.6918 25.0166L36.3511 17.0441C36.4402 16.7767 36.6112 16.544 36.8398 16.379C37.0684 16.2141 37.3431 16.1252 37.625 16.125H43V18.8125H38.5925L34.8676 29.9871C34.7785 30.2546 34.6076 30.4873 34.379 30.6522C34.1504 30.8172 33.8757 30.906 33.5938 30.9062ZM20.1562 40.3125H17.4688V30.9062C17.4677 29.8374 17.0426 28.8127 16.2868 28.0569C15.5311 27.3011 14.5063 26.8761 13.4375 26.875H8.0625C6.99367 26.8761 5.96893 27.3011 5.21315 28.0569C4.45738 28.8127 4.03232 29.8374 4.03125 30.9062V40.3125H1.34375V30.9062C1.34588 29.125 2.05444 27.4173 3.31398 26.1577C4.57353 24.8982 6.28123 24.1896 8.0625 24.1875H13.4375C15.2188 24.1896 16.9265 24.8982 18.186 26.1577C19.4456 27.4173 20.1541 29.125 20.1562 30.9062V40.3125ZM10.75 10.75C11.5473 10.75 12.3267 10.9864 12.9896 11.4294C13.6526 11.8723 14.1693 12.5019 14.4744 13.2386C14.7795 13.9752 14.8593 14.7857 14.7038 15.5677C14.5482 16.3497 14.1643 17.068 13.6005 17.6318C13.0367 18.1956 12.3184 18.5795 11.5365 18.735C10.7545 18.8906 9.94392 18.8108 9.20731 18.5056C8.47069 18.2005 7.8411 17.6838 7.39814 17.0209C6.95518 16.358 6.71875 15.5786 6.71875 14.7812C6.71875 13.7121 7.14347 12.6867 7.89948 11.9307C8.65548 11.1747 9.68085 10.75 10.75 10.75ZM10.75 8.0625C9.42116 8.0625 8.12216 8.45655 7.01726 9.19481C5.91237 9.93308 5.05121 10.9824 4.54268 12.2101C4.03416 13.4378 3.9011 14.7887 4.16035 16.092C4.41959 17.3953 5.05949 18.5925 5.99913 19.5321C6.93876 20.4718 8.13593 21.1117 9.43924 21.3709C10.7425 21.6301 12.0935 21.4971 13.3212 20.9886C14.5488 20.48 15.5982 19.6189 16.3364 18.514C17.0747 17.4091 17.4688 16.1101 17.4688 14.7812C17.4688 12.9993 16.7609 11.2904 15.5009 10.0304C14.2409 8.77037 12.5319 8.0625 10.75 8.0625Z" fill="#EF4444"/>
</svg>
