<svg width="43" height="43" viewBox="0 0 43 43" fill="none" xmlns="http://www.w3.org/2000/svg">
<path d="M37.625 3.58334H26.875C26.3998 3.58334 25.9441 3.77211 25.6081 4.10811C25.2721 4.44411 25.0833 4.89983 25.0833 5.37501C25.0833 5.85019 25.2721 6.30591 25.6081 6.64191C25.9441 6.97791 26.3998 7.16668 26.875 7.16668H35.8333V16.125C35.8333 16.6002 36.0221 17.0559 36.3581 17.3919C36.6941 17.7279 37.1498 17.9167 37.625 17.9167C38.1002 17.9167 38.5559 17.7279 38.8919 17.3919C39.2279 17.0559 39.4166 16.6002 39.4166 16.125V5.37501C39.4166 4.89983 39.2279 4.44411 38.8919 4.10811C38.5559 3.77211 38.1002 3.58334 37.625 3.58334ZM37.625 25.0833C37.1498 25.0833 36.6941 25.2721 36.3581 25.6081C36.0221 25.9441 35.8333 26.3998 35.8333 26.875V35.8333H26.875C26.3998 35.8333 25.9441 36.0221 25.6081 36.3581C25.2721 36.6941 25.0833 37.1498 25.0833 37.625C25.0833 38.1002 25.2721 38.5559 25.6081 38.8919C25.9441 39.2279 26.3998 39.4167 26.875 39.4167H37.625C38.1002 39.4167 38.5559 39.2279 38.8919 38.8919C39.2279 38.5559 39.4166 38.1002 39.4166 37.625V26.875C39.4166 26.3998 39.2279 25.9441 38.8919 25.6081C38.5559 25.2721 38.1002 25.0833 37.625 25.0833ZM21.5 10.75C20.0744 10.75 18.7073 11.3163 17.6993 12.3243C16.6913 13.3323 16.125 14.6995 16.125 16.125V17.9167C15.1746 17.9167 14.2632 18.2942 13.5912 18.9662C12.9192 19.6382 12.5416 20.5497 12.5416 21.5V28.6667C12.5416 29.617 12.9192 30.5285 13.5912 31.2005C14.2632 31.8725 15.1746 32.25 16.125 32.25H26.875C27.8253 32.25 28.7368 31.8725 29.4088 31.2005C30.0808 30.5285 30.4583 29.617 30.4583 28.6667V21.5C30.4583 20.5497 30.0808 19.6382 29.4088 18.9662C28.7368 18.2942 27.8253 17.9167 26.875 17.9167V16.125C26.875 14.6995 26.3087 13.3323 25.3007 12.3243C24.2927 11.3163 22.9255 10.75 21.5 10.75ZM19.7083 16.125C19.7083 15.6498 19.8971 15.1941 20.2331 14.8581C20.5691 14.5221 21.0248 14.3333 21.5 14.3333C21.9752 14.3333 22.4309 14.5221 22.7669 14.8581C23.1029 15.1941 23.2916 15.6498 23.2916 16.125V17.9167H19.7083V16.125ZM26.875 28.6667H16.125V21.5H26.875V28.6667ZM5.37498 17.9167C5.85016 17.9167 6.30588 17.7279 6.64188 17.3919C6.97788 17.0559 7.16665 16.6002 7.16665 16.125V7.16668H16.125C16.6002 7.16668 17.0559 6.97791 17.3919 6.64191C17.7279 6.30591 17.9166 5.85019 17.9166 5.37501C17.9166 4.89983 17.7279 4.44411 17.3919 4.10811C17.0559 3.77211 16.6002 3.58334 16.125 3.58334H5.37498C4.8998 3.58334 4.44408 3.77211 4.10808 4.10811C3.77208 4.44411 3.58331 4.89983 3.58331 5.37501V16.125C3.58331 16.6002 3.77208 17.0559 4.10808 17.3919C4.44408 17.7279 4.8998 17.9167 5.37498 17.9167ZM16.125 35.8333H7.16665V26.875C7.16665 26.3998 6.97788 25.9441 6.64188 25.6081C6.30588 25.2721 5.85016 25.0833 5.37498 25.0833C4.8998 25.0833 4.44408 25.2721 4.10808 25.6081C3.77208 25.9441 3.58331 26.3998 3.58331 26.875V37.625C3.58331 38.1002 3.77208 38.5559 4.10808 38.8919C4.44408 39.2279 4.8998 39.4167 5.37498 39.4167H16.125C16.6002 39.4167 17.0559 39.2279 17.3919 38.8919C17.7279 38.5559 17.9166 38.1002 17.9166 37.625C17.9166 37.1498 17.7279 36.6941 17.3919 36.3581C17.0559 36.0221 16.6002 35.8333 16.125 35.8333Z" fill="#10B981"/>
</svg>
