<svg width="17" height="17" viewBox="0 0 17 17" fill="none" xmlns="http://www.w3.org/2000/svg">
<path d="M5.9394 8.71817H11.0606V8.00983H5.9394V8.71817ZM5.9394 10.6795H11.0606V9.97121H5.9394V10.6795ZM5.9394 12.6416H8.93565V11.9333H5.9394V12.6416ZM4.68565 14.875C4.35981 14.875 4.08781 14.7659 3.86965 14.5477C3.65148 14.3296 3.54216 14.0573 3.54169 13.731V3.26896C3.54169 2.94312 3.65101 2.67113 3.86965 2.45296C4.08828 2.23479 4.36052 2.12547 4.68635 2.125H10.2709L13.4584 5.3125V13.731C13.4584 14.0569 13.3493 14.3291 13.1311 14.5477C12.9129 14.7664 12.6405 14.8755 12.3137 14.875H4.68565ZM9.91669 5.66667V2.83333H4.68635C4.57727 2.83333 4.47716 2.87867 4.38602 2.96933C4.29488 3.06 4.24955 3.15987 4.25002 3.26896V13.731C4.25002 13.8397 4.29535 13.9395 4.38602 14.0307C4.47669 14.1218 4.57656 14.1671 4.68565 14.1667H12.3144C12.423 14.1667 12.5229 14.1213 12.614 14.0307C12.7052 13.94 12.7505 13.8399 12.75 13.7303V5.66667H9.91669Z" fill="black"/>
</svg>
