<svg width="28" height="28" viewBox="0 0 28 28" fill="none" xmlns="http://www.w3.org/2000/svg">
<path d="M11.6667 4.66669C10.429 4.66669 9.24201 5.15835 8.36684 6.03352C7.49167 6.90869 7 8.09568 7 9.33335C7 10.571 7.49167 11.758 8.36684 12.6332C9.24201 13.5084 10.429 14 11.6667 14C12.9043 14 14.0913 13.5084 14.9665 12.6332C15.8417 11.758 16.3333 10.571 16.3333 9.33335C16.3333 8.09568 15.8417 6.90869 14.9665 6.03352C14.0913 5.15835 12.9043 4.66669 11.6667 4.66669ZM19.8333 14C19.762 13.9987 19.6926 14.0225 19.6371 14.0673C19.5816 14.1121 19.5437 14.175 19.53 14.245L19.3083 15.785C18.9583 15.9367 18.62 16.1234 18.3167 16.3334L16.87 15.75C16.7417 15.75 16.59 15.75 16.5083 15.9017L15.3417 17.92C15.2717 18.0484 15.295 18.2 15.4117 18.2934L16.6483 19.25C16.6019 19.6375 16.6019 20.0292 16.6483 20.4167L15.4117 21.3734C15.3592 21.4183 15.3237 21.4798 15.311 21.5477C15.2983 21.6156 15.3091 21.6858 15.3417 21.7467L16.5083 23.765C16.5783 23.9167 16.73 23.9167 16.87 23.9167L18.3167 23.3334C18.62 23.5434 18.9467 23.7417 19.3083 23.8817L19.53 25.4217C19.5533 25.5617 19.67 25.6667 19.8333 25.6667H22.1667C22.295 25.6667 22.4233 25.5617 22.4467 25.4217L22.6683 23.8817C23.0183 23.73 23.3333 23.5434 23.6483 23.3334L25.0833 23.9167C25.235 23.9167 25.3867 23.9167 25.4683 23.765L26.635 21.7467C26.6676 21.6858 26.6784 21.6156 26.6657 21.5477C26.6529 21.4798 26.6174 21.4183 26.565 21.3734L25.3167 20.4167C25.34 20.2184 25.3633 20.0317 25.3633 19.8334C25.3633 19.635 25.3517 19.4484 25.3167 19.25L26.5533 18.2934C26.6058 18.2484 26.6413 18.1869 26.654 18.119C26.6667 18.0511 26.6559 17.9809 26.6233 17.92L25.4567 15.9017C25.3867 15.75 25.235 15.75 25.0833 15.75L23.6483 16.3334C23.3333 16.1234 23.0183 15.925 22.6567 15.785L22.435 14.245C22.4276 14.1786 22.3964 14.1171 22.347 14.072C22.2976 14.0269 22.2335 14.0013 22.1667 14H19.8333ZM11.6667 16.3334C6.51 16.3334 2.33334 18.4217 2.33334 21V23.3334H13.6267C13.106 22.2399 12.835 21.0444 12.8333 19.8334C12.8357 18.6612 13.0904 17.5033 13.58 16.4384C12.9617 16.3684 12.32 16.3334 11.6667 16.3334ZM21 18.0834C21.9683 18.0834 22.75 18.865 22.75 19.8334C22.75 20.8017 21.9683 21.5834 21 21.5834C20.02 21.5834 19.25 20.8017 19.25 19.8334C19.25 18.865 20.0317 18.0834 21 18.0834Z" fill="white"/>
</svg>
