<svg width="28" height="28" viewBox="0 0 28 28" fill="none" xmlns="http://www.w3.org/2000/svg">
<path fill-rule="evenodd" clip-rule="evenodd" d="M15.0593 1.84449C14.966 1.64212 14.8166 1.47073 14.6288 1.3506C14.4411 1.23047 14.2229 1.16663 14 1.16663C13.7771 1.16663 13.5589 1.23047 13.3712 1.3506C13.1834 1.47073 13.0341 1.64212 12.9407 1.84449L9.59234 9.10116L1.65784 10.0427C1.43647 10.0688 1.22721 10.1578 1.05485 10.2992C0.882482 10.4405 0.754219 10.6283 0.685239 10.8403C0.61626 11.0522 0.609451 11.2795 0.665618 11.4952C0.721786 11.711 0.838578 11.9061 1.00217 12.0575L6.87051 17.4825L5.31301 25.3225C5.26975 25.541 5.28997 25.7674 5.37128 25.9748C5.45259 26.1822 5.59159 26.362 5.77184 26.493C5.9521 26.6239 6.16607 26.7005 6.38847 26.7137C6.61087 26.7268 6.83239 26.6761 7.02684 26.5673L14 22.6637L20.9732 26.5673C21.1677 26.6765 21.3896 26.7276 21.6123 26.7146C21.835 26.7015 22.0494 26.6249 22.2299 26.4938C22.4104 26.3626 22.5495 26.1825 22.6307 25.9747C22.7119 25.7669 22.7319 25.5401 22.6882 25.3213L21.1307 17.4837L26.9978 12.0575C27.1614 11.9061 27.2782 11.711 27.3344 11.4952C27.3906 11.2795 27.3838 11.0522 27.3148 10.8403C27.2458 10.6283 27.1175 10.4405 26.9452 10.2992C26.7728 10.1578 26.5635 10.0688 26.3422 10.0427L18.4065 9.09999L15.0593 1.84449Z" fill="white"/>
</svg>
