<svg width="28" height="28" viewBox="0 0 28 28" fill="none" xmlns="http://www.w3.org/2000/svg">
<path d="M2.33334 21V17.5C2.33334 16.5278 2.67361 15.7014 3.35417 15.0208C4.03472 14.3403 4.86111 14 5.83334 14H7V6.99999C7 6.35832 7.22867 5.80921 7.686 5.35266C8.14334 4.8961 8.69245 4.66743 9.33334 4.66666H18.6667C19.3083 4.66666 19.8578 4.89532 20.3152 5.35266C20.7725 5.80999 21.0008 6.3591 21 6.99999V14H22.1667C23.1389 14 23.9653 14.3403 24.6458 15.0208C25.3264 15.7014 25.6667 16.5278 25.6667 17.5V21C25.6667 21.6417 25.4384 22.1912 24.9818 22.6485C24.5253 23.1058 23.9758 23.3341 23.3333 23.3333H4.66667C4.025 23.3333 3.47589 23.105 3.01934 22.6485C2.56278 22.1919 2.33411 21.6424 2.33334 21ZM9.33334 14H18.6667V6.99999H9.33334V14ZM21 19.8333C21.3306 19.8333 21.6078 19.7213 21.8318 19.4973C22.0558 19.2733 22.1674 18.9964 22.1667 18.6667C22.1659 18.3369 22.0539 18.06 21.8307 17.836C21.6074 17.612 21.3306 17.5 21 17.5C20.6694 17.5 20.3926 17.612 20.1693 17.836C19.9461 18.06 19.8341 18.3369 19.8333 18.6667C19.8326 18.9964 19.9446 19.2737 20.1693 19.4985C20.3941 19.7233 20.671 19.8349 21 19.8333Z" fill="white"/>
</svg>
