<svg width="28" height="28" viewBox="0 0 28 28" fill="none" xmlns="http://www.w3.org/2000/svg">
<path d="M3.5 8.96875V22.3125C3.5 23.1247 3.82266 23.9037 4.39699 24.478C4.97132 25.0523 5.75027 25.375 6.5625 25.375H21.4375C22.2497 25.375 23.0287 25.0523 23.603 24.478C24.1773 23.9037 24.5 23.1247 24.5 22.3125V8.96875C24.5 8.91073 24.477 8.85509 24.4359 8.81407C24.3949 8.77305 24.3393 8.75 24.2812 8.75H3.71875C3.66073 8.75 3.60509 8.77305 3.56407 8.81407C3.52305 8.85509 3.5 8.91073 3.5 8.96875ZM18.1016 17.261L14.6185 20.7435C14.4544 20.9075 14.232 20.9996 14 20.9996C13.768 20.9996 13.5456 20.9075 13.3815 20.7435L9.89844 17.261C9.56539 16.928 9.53477 16.386 9.85195 16.0371C9.93157 15.9494 10.0282 15.8788 10.1359 15.8295C10.2436 15.7802 10.3602 15.7533 10.4787 15.7505C10.5971 15.7476 10.7149 15.7688 10.8249 15.8128C10.9348 15.8568 11.0347 15.9227 11.1185 16.0065L13.125 18.0124V12.2746C13.125 11.8037 13.487 11.3996 13.9579 11.3761C14.0762 11.3704 14.1944 11.3888 14.3054 11.4301C14.4164 11.4715 14.5179 11.5349 14.6036 11.6166C14.6894 11.6983 14.7576 11.7966 14.8043 11.9055C14.8509 12.0143 14.875 12.1316 14.875 12.25V18.0124L16.8815 16.0065C16.9653 15.9227 17.0652 15.8568 17.1751 15.8128C17.2851 15.7688 17.4029 15.7476 17.5213 15.7505C17.6398 15.7533 17.7564 15.7802 17.8641 15.8295C17.9718 15.8788 18.0684 15.9494 18.148 16.0371C18.4652 16.3855 18.4346 16.928 18.1016 17.261Z" fill="white"/>
<path d="M24.5 2.625H3.5C2.5335 2.625 1.75 3.4085 1.75 4.375V5.25C1.75 6.2165 2.5335 7 3.5 7H24.5C25.4665 7 26.25 6.2165 26.25 5.25V4.375C26.25 3.4085 25.4665 2.625 24.5 2.625Z" fill="white"/>
</svg>
