<svg width="28" height="28" viewBox="0 0 28 28" fill="none" xmlns="http://www.w3.org/2000/svg">
<path d="M24.5 2.33334H17.5C16.8 2.33334 16.3333 2.80001 16.3333 3.50001C16.3333 4.20001 16.8 4.66668 17.5 4.66668H23.3333V10.5C23.3333 11.2 23.8 11.6667 24.5 11.6667C25.2 11.6667 25.6667 11.2 25.6667 10.5V3.50001C25.6667 2.80001 25.2 2.33334 24.5 2.33334ZM3.49999 11.6667C4.2 11.6667 4.66666 11.2 4.66666 10.5V4.66668H10.5C11.2 4.66668 11.6667 4.20001 11.6667 3.50001C11.6667 2.80001 11.2 2.33334 10.5 2.33334H3.49999C2.79999 2.33334 2.33333 2.80001 2.33333 3.50001V10.5C2.33333 11.2 2.79999 11.6667 3.49999 11.6667ZM10.5 23.3333H4.66666V17.5C4.66666 16.8 4.2 16.3333 3.49999 16.3333C2.79999 16.3333 2.33333 16.8 2.33333 17.5V24.5C2.33333 25.2 2.79999 25.6667 3.49999 25.6667H10.5C11.2 25.6667 11.6667 25.2 11.6667 24.5C11.6667 23.8 11.2 23.3333 10.5 23.3333ZM24.5 16.3333C23.8 16.3333 23.3333 16.8 23.3333 17.5V23.3333H17.5C16.8 23.3333 16.3333 23.8 16.3333 24.5C16.3333 25.2 16.8 25.6667 17.5 25.6667H24.5C25.2 25.6667 25.6667 25.2 25.6667 24.5V17.5C25.6667 16.8 25.2 16.3333 24.5 16.3333ZM14 7.00001C12.0167 7.00001 10.5 8.51668 10.5 10.5V11.6667C9.21666 11.6667 8.16666 12.7167 8.16666 14V18.6667C8.16666 19.95 9.21666 21 10.5 21H17.5C18.7833 21 19.8333 19.95 19.8333 18.6667V14C19.8333 12.7167 18.7833 11.6667 17.5 11.6667V10.5C17.5 8.51668 15.9833 7.00001 14 7.00001ZM15.1667 11.6667H12.8333V10.5C12.8333 9.80001 13.3 9.33334 14 9.33334C14.7 9.33334 15.1667 9.80001 15.1667 10.5V11.6667Z" fill="white"/>
</svg>
