<?xml version="1.0" encoding="UTF-8"?>
<svg version="1.1" xmlns="http://www.w3.org/2000/svg" width="610" height="349">
<path d="M0 0 C40.95225854 -0.06877064 81.9045095 -0.12158175 122.85681431 -0.15319599 C127.6992207 -0.1569478 132.54162698 -0.16083079 137.3840332 -0.16479492 C138.34800849 -0.16558185 139.31198378 -0.16636878 140.30517044 -0.16717956 C155.88314773 -0.18020883 171.46109157 -0.20384891 187.03904907 -0.23145839 C203.04124433 -0.25958176 219.04342216 -0.27619087 235.04564112 -0.28226548 C244.90797197 -0.28636759 254.77020825 -0.29929098 264.63250997 -0.3237494 C271.40917905 -0.3396923 278.18579974 -0.34438115 284.96248619 -0.34050413 C288.86354302 -0.33859579 292.76443542 -0.34137611 296.66546249 -0.35761642 C338.48273592 -0.52284577 375.54095746 7.93783689 407 37 C407.76521973 37.69947754 407.76521973 37.69947754 408.54589844 38.41308594 C427.89346129 56.28841826 440.93664269 79.28244921 447.75 104.625 C447.94883789 105.36403564 448.14767578 106.10307129 448.35253906 106.86450195 C451.15959434 117.89411066 452.36952301 128.8176073 452.3125 140.1875 C452.30758545 141.36296387 452.3026709 142.53842773 452.29760742 143.74951172 C452.16851731 153.42134029 451.26642664 162.59968322 449 172 C448.75056641 173.04559082 448.75056641 173.04559082 448.49609375 174.11230469 C442.71397852 197.46562565 431.32816649 218.38364824 415 236 C414.52304687 236.51546387 414.04609375 237.03092773 413.5546875 237.56201172 C389.50472386 263.22763134 355.23045333 280.02401583 319.78666985 281.18024468 C315.11036475 281.27387699 310.43479369 281.25760537 305.75782776 281.24050903 C303.95884275 281.24138304 302.159858 281.2431376 300.36087459 281.24568737 C295.45785016 281.25012656 290.55491429 281.24220481 285.65190113 281.23213124 C280.34945691 281.22344921 275.0470172 281.22642025 269.74456787 281.22793579 C260.57110485 281.22898165 251.39767039 281.2227364 242.22421455 281.21146011 C228.961137 281.1951674 215.69807318 281.18999325 202.4349867 281.18748413 C180.91359985 281.18311294 159.39222821 281.16981948 137.87084961 281.15087891 C116.97176184 281.13250519 96.07267821 281.11835599 75.17358398 281.10986328 C73.23944164 281.10907511 73.23944164 281.10907511 71.2662257 281.10827102 C64.79718239 281.10566084 58.32813905 281.10313345 51.85909569 281.10064721 C-1.76061338 281.07993264 -55.38030595 281.04472282 -109 281 C-107.16127593 277.76049058 -105.31346879 275.06388168 -102.67917347 272.43307781 C-102.01483856 271.76476081 -101.35050365 271.0964438 -100.66603738 270.40787476 C-99.93938668 269.68704974 -99.21273597 268.96622472 -98.46406555 268.22355652 C-97.68971088 267.447493 -96.91535621 266.67142948 -96.11753625 265.87184888 C-93.51969304 263.27070951 -90.91476249 260.67678633 -88.30981445 258.08276367 C-86.44689564 256.22040894 -84.58437702 254.35766192 -82.72235107 252.49441528 C-78.71175736 248.48277353 -74.69752186 244.47480613 -70.68078041 240.4693203 C-64.87327396 234.67807691 -59.07130651 228.88131024 -53.27067044 223.08318631 C-43.85907876 213.67597046 -34.44303063 204.27322841 -25.02416992 194.87329102 C-15.87534108 185.74282386 -6.7286179 176.61025577 2.4152832 167.47485352 C2.9790372 166.91162497 3.54279119 166.34839642 4.12362864 165.76810034 C6.9518406 162.94249848 9.78001124 160.11685525 12.60816133 157.29119146 C36.06570385 133.85437797 59.53048247 110.42482185 83 87 C81.54085307 83.95374727 80.08932526 81.84433809 77.68441772 79.45736694 C77.00012192 78.77321213 76.31582611 78.08905731 75.61079407 77.38417053 C74.8605748 76.64428391 74.11035553 75.90439728 73.33740234 75.14208984 C72.54707108 74.35467911 71.75673981 73.56726837 70.94245911 72.7559967 C69.22640701 71.04755436 67.50804833 69.34142649 65.78767014 67.63734055 C63.06920627 64.94436313 60.35700411 62.2452218 57.64639282 59.54434204 C51.89481099 53.81563228 46.13550216 48.09473634 40.375 42.375 C33.69465371 35.74188788 27.01761641 29.10551877 20.34886551 22.46074295 C17.66941553 19.79431359 14.98403889 17.1339498 12.2984314 14.47372437 C10.6665973 12.84915102 9.03504094 11.22429865 7.40380859 9.59912109 C6.64954086 8.855186 5.89527313 8.11125092 5.1181488 7.34477234 C4.43949265 6.66625717 3.76083649 5.987742 3.06161499 5.28866577 C2.46689077 4.69838278 1.87216656 4.10809978 1.25942039 3.49992943 C0 2 0 2 0 0 Z " fill="#0727CF" transform="translate(123,20)"/>
<path d="M0 0 C0.33 0.66 0.66 1.32 1 2 C1.598125 2.28875 2.19625 2.5775 2.8125 2.875 C5.41864396 4.21530261 7.07663215 5.80186531 9 8 C9 8.66 9 9.32 9 10 C9.66 10 10.32 10 11 10 C11 10.66 11 11.32 11 12 C11.928125 12.37125 11.928125 12.37125 12.875 12.75 C15.40358627 14.23740369 15.71839004 15.43678009 17 18 C18.3153341 18.70151152 19.65117592 19.36525925 21 20 C23.25 22 23.25 22 25 24 C25 24.66 25 25.32 25 26 C25.66 26 26.32 26 27 26 C27 26.66 27 27.32 27 28 C27.61875 28.2475 28.2375 28.495 28.875 28.75 C31.35068687 30.20628639 31.95125002 31.37812506 33 34 C33.66 34 34.32 34 35 34 C35 34.66 35 35.32 35 36 C35.53109375 36.20625 36.0621875 36.4125 36.609375 36.625 C40.00773436 38.57961192 42.51055928 41.22123717 45.25 44 C45.80429688 44.5465625 46.35859375 45.093125 46.9296875 45.65625 C51 49.7466133 51 49.7466133 51 52 C51.928125 52.37125 51.928125 52.37125 52.875 52.75 C55.35068687 54.20628639 55.95125002 55.37812506 57 58 C57.66 58 58.32 58 59 58 C59 58.66 59 59.32 59 60 C59.928125 60.37125 59.928125 60.37125 60.875 60.75 C63.40358627 62.23740369 63.71839004 63.43678009 65 66 C66.3153341 66.70151152 67.65117592 67.36525925 69 68 C71.25 70 71.25 70 73 72 C73 72.66 73 73.32 73 74 C73.66 74 74.32 74 75 74 C75 74.66 75 75.32 75 76 C75.59941406 76.26167969 76.19882812 76.52335937 76.81640625 76.79296875 C79.13061764 78.07220188 80.29659445 79.26250442 81.9375 81.3125 C86.07641345 86.32058528 90.5985251 90.59027934 95.64453125 94.66796875 C96.09183594 95.10753906 96.53914063 95.54710937 97 96 C97 96.66 97 97.32 97 98 C97.66 98 98.32 98 99 98 C102.51496016 101.22204682 105.54864862 104.76605547 108.5703125 108.44921875 C110.11481807 110.24681775 110.11481807 110.24681775 113 112 C113 112.66 113 113.32 113 114 C113.66 114 114.32 114 115 114 C118.47957253 117.18960816 121.48106369 120.70982507 124.53125 124.3046875 C127.44681734 127.66999661 130.54588855 130.63103445 134 133.4375 C137.07903881 136.06751232 139.45078401 138.8625034 142 142 C144.55612636 144.68720976 147.1199811 147.09748464 150 149.4375 C153.07903881 152.06751232 155.45078401 154.8625034 158 158 C159.65402498 159.67921318 161.32241268 161.34432601 163 163 C172 172 181 181 190 190 C190.9384375 190.9178125 191.876875 191.835625 192.84375 192.78125 C195 195 195 195 195 196 C66.96 196 -61.08 196 -193 196 C-190.84679005 192.41131675 -189.48757256 190.2378915 -186.68196678 187.43866444 C-185.68638947 186.43803902 -185.68638947 186.43803902 -184.67069948 185.41719896 C-183.94473089 184.69773817 -183.21876231 183.97827739 -182.47079468 183.23701477 C-181.69714557 182.46236238 -180.92349647 181.68770999 -180.12640345 180.88958329 C-177.53088762 178.29311427 -174.92828883 175.70386332 -172.32568359 173.11450195 C-170.46438179 171.25540114 -168.60352734 169.39585235 -166.74308777 167.53588867 C-162.73570293 163.53086429 -158.72473075 159.52946204 -154.71134567 155.53045082 C-148.90709963 149.74689462 -143.1088692 143.95733769 -137.31218107 138.16620757 C-127.90486094 128.76814013 -118.49344887 119.37418208 -109.07910156 109.9831543 C-108.51583419 109.42128023 -107.95256681 108.85940617 -107.37223072 108.28050562 C-106.80824209 107.71791252 -106.24425347 107.15531942 -105.66317427 106.57567805 C-97.66112375 98.59340915 -89.66005135 90.61016153 -81.66015625 82.62573242 C-80.81537336 81.78258581 -80.81537336 81.78258581 -79.95352416 80.92240594 C-70.5737619 71.56064697 -61.19601608 62.19686981 -51.81930602 52.83205384 C-46.033415 47.05376406 -40.24545215 41.2775634 -34.45481767 35.50402715 C-30.02401326 31.08612552 -25.59561837 26.66581632 -21.16810036 22.24462128 C-19.34721319 20.42721781 -17.52545437 18.61068722 -15.70278358 16.79507256 C-13.22465557 14.32633103 -10.7495705 11.85457906 -8.27523804 9.3820343 C-7.54480801 8.65588136 -6.81437798 7.92972841 -6.06181371 7.18157083 C-5.403311 6.52231046 -4.74480828 5.86305009 -4.06635094 5.18381214 C-3.49421974 4.61314481 -2.92208853 4.04247747 -2.33262002 3.45451719 C-0.89527833 2.0192851 -0.89527833 2.0192851 0 0 Z " fill="#3B81F5" transform="translate(207,105)"/>
<path d="M0 0 C56.1 0 112.2 0 170 0 C168.21398196 3.57203608 166.93313183 5.43350965 164 8 C163.34 8 162.68 8 162 8 C162 8.66 162 9.32 162 10 C161.34 10 160.68 10 160 10 C160 10.66 160 11.32 160 12 C158.125 14.125 158.125 14.125 156 16 C155.34 16 154.68 16 154 16 C154 16.66 154 17.32 154 18 C153.34 18 152.68 18 152 18 C152 18.66 152 19.32 152 20 C150.125 22.125 150.125 22.125 148 24 C147.34 24 146.68 24 146 24 C146 24.66 146 25.32 146 26 C145.34 26 144.68 26 144 26 C144 26.66 144 27.32 144 28 C142.125 30.125 142.125 30.125 140 32 C139.34 32 138.68 32 138 32 C138 32.66 138 33.32 138 34 C137.34 34 136.68 34 136 34 C136 34.66 136 35.32 136 36 C134.125 38.125 134.125 38.125 132 40 C131.34 40 130.68 40 130 40 C130 40.66 130 41.32 130 42 C129.34 42 128.68 42 128 42 C128 42.66 128 43.32 128 44 C126.125 46.125 126.125 46.125 124 48 C123.34 48 122.68 48 122 48 C122 48.66 122 49.32 122 50 C121.34 50 120.68 50 120 50 C120 50.66 120 51.32 120 52 C118.125 54.125 118.125 54.125 116 56 C115.34 56 114.68 56 114 56 C114 56.66 114 57.32 114 58 C113.34 58 112.68 58 112 58 C112 58.66 112 59.32 112 60 C110.71484375 61.2265625 110.71484375 61.2265625 108.9375 62.625 C105.44355264 65.51191812 102.55843977 68.67610954 99.62109375 72.1171875 C96.61335023 75.61051852 93.3814697 78.71982418 89.8125 81.625 C86.88119654 83.87722335 86.88119654 83.87722335 85 87 C85 86.34 85 85.68 85 85 C84.41334438 84.73810631 83.82668877 84.47621262 83.22225571 84.20638275 C80.87554888 82.93243996 79.3293693 81.58094162 77.44390869 79.69787598 C76.75686356 79.01647049 76.06981842 78.335065 75.36195374 77.63301086 C74.24741066 76.5123951 74.24741066 76.5123951 73.11035156 75.36914062 C72.31972824 74.58202194 71.52910492 73.79490326 70.71452332 72.9839325 C68.10150117 70.37971635 65.49586621 67.76824846 62.890625 65.15625 C61.08059483 63.34756653 59.27026781 61.53918008 57.45965576 59.7310791 C53.66694214 55.94131499 49.87777817 52.14804994 46.09130859 48.35205078 C41.70974829 43.95959092 37.32100817 39.5744037 32.92849946 35.19289446 C28.70478719 30.97933701 24.48669451 26.76018891 20.27098846 22.53862 C18.47502411 20.74131741 16.67756174 18.94551049 14.8786087 17.15119934 C12.37157068 14.649213 9.87098762 12.14095285 7.37207031 9.63085938 C6.62094467 8.8837822 5.86981903 8.13670502 5.09593201 7.36698914 C4.08228325 6.34488091 4.08228325 6.34488091 3.04815674 5.30212402 C2.45603016 4.70924339 1.86390358 4.11636276 1.25383377 3.50551605 C0 2 0 2 0 0 Z " fill="#1D4ED7" transform="translate(123,20)"/>
<path d="M0 0 C0.33 0 0.66 0 1 0 C1 1.65 1 3.3 1 5 C126.73 5 252.46 5 382 5 C382.33 5.66 382.66 6.32 383 7 C254.96 7 126.92 7 -5 7 C-2 2 -2 2 0 0 Z " fill="#5381C8" transform="translate(19,294)"/>
<path d="M0 0 C56.1 0 112.2 0 170 0 C170 0.33 170 0.66 170 1 C115.22 1 60.44 1 4 1 C8.48099396 6.12113595 11.12864871 9.12790026 16 13 C16.99828909 14.12921224 17.97603779 15.27677101 18.9375 16.4375 C20.87925878 18.77654958 22.6315785 20.52631542 25 22.5 C27.9049741 24.92081175 30.10439698 27.41781302 32.5 30.3125 C34.14332242 32.24555317 34.14332242 32.24555317 37 34.5 C39.9049741 36.92081175 42.10439698 39.41781302 44.5 42.3125 C46.14332242 44.24555317 46.14332242 44.24555317 49 46.5 C51.9049741 48.92081175 54.10439698 51.41781302 56.5 54.3125 C58.14332242 56.24555317 58.14332242 56.24555317 61 58.5 C63.9049741 60.92081175 66.10439698 63.41781302 68.5 66.3125 C70.14332242 68.24555317 70.14332242 68.24555317 73 70.5 C75.91516549 72.92930457 78.208822 75.43333147 80.60546875 78.3515625 C81.99397765 79.99288115 83.46017734 81.50105759 85 83 C84.34 83.66 83.68 84.32 83 85 C72.17208725 74.21875407 61.34986113 63.43182384 50.53443146 52.6380558 C45.51280142 47.6267498 40.48930813 42.61733831 35.46142578 37.61230469 C30.61345343 32.78635305 25.77068075 27.95523432 20.93110657 23.12086105 C19.07958562 21.27304868 17.22629921 19.42700364 15.3712616 17.58272171 C12.78258966 15.00847006 10.20014522 12.42812713 7.61914062 9.84619141 C6.45497368 8.69281029 6.45497368 8.69281029 5.26728821 7.51612854 C4.56891342 6.81500443 3.87053864 6.11388031 3.15100098 5.39151001 C2.53893044 4.78128305 1.92685989 4.1710561 1.29624176 3.54233742 C0 2 0 2 0 0 Z " fill="#385BBA" transform="translate(123,20)"/>
<path d="M0 0 C19.75093823 -0.07037052 39.50185068 -0.1231246 59.25288868 -0.15543652 C68.42555264 -0.17084446 77.59813829 -0.19181645 86.77075195 -0.22631836 C94.77424973 -0.25640816 102.77769073 -0.27561901 110.7812435 -0.28226548 C115.01121953 -0.28614491 119.24103327 -0.29513209 123.4709568 -0.31719017 C161.52357172 -0.50777328 161.52357172 -0.50777328 180 5 C177.34699082 6.73465985 176.15493427 7.01580962 172.9375 6.6875 C170 6 170 6 167 5 C164.19788044 4.20438483 161.61550128 3.83997655 158.70703125 3.71875 C157.91232422 3.68136719 157.11761719 3.64398437 156.29882812 3.60546875 C154.62957827 3.53466004 152.960307 3.46435444 151.29101562 3.39453125 C145.10197685 3.10197685 145.10197685 3.10197685 144 2 C142.14007847 1.89126816 140.27601123 1.85311214 138.41294861 1.84178162 C136.59342934 1.82709839 136.59342934 1.82709839 134.7371521 1.81211853 C133.38067666 1.80621358 132.02420081 1.80040319 130.66772461 1.79467773 C129.248873 1.78510451 127.83002427 1.77509477 126.41117859 1.76467896 C122.54774306 1.73756355 118.68429522 1.71659005 114.82081676 1.69667697 C110.78754971 1.67485819 106.75432086 1.64744947 102.72108459 1.62062073 C95.07837302 1.5706381 87.4356403 1.52572002 79.79288727 1.48259836 C71.09409269 1.43327348 62.39533642 1.3783378 53.69657886 1.32291877 C35.79775478 1.20901326 17.89889459 1.10219298 0 1 C0 0.67 0 0.34 0 0 Z " fill="#142EA1" transform="translate(293,20)"/>
<path d="M0 0 C0.33 0.66 0.66 1.32 1 2 C0.3507041 3.34187818 -0.31731862 4.67479497 -1 6 C-1 6.99 -1 7.98 -1 9 C-2.32 9.33 -3.64 9.66 -5 10 C-5 10.66 -5 11.32 -5 12 C-6.98 12.99 -6.98 12.99 -9 14 C-9 15.98 -9 17.96 -9 20 C-10.32 19.67 -11.64 19.34 -13 19 C-13.391875 19.804375 -13.78375 20.60875 -14.1875 21.4375 C-16 24 -16 24 -18.6875 24.8125 C-19.450625 24.874375 -20.21375 24.93625 -21 25 C-21 25.99 -21 26.98 -21 28 C-23.31 28.33 -25.62 28.66 -28 29 C-22.61359076 22.44622903 -16.64114873 16.52753365 -10.625 10.5625 C-9.59221405 9.53474017 -8.55966009 8.50674715 -7.52734375 7.47851562 C-5.02089713 4.98298402 -2.5113292 2.49061918 0 0 Z " fill="#4485E4" transform="translate(181,132)"/>
<path d="M0 0 C0.66 1.32 1.32 2.64 2 4 C-0.3125 6.5 -0.3125 6.5 -3 9 C-3.99 9 -4.98 9 -6 9 C-6 9.66 -6 10.32 -6 11 C-7 12 -8 13 -9 14 C-9.433125 15.0209375 -9.433125 15.0209375 -9.875 16.0625 C-11.41329016 18.71177751 -13.15111923 19.10035344 -16 20 C-16 20.99 -16 21.98 -16 23 C-16.99 23.33 -17.98 23.66 -19 24 C-19.474375 24.53625 -19.94875 25.0725 -20.4375 25.625 C-21.2109375 26.305625 -21.2109375 26.305625 -22 27 C-23.32 26.67 -24.64 26.34 -26 26 C-17.42 17.42 -8.84 8.84 0 0 Z " fill="#508ADC" transform="translate(128,185)"/>
<path d="M0 0 C1.93166016 0.01740234 1.93166016 0.01740234 3.90234375 0.03515625 C5.19269531 0.04417969 6.48304688 0.05320312 7.8125 0.0625 C8.81152344 0.07410156 9.81054688 0.08570313 10.83984375 0.09765625 C-0.76184465 6.81228982 -18.74167154 4.33068117 -31.59765625 4.22265625 C-33.69726133 4.2126002 -35.7968711 4.20347902 -37.89648438 4.1953125 C-42.98449326 4.17352121 -48.07227137 4.13913791 -53.16015625 4.09765625 C-53.16015625 3.76765625 -53.16015625 3.43765625 -53.16015625 3.09765625 C-52.54850113 3.07482071 -51.93684601 3.05198517 -51.30665588 3.02845764 C-44.96421851 2.79073543 -38.62206184 2.54637916 -32.2800293 2.2980957 C-29.91030364 2.20620805 -27.54051083 2.11603604 -25.1706543 2.02758789 C-21.77243408 1.90046534 -18.37449986 1.7672581 -14.9765625 1.6328125 C-13.9099086 1.59422623 -12.8432547 1.55563995 -11.74427795 1.5158844 C-10.76333664 1.47591843 -9.78239532 1.43595245 -8.77172852 1.39477539 C-7.90346939 1.36146622 -7.03521027 1.32815704 -6.14064026 1.2938385 C-3.21553952 1.00408466 -3.37519992 0.1043016 0 0 Z " fill="#263A99" transform="translate(455.16015625,296.90234375)"/>
<path d="M0 0 C0.33 0.66 0.66 1.32 1 2 C0.67 2.78375 0.34 3.5675 0 4.375 C-1.07720707 7.20266855 -1.0264725 8.22852426 0 11 C-1.65614657 11.38218767 -3.32457024 11.71395102 -5 12 C-5.33 11.67 -5.66 11.34 -6 11 C-6.78375 11.66 -7.5675 12.32 -8.375 13 C-11 15 -11 15 -13 15 C-13.98120464 18.05263664 -13.98120464 19.94736336 -13 23 C-13.66 23 -14.32 23 -15 23 C-15.33 22.34 -15.66 21.68 -16 21 C-17.32 20.67 -18.64 20.34 -20 20 C-13.4 13.4 -6.8 6.8 0 0 Z " fill="#387CE8" transform="translate(40,273)"/>
<path d="M0 0 C2.58145859 2.58145859 3.56555514 3.79534594 4.97265625 6.94921875 C5.31490234 7.71556641 5.65714844 8.48191406 6.00976562 9.27148438 C6.35716797 10.06876953 6.70457031 10.86605469 7.0625 11.6875 C7.41376953 12.46544922 7.76503906 13.24339844 8.12695312 14.04492188 C10.30109309 18.97269846 11.83977452 23.73991037 13 29 C12.01 29 11.02 29 10 29 C9.75092896 28.19780029 9.75092896 28.19780029 9.49682617 27.37939453 C8.73808789 24.95764298 7.96302915 22.54142417 7.1875 20.125 C6.92646484 19.28324219 6.66542969 18.44148438 6.39648438 17.57421875 C6.13544922 16.76855469 5.87441406 15.96289062 5.60546875 15.1328125 C5.36981201 14.38918457 5.13415527 13.64555664 4.89135742 12.87939453 C4.03094054 10.6493476 4.03094054 10.6493476 1 9 C0.01 9.495 0.01 9.495 -1 10 C-0.67 6.7 -0.34 3.4 0 0 Z " fill="#3E54B5" transform="translate(556,91)"/>
<path d="M0 0 C-3.77561896 2.12837267 -5.7569378 1.99305711 -10 1 C-10.99 0.67 -11.98 0.34 -13 0 C-15.80730801 -0.79478422 -18.41580738 -1.17079037 -21.328125 -1.31640625 C-22.52695312 -1.37924805 -22.52695312 -1.37924805 -23.75 -1.44335938 C-24.9875 -1.50233398 -24.9875 -1.50233398 -26.25 -1.5625 C-27.09046875 -1.60568359 -27.9309375 -1.64886719 -28.796875 -1.69335938 C-30.86440671 -1.79908543 -32.93218281 -1.90001295 -35 -2 C-35.33 -2.66 -35.66 -3.32 -36 -4 C-25.07140212 -7.64286596 -10.74739577 -2.85976496 0 0 Z " fill="#273CA1" transform="translate(473,25)"/>
<path d="M0 0 C6.73725377 6.31617541 14.36931957 14.40937363 18 23 C17.67 23.99 17.34 24.98 17 26 C12.28069636 21.8252314 8.29050455 16.28582311 5.984375 10.4140625 C5.02722897 8.06677581 4.07119607 6.66244484 2.375 4.8125 C0 2 0 2 0 0 Z " fill="#213BB0" transform="translate(538,66)"/>
<path d="M0 0 C0 2.92828926 -0.13970066 5.20402714 -1 8 C-1.639375 8.309375 -2.27875 8.61875 -2.9375 8.9375 C-5.35506453 9.89786814 -5.35506453 9.89786814 -6.25 13.125 C-6.4975 14.07375 -6.745 15.0225 -7 16 C-7.66 15.67 -8.32 15.34 -9 15 C-9.66 15.165 -10.32 15.33 -11 15.5 C-13 16 -13 16 -15 15 C-10.05 10.05 -5.1 5.1 0 0 Z " fill="#4E8ADF" transform="translate(68,245)"/>
<path d="M0 0 C1.65 0 3.3 0 5 0 C0.87873329 4.63851071 -3.68594436 7.33403758 -9.125 10.25 C-9.93582031 10.69601562 -10.74664062 11.14203125 -11.58203125 11.6015625 C-14.71039214 13.30794117 -17.61172627 14.87057542 -21 16 C-20.796875 14.1328125 -20.796875 14.1328125 -20 12 C-17.890625 10.8046875 -17.890625 10.8046875 -15.25 9.875 C-14.38890625 9.56304687 -13.5278125 9.25109375 -12.640625 8.9296875 C-11.33351563 8.46949219 -11.33351563 8.46949219 -10 8 C-8.33048613 7.3404959 -6.66292801 6.67593836 -5 6 C-5 5.01 -5 4.02 -5 3 C-3.35 3 -1.7 3 0 3 C0 2.01 0 1.02 0 0 Z " fill="#293FA9" transform="translate(513,273)"/>
<path d="M0 0 C6.7040199 2.96523957 17.59973595 8.1994719 21 15 C19.35 15 17.7 15 16 15 C15.67 14.01 15.34 13.02 15 12 C14.34 11.835 13.68 11.67 13 11.5 C12.34 11.335 11.68 11.17 11 11 C10.67 10.01 10.34 9.02 10 8 C7.89415562 7.19436362 7.89415562 7.19436362 5.4375 6.8125 C4.61121094 6.65394531 3.78492188 6.49539062 2.93359375 6.33203125 C2.29550781 6.22246094 1.65742188 6.11289062 1 6 C0.67 4.02 0.34 2.04 0 0 Z " fill="#1F36B0" transform="translate(503,38)"/>
<path d="M0 0 C0.66 0.66 1.32 1.32 2 2 C-6.261959 16.78132118 -6.261959 16.78132118 -11 23 C-11.66 21.68 -12.32 20.36 -13 19 C-12.01 19 -11.02 19 -10 19 C-8.53347983 16.11980724 -7.17952126 13.20691485 -5.875 10.25 C-5.52179687 9.45078125 -5.16859375 8.6515625 -4.8046875 7.828125 C-4.53914062 7.22484375 -4.27359375 6.6215625 -4 6 C-3.34 6 -2.68 6 -2 6 C-2 4.68 -2 3.36 -2 2 C-1.34 2 -0.68 2 0 2 C0 1.34 0 0.68 0 0 Z " fill="#354CB1" transform="translate(559,221)"/>
<path d="M0 0 C6.71539173 1.29975324 12.72019113 3.29928888 19 6 C15.69130545 7.08506842 13.4384779 6.88446498 10.0625 6.125 C9.22847656 5.94195313 8.39445312 5.75890625 7.53515625 5.5703125 C6.28025391 5.28800781 6.28025391 5.28800781 5 5 C3.33413792 4.6626687 1.66769137 4.32816825 0 4 C0 2.68 0 1.36 0 0 Z " fill="#2A3FB1" transform="translate(474,26)"/>
<path d="M0 0 C3.49731205 6.53716978 4.53883023 12.7674979 3 20 C2.34 18.68 1.68 17.36 1 16 C0.34 16.66 -0.32 17.32 -1 18 C-0.9278125 17.3709375 -0.855625 16.741875 -0.78125 16.09375 C-0.19534084 10.69036555 0.10062919 5.43397617 0 0 Z " fill="#263FB8" transform="translate(569,121)"/>
<path d="M0 0 C1 2 1 2 0.3125 4.4375 C-1.11704148 7.22850955 -2.47544025 8.23280818 -5 10 C-5 10.66 -5 11.32 -5 12 C-7.31 12.33 -9.62 12.66 -12 13 C-8.19524578 8.43969176 -4.25030379 4.14910608 0 0 Z " fill="#598FDC" transform="translate(197,116)"/>
<path d="M0 0 C1.125 1.6875 1.125 1.6875 2 4 C1.4375 6.625 1.4375 6.625 0 9 C-2.6627865 10.54161324 -4.12642031 11.18606932 -7.1640625 10.5390625 C-7.76992187 10.36117187 -8.37578125 10.18328125 -9 10 C-8.43410156 9.44570312 -7.86820313 8.89140625 -7.28515625 8.3203125 C-6.55167969 7.59585938 -5.81820312 6.87140625 -5.0625 6.125 C-4.33160156 5.40570313 -3.60070312 4.68640625 -2.84765625 3.9453125 C-0.94332001 2.12972808 -0.94332001 2.12972808 0 0 Z " fill="#4586E7" transform="translate(207,105)"/>
<path d="M0 0 C0.33 0.66 0.66 1.32 1 2 C0.3125 4.0625 0.3125 4.0625 -1 6 C-3.125 6.75 -3.125 6.75 -5 7 C-5.98120464 10.05263664 -5.98120464 11.94736336 -5 15 C-5.66 15 -6.32 15 -7 15 C-7.33 14.34 -7.66 13.68 -8 13 C-9.32 12.67 -10.64 12.34 -12 12 C-8.04 8.04 -4.08 4.08 0 0 Z " fill="#4D8DDE" transform="translate(32,281)"/>
<path d="M0 0 C0.66 0 1.32 0 2 0 C0.83760783 7.19315625 -0.74503612 14.06974434 -3 21 C-3.66 21 -4.32 21 -5 21 C-4.54655971 18.6239729 -4.08740741 16.24928419 -3.625 13.875 C-3.49867188 13.20984375 -3.37234375 12.5446875 -3.2421875 11.859375 C-2.4425726 7.781339 -1.40130515 3.91146915 0 0 Z " fill="#3449B2" transform="translate(571,185)"/>
<path d="M0 0 C2.97 1.32 5.94 2.64 9 4 C6 7 6 7 3.95703125 7.29296875 C1.97135417 7.1953125 -0.01432292 7.09765625 -2 7 C-1.67 6.21625 -1.34 5.4325 -1 4.625 C0.11866511 2.15667503 0.11866511 2.15667503 0 0 Z " fill="#1E3AC2" transform="translate(494,33)"/>
<path d="M0 0 C1.23556641 0.01740234 1.23556641 0.01740234 2.49609375 0.03515625 C3.32238281 0.04417969 4.14867187 0.05320312 5 0.0625 C5.63808594 0.07410156 6.27617187 0.08570313 6.93359375 0.09765625 C3.53539096 2.36312477 0.09417097 3.48667253 -3.75390625 4.72265625 C-4.45580078 4.95210938 -5.15769531 5.1815625 -5.88085938 5.41796875 C-7.60804687 5.98194834 -9.33705407 6.54034964 -11.06640625 7.09765625 C-11.39640625 6.43765625 -11.72640625 5.77765625 -12.06640625 5.09765625 C-11.42832031 4.82050781 -10.79023438 4.54335938 -10.1328125 4.2578125 C-9.30652344 3.89558594 -8.48023438 3.53335937 -7.62890625 3.16015625 C-6.80519531 2.80050781 -5.98148437 2.44085938 -5.1328125 2.0703125 C-0.81640625 0.03858253 -0.81640625 0.03858253 0 0 Z " fill="#2841AC" transform="translate(484.06640625,288.90234375)"/>
<path d="M0 0 C0.33 1.32 0.66 2.64 1 4 C0.01 4.33 -0.98 4.66 -2 5 C-2 5.66 -2 6.32 -2 7 C-4.92524993 9.6814791 -7.13673711 11.19928098 -11 12 C-7.49102731 7.81576108 -3.91939465 3.80411834 0 0 Z " fill="#5C93D6" transform="translate(52,261)"/>
<path d="M0 0 C0.99 0 1.98 0 3 0 C1.61811547 3.21043882 0.07578097 5.04936365 -2.625 7.25 C-3.57246094 8.03117187 -3.57246094 8.03117187 -4.5390625 8.828125 C-5.02117188 9.21484375 -5.50328125 9.6015625 -6 10 C-6.578125 8.10546875 -6.578125 8.10546875 -7 6 C-5.15840327 3.51384442 -3.99529289 2.99843096 -1 2 C-0.67 1.34 -0.34 0.68 0 0 Z " fill="#1D37B3" transform="translate(539,250)"/>
<path d="M0 0 C0.33 0.66 0.66 1.32 1 2 C0.67 2.66 0.34 3.32 0 4 C-0.66 4 -1.32 4 -2 4 C-2 4.66 -2 5.32 -2 6 C-3.875 8.125 -3.875 8.125 -6 10 C-6.66 10 -7.32 10 -8 10 C-8 10.66 -8 11.32 -8 12 C-8.66 12 -9.32 12 -10 12 C-10 12.66 -10 13.32 -10 14 C-10.99 14.33 -11.98 14.66 -13 15 C-10.13691369 8.55805581 -5.34589311 4.36981712 0 0 Z " fill="#214BE0" transform="translate(253,58)"/>
<path d="M0 0 C5.8845041 3.94291645 10.05708355 8.1154959 14 14 C13.01 14.495 13.01 14.495 12 15 C11.236875 14.21625 10.47375 13.4325 9.6875 12.625 C7.09108195 9.92742283 7.09108195 9.92742283 4 8 C2.22470656 5.33705985 1.01431642 3.04294926 0 0 Z " fill="#427DFC" transform="translate(336,235)"/>
<path d="M0 0 C3.51716303 3.51716303 3.54676163 5.19567333 4 10 C2.33333333 10 0.66666667 10 -1 10 C-0.67 6.7 -0.34 3.4 0 0 Z " fill="#213ABA" transform="translate(556,91)"/>
<path d="M0 0 C-2 3 -2 3 -4.1640625 3.51171875 C-4.97617187 3.56972656 -5.78828125 3.62773437 -6.625 3.6875 C-7.85089844 3.78611328 -7.85089844 3.78611328 -9.1015625 3.88671875 C-9.72804688 3.92410156 -10.35453125 3.96148437 -11 4 C-8.97717134 -2.06848598 -5.42392029 -1.02338119 0 0 Z " fill="#122EB7" transform="translate(475,293)"/>
<path d="M0 0 C0.66 1.32 1.32 2.64 2 4 C0.35 5.65 -1.3 7.3 -3 9 C-4.32 8.34 -5.64 7.68 -7 7 C-4.69 4.69 -2.38 2.38 0 0 Z " fill="#528FE2" transform="translate(128,185)"/>
<path d="M0 0 C2.625 0.375 2.625 0.375 5 1 C3.33333333 2.66666667 1.66666667 4.33333333 0 6 C-0.721875 6.763125 -1.44375 7.52625 -2.1875 8.3125 C-4 10 -4 10 -6 10 C-6 9.34 -6 8.68 -6 8 C-5.34 7.525625 -4.68 7.05125 -4 6.5625 C-3.34 6.046875 -2.68 5.53125 -2 5 C-2 4.01 -2 3.02 -2 2 C-1.34 1.34 -0.68 0.68 0 0 Z " fill="#2B40B6" transform="translate(524,263)"/>
<path d="M0 0 C1 2 1 2 0.875 4.5 C0 7 0 7 -2.5625 8.3125 C-3.366875 8.539375 -4.17125 8.76625 -5 9 C-5.66 8.34 -6.32 7.68 -7 7 C-4.69 4.69 -2.38 2.38 0 0 Z " fill="#5590E1" transform="translate(96,217)"/>
<path d="M0 0 C0.66 0 1.32 0 2 0 C0.45730076 4.72065967 -1.07794619 9.41664092 -3 14 C-3.96661363 10.87819599 -3.98988909 8.47916205 -3.5625 5.25 C-3.46066406 4.45078125 -3.35882812 3.6515625 -3.25390625 2.828125 C-3.17011719 2.22484375 -3.08632813 1.6215625 -3 1 C-2.01 1.33 -1.02 1.66 0 2 C0 1.34 0 0.68 0 0 Z " fill="#3045B5" transform="translate(565,207)"/>
<path d="M0 0 C0 2.8996083 -0.21438138 5.21462489 -1 8 C-1.99 8.66 -2.98 9.32 -4 10 C-4 9.34 -4 8.68 -4 8 C-4.99 7.67 -5.98 7.34 -7 7 C-4.69 4.69 -2.38 2.38 0 0 Z " fill="#5A94DF" transform="translate(68,245)"/>
<path d="M0 0 C0.33 0.66 0.66 1.32 1 2 C0.3507041 3.34187818 -0.31731862 4.67479497 -1 6 C-1 6.99 -1 7.98 -1 9 C-2.32 8.34 -3.64 7.68 -5 7 C-3.47793991 4.37098712 -2.15634036 2.15634036 0 0 Z " fill="#4A88DF" transform="translate(181,132)"/>
<path d="M0 0 C0 2.33333333 0 4.66666667 0 7 C-2.31 7.33 -4.62 7.66 -7 8 C-6.02133662 6.85373678 -5.04205413 5.70800212 -4.0625 4.5625 C-3.51722656 3.92441406 -2.97195312 3.28632813 -2.41015625 2.62890625 C-1.63204305 1.73008851 -0.84063472 0.84063472 0 0 Z " fill="#5C94DE" transform="translate(80,233)"/>
<path d="M0 0 C-5.445 2.475 -5.445 2.475 -11 5 C-10.67 3.68 -10.34 2.36 -10 1 C-5.95868794 -0.88594563 -4.41169694 -1.10292424 0 0 Z " fill="#3449B3" transform="translate(503,284)"/>
<path d="M0 0 C3.21043882 1.38188453 5.04936365 2.92421903 7.25 5.625 C8.03117187 6.57246094 8.03117187 6.57246094 8.828125 7.5390625 C9.40820312 8.26222656 9.40820312 8.26222656 10 9 C4.31298905 7.51643192 4.31298905 7.51643192 2.75 4.9375 C2.37875 3.9784375 2.37875 3.9784375 2 3 C1.34 2.67 0.68 2.34 0 2 C0 1.34 0 0.68 0 0 Z " fill="#4480FD" transform="translate(368,268)"/>
<path d="M0 0 C0.33 0.66 0.66 1.32 1 2 C-0.98 4.97 -0.98 4.97 -3 8 C-4.32 7.67 -5.64 7.34 -7 7 C-4.69 4.69 -2.38 2.38 0 0 Z " fill="#5C90DC" transform="translate(168,145)"/>
<path d="M0 0 C1.33332095 2.6666419 0.67102033 4.16680303 0 7 C-2.31 7.33 -4.62 7.66 -7 8 C-6.02133662 6.85373678 -5.04205413 5.70800212 -4.0625 4.5625 C-3.51722656 3.92441406 -2.97195312 3.28632813 -2.41015625 2.62890625 C-1.63204305 1.73008851 -0.84063472 0.84063472 0 0 Z " fill="#5D93DE" transform="translate(144,169)"/>
<path d="M0 0 C1.33332095 2.6666419 0.67102033 4.16680303 0 7 C-2.31 7.33 -4.62 7.66 -7 8 C-6.02133662 6.85373678 -5.04205413 5.70800212 -4.0625 4.5625 C-3.51722656 3.92441406 -2.97195312 3.28632813 -2.41015625 2.62890625 C-1.63204305 1.73008851 -0.84063472 0.84063472 0 0 Z " fill="#5E93DD" transform="translate(160,153)"/>
<path d="M0 0 C0.66 1.32 1.32 2.64 2 4 C1.67 4.99 1.34 5.98 1 7 C-1.31 7.33 -3.62 7.66 -6 8 C-4.02 5.36 -2.04 2.72 0 0 Z " fill="#5A91E0" transform="translate(207,105)"/>
<path d="M0 0 C2.97 0.495 2.97 0.495 6 1 C5.67 1.99 5.34 2.98 5 4 C2.9375 4.6875 2.9375 4.6875 1 5 C0.67 3.35 0.34 1.7 0 0 Z " fill="#1A35BD" transform="translate(474,26)"/>
<path d="M0 0 C0.33 0.99 0.66 1.98 1 3 C-2.3 3 -5.6 3 -9 3 C-9.33 2.34 -9.66 1.68 -10 1 C-6.52674819 -0.1577506 -3.63932552 -0.06866652 0 0 Z " fill="#2743C0" transform="translate(447,20)"/>
<path d="M0 0 C0.33 0 0.66 0 1 0 C1 1.65 1 3.3 1 5 C2.65 5 4.3 5 6 5 C6 5.33 6 5.66 6 6 C3.03 6 0.06 6 -3 6 C-1.125 1.125 -1.125 1.125 0 0 Z " fill="#5087D5" transform="translate(19,294)"/>
<path d="M0 0 C0.33 0.66 0.66 1.32 1 2 C-0.125 4.5625 -0.125 4.5625 -2 7 C-4.6875 7.8125 -4.6875 7.8125 -7 8 C-6.02133662 6.85373678 -5.04205413 5.70800212 -4.0625 4.5625 C-3.51722656 3.92441406 -2.97195312 3.28632813 -2.41015625 2.62890625 C-1.63204305 1.73008851 -0.84063472 0.84063472 0 0 Z " fill="#6299DA" transform="translate(40,273)"/>
<path d="M0 0 C0.99 0.33 1.98 0.66 3 1 C3 1.99 3 2.98 3 4 C0.69 4.33 -1.62 4.66 -4 5 C-2.68 3.35 -1.36 1.7 0 0 Z " fill="#4E8ADD" transform="translate(189,124)"/>
<path d="M0 0 C1 2 1 2 0.4375 4 C-1.57302108 6.79724672 -3.74418077 7.15065585 -7 8 C-6.02133662 6.85373678 -5.04205413 5.70800212 -4.0625 4.5625 C-3.51722656 3.92441406 -2.97195312 3.28632813 -2.41015625 2.62890625 C-1.63204305 1.73008851 -0.84063472 0.84063472 0 0 Z " fill="#6598D5" transform="translate(32,281)"/>
<path d="M0 0 C6.52307692 1.47692308 6.52307692 1.47692308 8.9375 4.125 C9.288125 4.74375 9.63875 5.3625 10 6 C8.35 6 6.7 6 5 6 C4.67 5.01 4.34 4.02 4 3 C1.98491642 2.26676204 1.98491642 2.26676204 0 2 C0 1.34 0 0.68 0 0 Z " fill="#1631AC" transform="translate(514,47)"/>
<path d="M0 0 C2.76262553 0.3810518 3.84143894 0.83597132 5.8125 2.875 C6.204375 3.57625 6.59625 4.2775 7 5 C6.67 5.99 6.34 6.98 6 8 C4.9970458 6.85675161 3.99770973 5.71032809 3 4.5625 C2.443125 3.92441406 1.88625 3.28632813 1.3125 2.62890625 C0 1 0 1 0 0 Z " fill="#0932C9" transform="translate(295,192)"/>
<path d="M0 0 C2.64 0.33 5.28 0.66 8 1 C7.01 1.495 7.01 1.495 6 2 C5.67 2.66 5.34 3.32 5 4 C3.02 4 1.04 4 -1 4 C-0.67 2.68 -0.34 1.36 0 0 Z " fill="#377CED" transform="translate(198,116)"/>
<path d="M0 0 C0.66 0 1.32 0 2 0 C2.66 2.31 3.32 4.62 4 7 C3.01 7 2.02 7 1 7 C0.67 4.69 0.34 2.38 0 0 Z " fill="#273BB3" transform="translate(565,113)"/>
<path d="M0 0 C1.32 0.66 2.64 1.32 4 2 C2.02 2.33 0.04 2.66 -2 3 C-2.33 4.32 -2.66 5.64 -3 7 C-3.66 7 -4.32 7 -5 7 C-4.67 5.68 -4.34 4.36 -4 3 C-2.68 2.67 -1.36 2.34 0 2 C0 1.34 0 0.68 0 0 Z " fill="#0B27B7" transform="translate(495,282)"/>
<path d="M0 0 C-0.33 1.65 -0.66 3.3 -1 5 C-1.66 4.67 -2.32 4.34 -3 4 C-3.99 3.67 -4.98 3.34 -6 3 C-3.375 0 -3.375 0 0 0 Z " fill="#367BE6" transform="translate(46,272)"/>
<path d="M0 0 C0.99 0.33 1.98 0.66 3 1 C1.68 2.32 0.36 3.64 -1 5 C-1.99 4.67 -2.98 4.34 -4 4 C-2.68 2.68 -1.36 1.36 0 0 Z " fill="#377CE8" transform="translate(140,175)"/>
<path d="M0 0 C0.99 0.33 1.98 0.66 3 1 C1.68 2.32 0.36 3.64 -1 5 C-1.99 4.67 -2.98 4.34 -4 4 C-2.68 2.68 -1.36 1.36 0 0 Z " fill="#377CE7" transform="translate(156,159)"/>
<path d="M0 0 C1.98 1.65 3.96 3.3 6 5 C5.34 5.66 4.68 6.32 4 7 C2.35 5.35 0.7 3.7 -1 2 C-0.67 1.34 -0.34 0.68 0 0 Z " fill="#0229C4" transform="translate(258,153)"/>
<path d="M0 0 C1.98 1.65 3.96 3.3 6 5 C5.34 5.66 4.68 6.32 4 7 C2.35 5.35 0.7 3.7 -1 2 C-0.67 1.34 -0.34 0.68 0 0 Z " fill="#0229C4" transform="translate(242,137)"/>
<path d="M0 0 C2.93200474 2.85276137 5.64315404 5.65079784 8 9 C4.20620942 7.50958227 2.31656242 5.30937488 0 2 C0 1.34 0 0.68 0 0 Z " fill="#3A4BAD" transform="translate(538,66)"/>
<path d="M0 0 C0.33 0.66 0.66 1.32 1 2 C-0.98 4.97 -0.98 4.97 -3 8 C-3.66 6.68 -4.32 5.36 -5 4 C-4.01 4 -3.02 4 -2 4 C-1.34 2.68 -0.68 1.36 0 0 Z " fill="#273DAE" transform="translate(551,236)"/>
<path d="M0 0 C1.98 1.65 3.96 3.3 6 5 C5.34 5.66 4.68 6.32 4 7 C2.35 5.02 0.7 3.04 -1 1 C-0.67 0.67 -0.34 0.34 0 0 Z " fill="#0127C3" transform="translate(274,169)"/>
<path d="M0 0 C1.98 1.65 3.96 3.3 6 5 C5.34 5.66 4.68 6.32 4 7 C2.35 5.02 0.7 3.04 -1 1 C-0.67 0.67 -0.34 0.34 0 0 Z " fill="#0125C5" transform="translate(250,145)"/>
<path d="M0 0 C3.96 0.99 3.96 0.99 8 2 C5.24075815 3.80411967 4.11027897 4.0127245 0.75 3.625 C-0.1575 3.41875 -1.065 3.2125 -2 3 C-1.34 2.67 -0.68 2.34 0 2 C0 1.34 0 0.68 0 0 Z " fill="#273BB1" transform="translate(465,23)"/>
</svg>
