<?xml version="1.0" encoding="UTF-8"?>
<svg version="1.1" xmlns="http://www.w3.org/2000/svg" width="169" height="147">
<path d="M0 0 C3.38395435 2.3072416 5.34972936 4.55697882 7.75 7.875 C7.75 8.535 7.75 9.195 7.75 9.875 C9.61918091 9.83572388 9.61918091 9.83572388 11.52612305 9.7956543 C16.15712471 9.7050344 20.7880483 9.64770772 25.41967773 9.6003418 C27.42274156 9.5752245 29.42571398 9.54112405 31.4284668 9.49780273 C34.31061366 9.43702812 37.19154721 9.40876268 40.07421875 9.38671875 C40.96711105 9.36091232 41.86000336 9.3351059 42.779953 9.30851746 C47.02243503 9.3066112 49.74600033 9.31964244 52.85473633 12.40551758 C53.48017334 13.22044678 54.10561035 14.03537598 54.75 14.875 C54.14816251 16.89545442 53.47693904 18.89611039 52.75 20.875 C50.47702136 22.01148932 49.26768966 21.98855979 46.74682617 21.96923828 C45.92224411 21.96658966 45.09766205 21.96394104 44.24809265 21.96121216 C43.35540176 21.95596527 42.46271088 21.95071838 41.54296875 21.9453125 C39.65819389 21.95389757 37.77342687 21.9643738 35.88867188 21.9765625 C32.91240891 21.99325963 29.93789268 22.00000335 26.96166992 21.97460938 C24.09184236 21.95363912 21.22514685 21.97688468 18.35546875 22.0078125 C17.46885056 21.99042023 16.58223236 21.97302795 15.66874695 21.95510864 C10.95789172 21.97993501 10.95789172 21.97993501 7.13418579 24.42303467 C5.79153034 26.26680853 5.79153034 26.26680853 4.75630188 28.18502808 C2.96775861 31.18868729 1.03344856 31.8601159 -2.25 32.875 C-7.88017918 33.49455204 -12.5887228 33.67597294 -17.75 31.1875 C-20.23535775 28.88854408 -22.33740047 26.67033778 -24.25 23.875 C-24.25 23.215 -24.25 22.555 -24.25 21.875 C-24.86488281 21.89820312 -25.47976562 21.92140625 -26.11328125 21.9453125 C-27.32564453 21.97238281 -27.32564453 21.97238281 -28.5625 22 C-29.76326172 22.03480469 -29.76326172 22.03480469 -30.98828125 22.0703125 C-33.25 21.875 -33.25 21.875 -36.25 19.875 C-36.6875 16.4375 -36.6875 16.4375 -36.25 12.875 C-34.75 11 -34.75 11 -32.25 9.875 C-30.9187638 9.74678668 -29.58486863 9.64468408 -28.25 9.5625 C-26.14636913 9.43818342 -26.14636913 9.43818342 -24.25 8.875 C-22.85699818 6.91609119 -21.52754554 4.9110882 -20.25 2.875 C-14.05198447 -1.81269451 -7.23834554 -2.50558115 0 0 Z M-12.25 12.875 C-13.25478037 14.7272367 -13.25478037 14.7272367 -13.25 16.875 C-12.24033641 19.22126504 -12.24033641 19.22126504 -10.25 20.875 C-7.70741537 21.37514953 -7.70741537 21.37514953 -5.25 20.875 C-4.59 20.215 -3.93 19.555 -3.25 18.875 C-3.57326553 15.27820934 -3.57326553 15.27820934 -4.25 11.875 C-8.42810069 10.68568813 -8.42810069 10.68568813 -12.25 12.875 Z " fill="#305DD3" transform="translate(79.25,86.125)"/>
<path d="M0 0 C3.27122191 2.66969557 5.08171426 4.41066302 5.828125 8.66796875 C6.44300781 8.64476562 7.05789062 8.6215625 7.69140625 8.59765625 C8.49964844 8.57960938 9.30789062 8.5615625 10.140625 8.54296875 C10.94113281 8.51976562 11.74164063 8.4965625 12.56640625 8.47265625 C14.828125 8.66796875 14.828125 8.66796875 17.828125 10.66796875 C18.828125 12.98046875 18.828125 12.98046875 18.828125 15.66796875 C16.890625 18.41796875 16.890625 18.41796875 13.828125 20.66796875 C11.84502592 20.8278961 9.86138153 20.98564225 7.875 21.09765625 C4.32924324 22.08559611 2.68583667 24.99498046 0.4765625 27.7890625 C-2.64924286 31.35188804 -6.04732124 31.54301833 -10.546875 32.04296875 C-16.43200828 31.43416186 -20.59699972 29.32158779 -24.671875 25.04296875 C-26.171875 22.66796875 -26.171875 22.66796875 -26.171875 20.66796875 C-28.04891113 20.69153442 -28.04891113 20.69153442 -29.96386719 20.71557617 C-34.6080074 20.7698898 -39.25211955 20.80432414 -43.89648438 20.83276367 C-45.90629803 20.84784701 -47.91607879 20.86831647 -49.92578125 20.89428711 C-52.81518676 20.93069019 -55.70415696 20.94769963 -58.59375 20.9609375 C-59.94083038 20.98416328 -59.94083038 20.98416328 -61.31512451 21.00785828 C-67.4940421 21.00952393 -67.4940421 21.00952393 -70.74316406 19.37231445 C-72.171875 17.66796875 -72.171875 17.66796875 -72.609375 14.10546875 C-72.465 12.97109375 -72.320625 11.83671875 -72.171875 10.66796875 C-69.09312408 8.61546814 -68.51595008 8.42298909 -65.05517578 8.46020508 C-64.23066925 8.46292923 -63.40616272 8.46565338 -62.55667114 8.46846008 C-61.22537674 8.48407234 -61.22537674 8.48407234 -59.8671875 8.5 C-57.98567202 8.49432251 -56.10416065 8.48711332 -54.22265625 8.47851562 C-51.25745858 8.47433929 -48.29364534 8.48050461 -45.32861328 8.51342773 C-42.46549572 8.54034838 -39.60527636 8.52354002 -36.7421875 8.5 C-35.85870636 8.52052933 -34.97522522 8.54105865 -34.06497192 8.56221008 C-29.37237439 8.56103975 -29.37237439 8.56103975 -25.5758667 6.1199646 C-24.24589508 4.27455404 -24.24589508 4.27455404 -23.22824097 2.35307312 C-21.2008447 -0.88100903 -17.7701037 -1.81807804 -14.2890625 -2.9375 C-9.40993008 -3.84671102 -4.19243868 -2.57126185 0 0 Z M-15.171875 11.66796875 C-15.67202453 14.12538412 -15.67202453 14.12538412 -15.171875 16.66796875 C-13.59491868 18.74652955 -13.59491868 18.74652955 -11.171875 19.66796875 C-8.42883927 19.25409376 -8.42883927 19.25409376 -6.171875 17.66796875 C-5.08618997 15.82529007 -5.08618997 15.82529007 -5.171875 13.66796875 C-6.02977683 11.45025811 -6.02977683 11.45025811 -7.171875 9.66796875 C-11.66492082 9.24293429 -11.66492082 9.24293429 -15.171875 11.66796875 Z " fill="#2957D4" transform="translate(115.171875,54.33203125)"/>
<path d="M0 0 C2.64262968 1.82047822 3.60079275 2.97928051 5.38623047 5.51318359 C7.18651689 7.6417847 8.24691743 8.77203762 10.94073486 9.56011963 C13.46684056 9.75888632 15.91289708 9.75069784 18.4453125 9.6640625 C19.35957001 9.66449554 20.27382751 9.66492859 21.21578979 9.66537476 C24.12433849 9.66403949 27.0295047 9.61741328 29.9375 9.5625 C32.85227262 9.51824202 35.76551394 9.48444336 38.68063354 9.48104858 C40.4905144 9.4781118 42.30055068 9.45137703 44.10964966 9.39810181 C50.17918302 9.37629278 50.17918302 9.37629278 53.43701172 12.26318359 C54.8125 14.9375 54.8125 14.9375 54.1875 18.1875 C52.8125 20.9375 52.8125 20.9375 50.8125 21.9375 C47.76069665 21.99772185 44.72691848 22.00151463 41.67578125 21.97265625 C39.80012473 21.97637079 37.92447154 21.98230127 36.04882812 21.99023438 C33.09003275 22.00077436 30.13364204 22.00011229 27.17504883 21.96166992 C24.31980191 21.92843323 21.46852208 21.946192 18.61328125 21.97265625 C17.73698563 21.95010269 16.86069 21.92754913 15.95783997 21.90431213 C12.1150856 21.97891408 9.74593501 22.11877909 6.78866577 24.71261597 C4.94009156 26.82741723 4.94009156 26.82741723 3.38981628 29.02610779 C1.04363148 31.86921503 -1.12502976 32.79757283 -4.73828125 33.2734375 C-11.182784 33.3645903 -15.00070775 32.85405741 -20.1875 28.9375 C-24.1875 24.62980769 -24.1875 24.62980769 -24.1875 21.9375 C-25.10982422 21.98970703 -25.10982422 21.98970703 -26.05078125 22.04296875 C-26.85902344 22.07003906 -27.66726562 22.09710938 -28.5 22.125 C-29.70076172 22.17720703 -29.70076172 22.17720703 -30.92578125 22.23046875 C-33.1875 21.9375 -33.1875 21.9375 -34.953125 20.61328125 C-36.87863285 17.99922155 -36.64554343 16.0783692 -36.1875 12.9375 C-34.40693961 10.78598953 -33.07038907 10.02434155 -30.28125 9.75 C-29.5903125 9.70875 -28.899375 9.6675 -28.1875 9.625 C-26.08386913 9.50068342 -26.08386913 9.50068342 -24.1875 8.9375 C-22.79449818 6.97859119 -21.46504554 4.9735882 -20.1875 2.9375 C-14.00966052 -1.73493491 -7.23706912 -2.41235637 0 0 Z M-10.1875 10.9375 C-11.6725 13.4125 -11.6725 13.4125 -13.1875 15.9375 C-12.0499438 18.52891286 -12.0499438 18.52891286 -10.1875 20.9375 C-7.64422892 21.60435938 -7.64422892 21.60435938 -5.1875 20.9375 C-2.82057034 18.08923402 -2.82057034 18.08923402 -3.5625 14.75 C-3.76875 13.821875 -3.975 12.89375 -4.1875 11.9375 C-7.1575 11.4425 -7.1575 11.4425 -10.1875 10.9375 Z " fill="#2354D3" transform="translate(79.1875,19.0625)"/>
<path d="M0 0 C6.21129698 -0.09877896 12.42213818 -0.17142631 18.6340332 -0.21972656 C20.74772097 -0.23985847 22.86135294 -0.26716643 24.97485352 -0.30175781 C28.01071935 -0.35020627 31.04584978 -0.37295276 34.08203125 -0.390625 C35.5024749 -0.42159271 35.5024749 -0.42159271 36.95161438 -0.45318604 C43.46033228 -0.45541888 43.46033228 -0.45541888 46.1628418 1.82519531 C47 4 47 4 46.3125 7.1875 C45 10 45 10 43 11 C41.58026727 11.08934406 40.15642209 11.11758978 38.73388672 11.11352539 C37.41274368 11.11341209 37.41274368 11.11341209 36.06491089 11.11329651 C35.11278717 11.10813522 34.16066345 11.10297394 33.1796875 11.09765625 C32.20589142 11.0962413 31.23209534 11.09482635 30.22879028 11.09336853 C27.11082927 11.08775973 23.9929394 11.07520573 20.875 11.0625 C18.76432395 11.05748613 16.65364678 11.05292303 14.54296875 11.04882812 C9.36195479 11.03778745 4.18098248 11.02104073 -1 11 C-1 11.66 -1 12.32 -1 13 C-2.32 13.33 -3.64 13.66 -5 14 C-5.33 13.34 -5.66 12.68 -6 12 C-6.99 11.67 -7.98 11.34 -9 11 C-9 11.66 -9 12.32 -9 13 C-10.32 12.67 -11.64 12.34 -13 12 C-13 11.34 -13 10.68 -13 10 C-12.01 9.67 -11.02 9.34 -10 9 C-9.67 8.34 -9.34 7.68 -9 7 C-8.34 7 -7.68 7 -7 7 C-6.67 6.01 -6.34 5.02 -6 4 C-4.02 3.67 -2.04 3.34 0 3 C0 2.01 0 1.02 0 0 Z " fill="#1E4ED0" transform="translate(87,97)"/>
<path d="M0 0 C1.32 0.33 2.64 0.66 4 1 C3.505 1.33 3.01 1.66 2.5 2 C0.71385529 4.38152629 0.87394393 5.16846269 1 8.0625 C1 9.361875 1 10.66125 1 12 C-2.11658956 14.07772637 -2.80968702 14.25146755 -6.34790039 14.25878906 C-7.2221315 14.26509338 -8.09636261 14.27139771 -8.99708557 14.27789307 C-10.40811806 14.27182037 -10.40811806 14.27182037 -11.84765625 14.265625 C-12.81529404 14.26753845 -13.78293182 14.2694519 -14.77989197 14.27142334 C-16.82502503 14.27278428 -18.87016675 14.26909419 -20.9152832 14.26074219 C-24.05374439 14.25002988 -27.19163465 14.2606466 -30.33007812 14.2734375 C-32.31510544 14.27211612 -34.30013239 14.26955416 -36.28515625 14.265625 C-37.69922508 14.27169769 -37.69922508 14.27169769 -39.14186096 14.27789307 C-40.01293991 14.27158875 -40.88401886 14.26528442 -41.78149414 14.25878906 C-42.93374229 14.25640228 -42.93374229 14.25640228 -44.10926819 14.25396729 C-46 14 -46 14 -48 12 C-48.3125 8.5 -48.3125 8.5 -48 5 C-44.86469771 2.90979847 -44.1816823 2.7525405 -40.62036133 2.77294922 C-39.73967484 2.77310028 -38.85898834 2.77325134 -37.95161438 2.77340698 C-37.00465195 2.78372955 -36.05768951 2.79405212 -35.08203125 2.8046875 C-34.10965012 2.8075174 -33.13726898 2.81034729 -32.13542175 2.81326294 C-29.02765634 2.82446401 -25.92017841 2.84956852 -22.8125 2.875 C-20.70638437 2.88502989 -18.60026422 2.89415573 -16.49414062 2.90234375 C-11.3293162 2.92440312 -6.16470685 2.95893254 -1 3 C-0.67 2.01 -0.34 1.02 0 0 Z " fill="#1D4ED1" transform="translate(91,60)"/>
<path d="M0 0 C3.38395435 2.3072416 5.34972936 4.55697882 7.75 7.875 C7.75 8.535 7.75 9.195 7.75 9.875 C21.61 9.875 35.47 9.875 49.75 9.875 C49.75 10.205 49.75 10.535 49.75 10.875 C35.89 11.205 22.03 11.535 7.75 11.875 C8.41 12.535 9.07 13.195 9.75 13.875 C9.18410156 13.99617188 8.61820313 14.11734375 8.03515625 14.2421875 C6.93494141 14.49355469 6.93494141 14.49355469 5.8125 14.75 C4.71615234 14.99363281 4.71615234 14.99363281 3.59765625 15.2421875 C1.54299706 15.70461523 1.54299706 15.70461523 0.75 17.875 C0.09 17.875 -0.57 17.875 -1.25 17.875 C-1.58 18.865 -1.91 19.855 -2.25 20.875 C-3.24 20.545 -4.23 20.215 -5.25 19.875 C-4.92 19.545 -4.59 19.215 -4.25 18.875 C-4.20907063 16.54202567 -4.20758277 14.20794775 -4.25 11.875 C-4.91 11.875 -5.57 11.875 -6.25 11.875 C-6.25 11.215 -6.25 10.555 -6.25 9.875 C-6.86488281 9.95878906 -7.47976562 10.04257813 -8.11328125 10.12890625 C-8.92152344 10.23074219 -9.72976562 10.33257812 -10.5625 10.4375 C-11.36300781 10.54191406 -12.16351563 10.64632812 -12.98828125 10.75390625 C-15.25 10.875 -15.25 10.875 -18.25 9.875 C-18.61444983 5.62308535 -17.81111503 3.28982003 -15.25 -0.125 C-10.0828841 -1.84737197 -5.14400242 -1.78061622 0 0 Z " fill="#2252D3" transform="translate(79.25,86.125)"/>
<path d="M0 0 C0.66 0.33 1.32 0.66 2 1 C1.67 1.99 1.34 2.98 1 4 C1.495 4.99 1.495 4.99 2 6 C2.495 6.99 2.495 6.99 3 8 C2.67 8.99 2.34 9.98 2 11 C2.556875 10.649375 3.11375 10.29875 3.6875 9.9375 C6.53886783 8.78154007 8.08517222 9.19032562 11 10 C11 10.33 11 10.66 11 11 C9.02 11.66 7.04 12.32 5 13 C4.65099442 16.71736641 4.65099442 16.71736641 6.5 19.8125 C6.995 20.204375 7.49 20.59625 8 21 C7.01 21 6.02 21 5 21 C4.67 21.66 4.34 22.32 4 23 C3.67 22.67 3.34 22.34 3 22 C2.67 24.31 2.34 26.62 2 29 C5.46222615 30.06723961 8.64039266 30.10173486 12.25 30.0625 C13.32765625 30.05347656 14.4053125 30.04445313 15.515625 30.03515625 C16.74539062 30.01775391 16.74539062 30.01775391 18 30 C15.07028166 32.92971834 12.82799358 32.92038523 8.75 33.3125 C2.78467409 32.81538951 -1.37984374 30.70116407 -5.5 26.375 C-7 24 -7 24 -7 22 C-20.86 22 -34.72 22 -49 22 C-49 21.67 -49 21.34 -49 21 C-47.74340576 20.97494385 -46.48681152 20.9498877 -45.19213867 20.92407227 C-40.53480643 20.82997705 -35.87762259 20.72976141 -31.22045898 20.62768555 C-29.20389271 20.58434471 -27.18728993 20.54266902 -25.1706543 20.50268555 C-22.27381383 20.44496253 -19.37715694 20.38127378 -16.48046875 20.31640625 C-15.12564644 20.29133751 -15.12564644 20.29133751 -13.74345398 20.26576233 C-12.90280899 20.24581711 -12.062164 20.22587189 -11.19604492 20.20532227 C-10.08684944 20.18200584 -10.08684944 20.18200584 -8.95524597 20.15821838 C-6.7848329 20.06087775 -6.7848329 20.06087775 -4 19 C-4.2784375 17.6078125 -4.2784375 17.6078125 -4.5625 16.1875 C-5 13 -5 13 -4 10 C-3.34 9.34 -2.68 8.68 -2 8 C-2.99 8 -3.98 8 -5 8 C-5.33 8.66 -5.66 9.32 -6 10 C-6.66 9.67 -7.32 9.34 -8 9 C-7.23587913 7.87043002 -6.46340197 6.74651022 -5.6875 5.625 C-5.25824219 4.99851562 -4.82898438 4.37203125 -4.38671875 3.7265625 C-3 2 -3 2 0 0 Z " fill="#4F76E2" transform="translate(96,53)"/>
<path d="M0 0 C1.32 1.32 2.64 2.64 4 4 C3.34 5.98 2.68 7.96 2 10 C1.23647217 9.76120117 1.23647217 9.76120117 0.45751953 9.51757812 C-2.81765733 8.82779321 -5.97417445 8.79630813 -9.3203125 8.71875 C-10.0201828 8.70034058 -10.7200531 8.68193115 -11.44113159 8.66296387 C-14.42626137 8.58451411 -17.41160386 8.5164052 -20.39697266 8.44775391 C-22.57986699 8.39606251 -24.76256665 8.33882246 -26.9453125 8.28125 C-28.90235107 8.23581055 -28.90235107 8.23581055 -30.89892578 8.18945312 C-34 8 -34 8 -36 7 C-36.625 3.9375 -36.625 3.9375 -37 1 C-35.91468994 1.00523682 -34.82937988 1.01047363 -33.71118164 1.01586914 C-29.69882018 1.03391836 -25.68646233 1.04543171 -21.67407227 1.05493164 C-19.93480832 1.05997204 -18.19554864 1.0668043 -16.45629883 1.07543945 C-13.96174063 1.08751792 -11.46723827 1.09323108 -8.97265625 1.09765625 C-7.7992141 1.10539818 -7.7992141 1.10539818 -6.60206604 1.11329651 C-4.73432886 1.11349226 -2.86670796 1.06199694 -1 1 C-0.67 0.67 -0.34 0.34 0 0 Z " fill="#2151D8" transform="translate(130,30)"/>
<path d="M0 0 C0.639375 0.33 1.27875 0.66 1.9375 1 C-0.87054268 3.96404505 -3.24565774 6.44499019 -7.0625 8 C-6.0725 8.495 -5.0825 8.99 -4.0625 9.5 C-1.0625 12 -1.0625 12 -0.59375 13.94140625 C-0.53758862 17.75336004 -0.93396702 19.80720054 -3.0625 23 C-5.3725 22.67 -7.6825 22.34 -10.0625 22 C-10.0625 21.67 -10.0625 21.34 -10.0625 21 C-8.4125 20.67 -6.7625 20.34 -5.0625 20 C-4.32915571 16.02245872 -4.32915571 16.02245872 -4.0625 12 C-6.0425 12 -8.0225 12 -10.0625 12 C-10.371875 12.78375 -10.68125 13.5675 -11 14.375 C-12.0625 17 -12.0625 17 -13.0625 19 C-13.86203138 15.71303767 -14.15908936 14.28976808 -13.0625 11 C-13.7225 10.67 -14.3825 10.34 -15.0625 10 C-13.7425 9.67 -12.4225 9.34 -11.0625 9 C-11.0625 8.34 -11.0625 7.68 -11.0625 7 C-16.61743924 5.97296252 -16.61743924 5.97296252 -22.0625 7 C-20.32123368 2.83496097 -18.34912447 1.6039593 -14.3515625 -0.2421875 C-9.4484394 -1.86540573 -4.86197209 -1.58758272 0 0 Z " fill="#2D5AD5" transform="translate(79.0625,19)"/>
<path d="M0 0 C0.66 0.66 1.32 1.32 2 2 C3.32 1.34 4.64 0.68 6 0 C6.1875 2.3125 6.1875 2.3125 6 5 C4.5 6.75 4.5 6.75 3 8 C3 8.33 3 8.66 3 9 C-3.01344909 10.45780584 -8.34409281 10.74225803 -14 8 C-13.67 5.36 -13.34 2.72 -13 0 C-4.16544503 -1.34764398 -4.16544503 -1.34764398 0 0 Z " fill="#1D4ED5" transform="translate(111,74)"/>
<path d="M0 0 C5.01656959 1.4333056 7.01452882 3.90563952 10 8 C10 8.66 10 9.32 10 10 C23.86 10 37.72 10 52 10 C52 10.33 52 10.66 52 11 C31.21 11.495 31.21 11.495 10 12 C10.66 12.66 11.32 13.32 12 14 C11.43410156 14.12117188 10.86820313 14.24234375 10.28515625 14.3671875 C9.55167969 14.53476563 8.81820312 14.70234375 8.0625 14.875 C6.96615234 15.11863281 6.96615234 15.11863281 5.84765625 15.3671875 C3.79299706 15.82961523 3.79299706 15.82961523 3 18 C2.34 18 1.68 18 1 18 C0.67 18.99 0.34 19.98 0 21 C-0.99 20.67 -1.98 20.34 -3 20 C-2.67 19.67 -2.34 19.34 -2 19 C-1.95907063 16.66702567 -1.95758277 14.33294775 -2 12 C-0.515 12.99 -0.515 12.99 1 14 C1.99 13.34 2.98 12.68 4 12 C4.66 11.67 5.32 11.34 6 11 C5.505 10.21625 5.01 9.4325 4.5 8.625 C3 6 3 6 3 4 C2.0206121 2.97980427 1.02104551 1.97850195 0 1 C0 0.67 0 0.34 0 0 Z " fill="#5A82E6" transform="translate(77,86)"/>
<path d="M0 0 C1.32 0.33 2.64 0.66 4 1 C3.505 1.33 3.01 1.66 2.5 2 C0.71385529 4.38152629 0.87394393 5.16846269 1 8.0625 C1 9.361875 1 10.66125 1 12 C-2.09055955 14.06037303 -2.70926162 14.24799242 -6.19604492 14.22705078 C-7.03668991 14.22689972 -7.8773349 14.22674866 -8.74345398 14.22659302 C-9.64666885 14.21627045 -10.54988373 14.20594788 -11.48046875 14.1953125 C-12.87245232 14.19106766 -12.87245232 14.19106766 -14.29255676 14.18673706 C-17.25766879 14.17553836 -20.22247921 14.15043435 -23.1875 14.125 C-25.19726126 14.1149698 -27.20702726 14.10584402 -29.21679688 14.09765625 C-34.14464753 14.07560004 -39.07227262 14.04107229 -44 14 C-44.33 13.34 -44.66 12.68 -45 12 C-43.47076904 12.01571045 -43.47076904 12.01571045 -41.91064453 12.03173828 C-38.13496398 12.06788727 -34.35929879 12.09088177 -30.58349609 12.10986328 C-28.94805328 12.11993254 -27.31262851 12.13358881 -25.67724609 12.15087891 C-23.3290563 12.17508705 -20.98110412 12.18647357 -18.6328125 12.1953125 C-17.53273361 12.21079636 -17.53273361 12.21079636 -16.41043091 12.22659302 C-14.60537303 12.22699368 -12.8009217 12.12212755 -11 12 C-10.34 11.34 -9.68 10.68 -9 10 C-9.3185177 7.89179203 -9.3185177 7.89179203 -10 6 C-6.535 5.505 -6.535 5.505 -3 5 C-3 4.34 -3 3.68 -3 3 C-2.34 3 -1.68 3 -1 3 C-0.67 2.01 -0.34 1.02 0 0 Z " fill="#1645C9" transform="translate(91,60)"/>
<path d="M0 0 C0.57300842 0.16076523 1.14601685 0.32153046 1.73638916 0.48716736 C3.96461839 0.99198411 5.93765725 1.1560605 8.21777344 1.20532227 C9.03832214 1.22526749 9.85887085 1.24521271 10.70428467 1.26576233 C11.58046448 1.28247482 12.45664429 1.29918732 13.359375 1.31640625 C14.71594208 1.3475779 14.71594208 1.3475779 16.09991455 1.37937927 C18.98320055 1.4446594 21.8665761 1.50365952 24.75 1.5625 C26.70704044 1.60570571 28.66407188 1.64932065 30.62109375 1.69335938 C35.4139712 1.80031872 40.20693854 1.90164673 45 2 C45 2.33 45 2.66 45 3 C43.14652954 2.98259766 43.14652954 2.98259766 41.25561523 2.96484375 C36.64996876 2.93219426 32.04576875 2.95222862 27.44018555 2.98779297 C25.45093456 2.99588001 23.46157249 2.9898751 21.47241211 2.96923828 C18.60384894 2.94196648 15.73950969 2.96617452 12.87109375 3 C11.98852402 2.9805835 11.10595428 2.96116699 10.19664001 2.94116211 C6.33910036 3.03029232 3.94139242 3.17507945 0.97171021 5.77734375 C-0.87674309 7.89178011 -0.87674309 7.89178011 -2.42515564 10.08984375 C-4.83534515 13.01320473 -7.0044614 13.89017697 -10.7265625 14.30078125 C-11.68304688 14.30464844 -12.63953125 14.30851562 -13.625 14.3125 C-14.58664063 14.32925781 -15.54828125 14.34601562 -16.5390625 14.36328125 C-17.35117188 14.24339844 -18.16328125 14.12351562 -19 14 C-19.66 13.01 -20.32 12.02 -21 11 C-19.64455078 11.03480469 -19.64455078 11.03480469 -18.26171875 11.0703125 C-16.49248047 11.09738281 -16.49248047 11.09738281 -14.6875 11.125 C-13.51574219 11.14820313 -12.34398438 11.17140625 -11.13671875 11.1953125 C-7.83606339 11.25320618 -7.83606339 11.25320618 -5 9 C-4.27617533 6.94074861 -4.27617533 6.94074861 -4 5 C-3.34 5 -2.68 5 -2 5 C-1.34 3.35 -0.68 1.7 0 0 Z " fill="#4469C5" transform="translate(85,38)"/>
<path d="M0 0 C1.32 0 2.64 0 4 0 C4 0.66 4 1.32 4 2 C4.99 2.33 5.98 2.66 7 3 C7.66 2.01 8.32 1.02 9 0 C11.64 0.66 14.28 1.32 17 2 C16.01 2.495 16.01 2.495 15 3 C15.20625 3.928125 15.4125 4.85625 15.625 5.8125 C16 9 16 9 14 12 C11.0625 11.1875 11.0625 11.1875 8 10 C7.67 9.01 7.34 8.02 7 7 C5.68 7.33 4.36 7.66 3 8 C3.33 6.68 3.66 5.36 4 4 C3.01 3.67 2.02 3.34 1 3 C0.67 2.01 0.34 1.02 0 0 Z " fill="#1A4AD0" transform="translate(56,106)"/>
<path d="M0 0 C0.90105469 0.02707031 1.80210938 0.05414063 2.73046875 0.08203125 C3.76107422 0.13423828 3.76107422 0.13423828 4.8125 0.1875 C5.4375 3.0625 5.4375 3.0625 5.8125 6.1875 C3.8125 8.1875 3.8125 8.1875 1.71875 8.41796875 C0.9246875 8.40378906 0.130625 8.38960937 -0.6875 8.375 C-1.87859375 8.36533203 -1.87859375 8.36533203 -3.09375 8.35546875 C-5.1875 8.1875 -5.1875 8.1875 -7.1875 7.1875 C-8 5.3125 -8 5.3125 -8.1875 3.1875 C-5.83656423 -0.08645418 -3.88629704 -0.15141417 0 0 Z " fill="#1C4DDA" transform="translate(125.1875,64.8125)"/>
<path d="M0 0 C0.89130413 2.6739124 1.47731534 5.23723823 2 8 C3.60226955 8.22245393 5.20696767 8.42746669 6.8125 8.625 C7.70582031 8.74101563 8.59914063 8.85703125 9.51953125 8.9765625 C12.25690391 9.23500743 12.25690391 9.23500743 15 7 C16 10 16 10 16 14 C16.66 14.33 17.32 14.66 18 15 C17.67 15.66 17.34 16.32 17 17 C17.66 17.33 18.32 17.66 19 18 C17.68 18.33 16.36 18.66 15 19 C10 13.25 10 13.25 10 11 C9.38511719 11.03480469 8.77023438 11.06960937 8.13671875 11.10546875 C6.92435547 11.14607422 6.92435547 11.14607422 5.6875 11.1875 C4.48673828 11.23970703 4.48673828 11.23970703 3.26171875 11.29296875 C1 11 1 11 -0.7734375 9.6796875 C-2.64006931 7.12347196 -2.32635853 5.06777019 -2 2 C-1.34 1.34 -0.68 0.68 0 0 Z " fill="#3D65D8" transform="translate(45,30)"/>
<path d="M0 0 C2 4 2 4 2 8 C0.18757948 8.02687279 -1.62495233 8.04633715 -3.4375 8.0625 C-4.44683594 8.07410156 -5.45617188 8.08570312 -6.49609375 8.09765625 C-9 8 -9 8 -10 7 C-10 5.35 -10 3.7 -10 2 C-6.7 1.34 -3.4 0.68 0 0 Z " fill="#1B4ED7" transform="translate(54,98)"/>
<path d="M0 0 C0.66 0.66 1.32 1.32 2 2 C5.08347826 2.16681109 5.08347826 2.16681109 8 2 C8 4 8 6 8 8 C11.46222615 9.06723961 14.64039266 9.10173486 18.25 9.0625 C19.86648437 9.04896484 19.86648437 9.04896484 21.515625 9.03515625 C22.74539062 9.01775391 22.74539062 9.01775391 24 9 C21.07028166 11.92971834 18.82799358 11.92038523 14.75 12.3125 C9.48648843 11.87387404 5.30040798 9.96134558 1.27734375 6.53125 C-0.52331077 4.37266721 -0.22067426 2.72164926 0 0 Z " fill="#4269CE" transform="translate(90,74)"/>
<path d="M0 0 C0.33 0.66 0.66 1.32 1 2 C0.67 2.66 0.34 3.32 0 4 C1.32 4.33 2.64 4.66 4 5 C2.75023244 8.65316671 2.32901247 9.78065836 -1 12 C-4.1875 12.125 -4.1875 12.125 -7 12 C-7 10.68 -7 9.36 -7 8 C-5.68 7.67 -4.36 7.34 -3 7 C-3.61875 6.71125 -4.2375 6.4225 -4.875 6.125 C-7 5 -7 5 -9 3 C-7.88625 3.061875 -6.7725 3.12375 -5.625 3.1875 C-4.42875 3.125625 -3.2325 3.06375 -2 3 C-1.34 2.01 -0.68 1.02 0 0 Z " fill="#1B4CD5" transform="translate(78,38)"/>
<path d="M0 0 C1.5 1.375 1.5 1.375 3 3 C3 3.66 3 4.32 3 5 C3.61488281 4.97679687 4.22976562 4.95359375 4.86328125 4.9296875 C5.67152344 4.91164063 6.47976562 4.89359375 7.3125 4.875 C8.11300781 4.85179687 8.91351563 4.82859375 9.73828125 4.8046875 C12 5 12 5 15 7 C15.875 9.375 15.875 9.375 16 12 C14.86328125 14.1484375 14.86328125 14.1484375 13 16 C10.30078125 16.390625 10.30078125 16.390625 7.3125 16.25 C6.31863281 16.21390625 5.32476562 16.1778125 4.30078125 16.140625 C3.16189453 16.07101563 3.16189453 16.07101563 2 16 C2 15.67 2 15.34 2 15 C6.455 14.505 6.455 14.505 11 14 C11.74957157 10.52852158 11.74957157 10.52852158 12 7 C11.30132812 7.03480469 10.60265625 7.06960937 9.8828125 7.10546875 C8.97273438 7.13253906 8.06265625 7.15960938 7.125 7.1875 C6.22007813 7.22230469 5.31515625 7.25710937 4.3828125 7.29296875 C3.20332031 7.14794922 3.20332031 7.14794922 2 7 C1.34 6.01 0.68 5.02 0 4 C-0.99 3.67 -1.98 3.34 -3 3 C-3 2.34 -3 1.68 -3 1 C-2.01 0.67 -1.02 0.34 0 0 Z " fill="#4063C6" transform="translate(118,58)"/>
<path d="M0 0 C1.28583984 0.25330078 1.28583984 0.25330078 2.59765625 0.51171875 C5.11120278 1.37194753 6.24695896 2.30047902 7.9375 4.3125 C4.9675 3.8175 4.9675 3.8175 1.9375 3.3125 C1.9375 2.6525 1.9375 1.9925 1.9375 1.3125 C1.2775 1.3125 0.6175 1.3125 -0.0625 1.3125 C0.7138932 4.3870356 0.7138932 4.3870356 2.9375 6.3125 C2.2775 6.3125 1.6175 6.3125 0.9375 6.3125 C0.9375 6.9725 0.9375 7.6325 0.9375 8.3125 C-1.0425 8.6425 -3.0225 8.9725 -5.0625 9.3125 C-5.7225 7.6625 -6.3825 6.0125 -7.0625 4.3125 C-5.7425 3.9825 -4.4225 3.6525 -3.0625 3.3125 C-5.0425 2.6525 -7.0225 1.9925 -9.0625 1.3125 C-5.73077126 -0.75147117 -3.8008836 -0.80833271 0 0 Z " fill="#3560D6" transform="translate(108.0625,51.6875)"/>
<path d="M0 0 C0.89130413 2.6739124 1.47731534 5.23723823 2 8 C2.63808594 8.04898438 3.27617188 8.09796875 3.93359375 8.1484375 C4.75988281 8.22320312 5.58617187 8.29796875 6.4375 8.375 C7.26121094 8.44460937 8.08492187 8.51421875 8.93359375 8.5859375 C9.95646484 8.79089844 9.95646484 8.79089844 11 9 C11.33 9.66 11.66 10.32 12 11 C10.22992286 11.08114106 8.45877902 11.13925505 6.6875 11.1875 C5.70136719 11.22230469 4.71523438 11.25710937 3.69921875 11.29296875 C1 11 1 11 -0.8359375 9.6796875 C-2.61641972 7.1105353 -2.32276119 5.0339552 -2 2 C-1.34 1.34 -0.68 0.68 0 0 Z " fill="#385CC2" transform="translate(45,30)"/>
<path d="M0 0 C1.65 0.33 3.3 0.66 5 1 C5.625 3.8125 5.625 3.8125 6 7 C5.01 8.485 5.01 8.485 4 10 C2.02 9.34 0.04 8.68 -2 8 C-1.34 7.01 -0.68 6.02 0 5 C0 4.01 0 3.02 0 2 C0 1.34 0 0.68 0 0 Z " fill="#1D4FDC" transform="translate(66,108)"/>
<path d="M0 0 C0.66 0.33 1.32 0.66 2 1 C1.67 1.99 1.34 2.98 1 4 C1.87483915 6.16715557 1.87483915 6.16715557 3 8 C0.33333333 8 -2.33333333 8 -5 8 C-5.33 8.66 -5.66 9.32 -6 10 C-6.66 9.67 -7.32 9.34 -8 9 C-7.23587913 7.87043002 -6.46340197 6.74651022 -5.6875 5.625 C-5.25824219 4.99851562 -4.82898438 4.37203125 -4.38671875 3.7265625 C-3 2 -3 2 0 0 Z " fill="#4B73D8" transform="translate(96,53)"/>
<path d="M0 0 C0.99 0.33 1.98 0.66 3 1 C3.25 8.625 3.25 8.625 1 12 C-1.31 11.67 -3.62 11.34 -6 11 C-6 10.67 -6 10.34 -6 10 C-4.35 9.67 -2.7 9.34 -1 9 C-0.45627049 5.94152152 0 3.11227195 0 0 Z " fill="#5278D8" transform="translate(75,30)"/>
<path d="M0 0 C1.43739513 -0.02712066 2.87493863 -0.04645067 4.3125 -0.0625 C5.51326172 -0.07990234 5.51326172 -0.07990234 6.73828125 -0.09765625 C9 0 9 0 12 1 C12 1.66 12 2.32 12 3 C10.02 3.66 8.04 4.32 6 5 C6 4.01 6 3.02 6 2 C3.69 2 1.38 2 -1 2 C-0.67 1.34 -0.34 0.68 0 0 Z " fill="#3D63CC" transform="translate(67,18)"/>
<path d="M0 0 C0 0.33 0 0.66 0 1 C-1.98 1.66 -3.96 2.32 -6 3 C-6.33 4.65 -6.66 6.3 -7 8 C-7.99 7.67 -8.98 7.34 -10 7 C-10.33 5.02 -10.66 3.04 -11 1 C-6.92630576 -1.03684712 -4.41062136 -1.0257259 0 0 Z " fill="#4A70DA" transform="translate(107,63)"/>
<path d="M0 0 C1.02104551 0.97850195 2.0206121 1.97980427 3 3 C3 3.33 3 3.66 3 4 C4.65 4.33 6.3 4.66 8 5 C7.67 5.66 7.34 6.32 7 7 C2.2482602 6.56802365 0.07999946 5.67230705 -3 2 C-2.01 1.34 -1.02 0.68 0 0 Z " fill="#456CCE" transform="translate(62,112)"/>
<path d="M0 0 C2.69082872 0.17635452 5.32851446 0.61835921 8 1 C7.071875 1.3403125 7.071875 1.3403125 6.125 1.6875 C3.3634551 3.39316009 2.98483805 4.96972909 2 8 C1.67 8.66 1.34 9.32 1 10 C0.20046862 6.71303767 -0.09658936 5.28976808 1 2 C0.34 1.67 -0.32 1.34 -1 1 C-0.67 0.67 -0.34 0.34 0 0 Z " fill="#557DDF" transform="translate(65,28)"/>
<path d="M0 0 C0.99 0.33 1.98 0.66 3 1 C2.79375 1.5775 2.5875 2.155 2.375 2.75 C1.91338739 5.51967567 2.57055055 6.64561267 4 9 C2.35 8.67 0.7 8.34 -1 8 C-1.125 2.25 -1.125 2.25 0 0 Z " fill="#5B83DC" transform="translate(65,98)"/>
<path d="M0 0 C0.66 0 1.32 0 2 0 C1.979375 1.093125 1.95875 2.18625 1.9375 3.3125 C1.81455548 6.94384191 1.81455548 6.94384191 3 10 C1.68 9.34 0.36 8.68 -1 8 C-1.04241723 5.66705225 -1.04092937 3.33297433 -1 1 C-0.67 0.67 -0.34 0.34 0 0 Z " fill="#6882D6" transform="translate(44,64)"/>
<path d="M0 0 C0.99 0.33 1.98 0.66 3 1 C2.67 1.99 2.34 2.98 2 4 C3.32 4.33 4.64 4.66 6 5 C6 5.66 6 6.32 6 7 C4.35 6.67 2.7 6.34 1 6 C0.67 4.02 0.34 2.04 0 0 Z " fill="#1D4ED5" transform="translate(113,57)"/>
<path d="M0 0 C1.32 0.66 2.64 1.32 4 2 C2.02 4.97 2.02 4.97 0 8 C-0.66 7.01 -1.32 6.02 -2 5 C-1.125 2.3125 -1.125 2.3125 0 0 Z " fill="#3E69CF" transform="translate(85,38)"/>
<path d="M0 0 C1.0013988 3.00419641 1.51421457 5.87709365 2 9 C1.01 9 0.02 9 -1 9 C-2 8 -2 8 -2.1875 5.0625 C-2 2 -2 2 0 0 Z " fill="#5574D0" transform="translate(45,30)"/>
<path d="M0 0 C0.66 0.33 1.32 0.66 2 1 C1.19152271 2.16945792 0.37810888 3.33550461 -0.4375 4.5 C-0.88996094 5.1496875 -1.34242187 5.799375 -1.80859375 6.46875 C-2.20175781 6.9740625 -2.59492187 7.479375 -3 8 C-3.33 8 -3.66 8 -4 8 C-4 6.35 -4 4.7 -4 3 C-2.68 2.67 -1.36 2.34 0 2 C0 1.34 0 0.68 0 0 Z " fill="#6288D7" transform="translate(86,108)"/>
<path d="M0 0 C3.65316671 1.24976756 4.78065836 1.67098753 7 5 C6.34 5 5.68 5 5 5 C4.67 5.99 4.34 6.98 4 8 C3.896875 7.401875 3.79375 6.80375 3.6875 6.1875 C2.90868872 3.7094641 1.8892008 2.72492247 0 1 C0 0.67 0 0.34 0 0 Z " fill="#547BD7" transform="translate(77,86)"/>
<path d="M0 0 C2.31 0 4.62 0 7 0 C7 1.65 7 3.3 7 5 C6.01 5 5.02 5 4 5 C4 3.68 4 2.36 4 1 C2.68 0.67 1.36 0.34 0 0 Z " fill="#1751D5" transform="translate(123,65)"/>
<path d="M0 0 C1.32 0.33 2.64 0.66 4 1 C4 1.99 4 2.98 4 4 C3.34 4 2.68 4 2 4 C1.67 4.66 1.34 5.32 1 6 C0 5 0 5 -0.0625 2.4375 C-0.041875 1.633125 -0.02125 0.82875 0 0 Z " fill="#1847C9" transform="translate(44,100)"/>
<path d="M0 0 C0.99 0.33 1.98 0.66 3 1 C2.2575 1.8971875 2.2575 1.8971875 1.5 2.8125 C-0.28276418 4.97029994 -0.28276418 4.97029994 0 8 C-0.66 7.34 -1.32 6.68 -2 6 C-1.44444444 1.44444444 -1.44444444 1.44444444 0 0 Z " fill="#1B4EDD" transform="translate(47,31)"/>
</svg>
