<?xml version="1.0" encoding="UTF-8"?>
<svg version="1.1" xmlns="http://www.w3.org/2000/svg" width="102" height="90">
<path d="M0 0 C1.05509766 -0.05349609 2.11019531 -0.10699219 3.19726562 -0.16210938 C6.38638349 -0.19986217 9.09453982 -0.1078169 12.1875 0.6875 C13.96948242 2.49291992 13.96948242 2.49291992 15.59375 4.6875 C18.42579577 7.99222621 20.52574491 8.95795983 24.75073242 9.3581543 C30.45908899 9.61504299 36.16448557 9.5061528 41.875 9.375 C44.83734118 9.32322345 47.7981522 9.28338995 50.76094055 9.27339172 C52.59764067 9.26577081 54.4344484 9.23365027 56.27018738 9.17375183 C60.39511723 9.14321891 62.6449356 9.36371925 66.24682617 11.51318359 C69.13533235 16.23784799 68.90405762 20.46121128 68.8515625 25.90234375 C68.85634613 26.99084122 68.86112976 28.07933868 68.86605835 29.20082092 C68.86945639 31.49969937 68.86026083 33.7986262 68.83935547 36.09741211 C68.81261677 39.60966235 68.83909574 43.11870909 68.87109375 46.63085938 C68.86778913 48.86719453 68.86138183 51.10352771 68.8515625 53.33984375 C68.86674423 54.91039772 68.86674423 54.91039772 68.88223267 56.51268005 C68.75206829 64.64296333 68.75206829 64.64296333 65.77099609 68.33422852 C61.78142272 71.96827669 59.68196454 71.8200695 54.33862305 71.84863281 C53.28221619 71.85608017 53.28221619 71.85608017 52.20446777 71.86367798 C49.86937489 71.87830911 47.53434998 71.88510368 45.19921875 71.890625 C43.5773773 71.89637634 41.95553587 71.90213408 40.33369446 71.90789795 C36.9298979 71.9184111 33.52612497 71.92425148 30.12231445 71.92773438 C25.7642682 71.93321517 21.406535 71.95723282 17.04858685 71.98570633 C13.6968139 72.0043475 10.34511607 72.00953913 6.99329567 72.01107025 C5.38695377 72.01409475 3.78061314 72.02211646 2.17432213 72.03525543 C-0.07583905 72.05234483 -2.32523939 72.05042884 -4.57543945 72.04394531 C-5.85514114 72.04759094 -7.13484283 72.05123657 -8.45332336 72.05499268 C-12.08857987 71.65729696 -13.92999667 70.89675319 -16.8125 68.6875 C-19.64862617 64.43331075 -19.93352541 60.66938681 -19.97363281 55.64111328 C-19.98324036 54.66304718 -19.9928479 53.68498108 -20.00274658 52.67727661 C-20.00699646 51.63135345 -20.01124634 50.5854303 -20.015625 49.5078125 C-20.02132507 48.42168671 -20.02702515 47.33556091 -20.03289795 46.21652222 C-20.04233073 43.92186452 -20.04887508 41.62719337 -20.05273438 39.33251953 C-20.06244558 35.83211561 -20.09348825 32.33229764 -20.125 28.83203125 C-20.13153009 26.59896181 -20.13678054 24.36588818 -20.140625 22.1328125 C-20.1529718 21.09093781 -20.1653186 20.04906311 -20.17803955 18.97561646 C-20.16021054 13.12764068 -19.86586563 8.75176065 -16.8125 3.6875 C-11.73361593 -0.42855744 -6.25930382 0.06429496 0 0 Z " fill="#FECA2C" transform="translate(25.8125,10.3125)"/>
<path d="M0 0 C1.09248047 -0.02384766 2.18496094 -0.04769531 3.31054688 -0.07226562 C4.35662109 -0.07033203 5.40269531 -0.06839844 6.48046875 -0.06640625 C7.43203857 -0.06713135 8.3836084 -0.06785645 9.36401367 -0.06860352 C11.8125 0.5625 11.8125 0.5625 13.58325195 2.91430664 C14.8125 5.5625 14.8125 5.5625 15.8125 8.5625 C5.5825 9.2225 -4.6475 9.8825 -15.1875 10.5625 C-15.1875 11.2225 -15.1875 11.8825 -15.1875 12.5625 C-16.1775 12.8925 -17.1675 13.2225 -18.1875 13.5625 C-18.35051505 12.14970294 -18.4663797 10.73141872 -18.5625 9.3125 C-18.63210937 8.52359375 -18.70171875 7.7346875 -18.7734375 6.921875 C-18.1875 4.5625 -18.1875 4.5625 -15.92578125 2.30078125 C-11.0690068 -0.56534717 -5.46458376 -0.0553953 0 0 Z " fill="#FB9E06" transform="translate(26.1875,10.4375)"/>
<path d="M0 0 C0.33 0 0.66 0 1 0 C2.16420623 6.55849984 2.22118066 13.06583666 2.31640625 19.71484375 C2.33718735 20.92572159 2.35796844 22.13659943 2.37937927 23.38417053 C2.44453024 27.2352251 2.50359914 31.08634527 2.5625 34.9375 C2.605718 37.55534521 2.64933332 40.17318388 2.69335938 42.79101562 C2.80017619 49.19394195 2.90200535 55.5969329 3 62 C0.07382642 59.58272618 -0.54523197 57.73201993 -1 54 C-1.08711803 52.30368984 -1.12783241 50.6045509 -1.12939453 48.90600586 C-1.13254669 47.91825668 -1.13569885 46.93050751 -1.13894653 45.91282654 C-1.1369223 44.85749222 -1.13489807 43.8021579 -1.1328125 42.71484375 C-1.13376923 41.62160294 -1.13472595 40.52836212 -1.13571167 39.4019928 C-1.13639117 37.09473615 -1.13455294 34.78747757 -1.13037109 32.48022461 C-1.12501449 28.94705928 -1.13032656 25.41402078 -1.13671875 21.88085938 C-1.13605803 19.63802055 -1.13477699 17.39518181 -1.1328125 15.15234375 C-1.13483673 14.0949852 -1.13686096 13.03762665 -1.13894653 11.94822693 C-1.13579437 10.96362991 -1.13264221 9.9790329 -1.12939453 8.96459961 C-1.12820114 7.66817787 -1.12820114 7.66817787 -1.12698364 6.3455658 C-1.00531383 4.09815391 -0.62754792 2.15561678 0 0 Z " fill="#F5D364" transform="translate(7,17)"/>
<path d="M0 0 C0.99 0.66 1.98 1.32 3 2 C3.38095093 4.11851501 3.38095093 4.11851501 3.38818359 6.76928711 C3.39764008 7.76049057 3.40709656 8.75169403 3.4168396 9.77293396 C3.41076691 10.84688919 3.40469421 11.92084442 3.3984375 13.02734375 C3.40274277 14.67712975 3.40274277 14.67712975 3.40713501 16.36024475 C3.40917935 18.68963128 3.40362375 21.01903484 3.39111328 23.34838867 C3.37508082 26.91949813 3.39094236 30.48947306 3.41015625 34.06054688 C3.40817358 36.32031501 3.40432943 38.58008243 3.3984375 40.83984375 C3.40451019 41.91177475 3.41058289 42.98370575 3.4168396 44.08811951 C3.40738312 45.08247513 3.39792664 46.07683075 3.38818359 47.10131836 C3.38579681 47.97686874 3.38341003 48.85241913 3.38095093 49.75450134 C2.92626197 52.43464563 2.08008099 53.31727096 0 55 C-0.38133299 53.0085944 -0.71325582 51.00720923 -1 49 C-0.505 48.505 -0.505 48.505 0 48 C0.08874135 44.89748799 0.11518455 41.8173188 0.09765625 38.71484375 C0.0962413 37.78402481 0.09482635 36.85320587 0.09336853 35.8941803 C0.08775172 32.90858809 0.0751964 29.92306971 0.0625 26.9375 C0.05748716 24.91862087 0.05292388 22.89974057 0.04882812 20.88085938 C0.03777683 15.92054428 0.02050095 10.96028468 0 6 C-0.99 6.33 -1.98 6.66 -3 7 C-2.67 5.68 -2.34 4.36 -2 3 C-1.34 3 -0.68 3 0 3 C0 2.01 0 1.02 0 0 Z " fill="#FAD250" transform="translate(91,23)"/>
<path d="M0 0 C2.04119788 1.61594832 4.04072937 3.2856382 6 5 C6 5.66 6 6.32 6 7 C17.88 7 29.76 7 42 7 C42 7.33 42 7.66 42 8 C30.12 8.33 18.24 8.66 6 9 C5.67 8.01 5.34 7.02 5 6 C0.71 6 -3.58 6 -8 6 C-8 5.67 -8 5.34 -8 5 C-3.545 4.505 -3.545 4.505 1 4 C0.67 2.68 0.34 1.36 0 0 Z " fill="#F4C428" transform="translate(40,14)"/>
<path d="M0 0 C1.11890625 0.00322266 2.2378125 0.00644531 3.390625 0.00976562 C5.06898437 -0.0144043 5.06898437 -0.0144043 6.78125 -0.0390625 C8.38226562 -0.0400293 8.38226562 -0.0400293 10.015625 -0.04101562 C10.99789062 -0.04399658 11.98015625 -0.04697754 12.9921875 -0.05004883 C14.17941406 0.13424683 14.17941406 0.13424683 15.390625 0.32226562 C16.050625 1.31226563 16.710625 2.30226563 17.390625 3.32226562 C3.530625 2.82726562 3.530625 2.82726562 -10.609375 2.32226562 C-7.50709763 -0.78001175 -4.23660161 0.02814168 0 0 Z " fill="#F4B95E" transform="translate(22.609375,10.677734375)"/>
<path d="M0 0 C2 1.3125 2 1.3125 4 3 C4 3.99 4 4.98 4 6 C0.04 6 -3.92 6 -8 6 C-8 5.67 -8 5.34 -8 5 C-3.545 4.505 -3.545 4.505 1 4 C0.67 2.68 0.34 1.36 0 0 Z " fill="#F1A425" transform="translate(40,14)"/>
</svg>
