<svg width="42" height="42" viewBox="0 0 42 42" fill="none" xmlns="http://www.w3.org/2000/svg">
<path d="M19.2413 8.19V14.98C19.2413 15.5422 19.1302 16.0989 18.9146 16.6181C18.6989 17.1373 18.3828 17.6088 17.9844 18.0055C17.5861 18.4023 17.1133 18.7164 16.5932 18.93C16.0731 19.1436 15.516 19.2523 14.9538 19.25H8.19876C7.63806 19.2534 7.08245 19.1436 6.56523 18.927C6.04801 18.7105 5.57983 18.3918 5.18876 17.99C4.79171 17.5963 4.47728 17.1272 4.26392 16.6103C4.05056 16.0934 3.94256 15.5392 3.94626 14.98V8.2075C3.94625 7.07805 4.39372 5.9946 5.19072 5.19432C5.98772 4.39405 7.06932 3.94213 8.19876 3.9375H14.9713C15.5314 3.93804 16.0858 4.04968 16.6025 4.26596C17.1192 4.48224 17.5878 4.79887 17.9813 5.1975C18.3794 5.58772 18.6958 6.05329 18.9121 6.56707C19.1285 7.08084 19.2403 7.63254 19.2413 8.19ZM38.0538 8.2075V14.98C38.0447 16.1066 37.5943 17.1848 36.7992 17.9832C36.0042 18.7815 34.9279 19.2363 33.8013 19.25H27.0113C25.8794 19.2431 24.7942 18.7977 23.9838 18.0075C23.5878 17.6094 23.2742 17.137 23.061 16.6175C22.8478 16.098 22.7391 15.5415 22.7413 14.98V8.2075C22.7398 7.6471 22.8506 7.09207 23.067 6.57513C23.2834 6.05819 23.601 5.58978 24.0013 5.1975C24.3947 4.79887 24.8634 4.48224 25.38 4.26596C25.8967 4.04968 26.4511 3.93804 27.0113 3.9375H33.7838C34.9134 3.94665 35.9942 4.39946 36.793 5.19826C37.5918 5.99707 38.0446 7.07785 38.0538 8.2075ZM38.0538 27.02V33.7925C38.0447 34.9191 37.5943 35.9973 36.7992 36.7957C36.0042 37.594 34.9279 38.0488 33.8013 38.0625H27.0113C25.8722 38.0741 24.7735 37.6409 23.9488 36.855C23.5512 36.458 23.2366 35.9859 23.0233 35.4661C22.8099 34.9463 22.7022 34.3893 22.7063 33.8275V27.055C22.7048 26.4946 22.8156 25.9396 23.032 25.4226C23.2484 24.9057 23.566 24.4373 23.9663 24.045C24.3597 23.6464 24.8284 23.3297 25.345 23.1135C25.8617 22.8972 26.4161 22.7855 26.9763 22.785H33.7488C34.8784 22.7941 35.9592 23.247 36.758 24.0458C37.5568 24.8446 38.0096 25.9254 38.0188 27.055L38.0538 27.02ZM19.2413 27.0375V33.81C19.2275 34.9396 18.7703 36.0185 17.9682 36.8141C17.1661 37.6096 16.0834 38.058 14.9538 38.0625H8.19876C7.63966 38.0648 7.08564 37.9564 6.56866 37.7435C6.05168 37.5306 5.58197 37.2175 5.18663 36.8221C4.79128 36.4268 4.47813 35.9571 4.26525 35.4401C4.05236 34.9231 3.94394 34.3691 3.94626 33.81V27.0375C3.95077 25.9078 4.39915 24.8252 5.19468 24.0231C5.99021 23.221 7.06915 22.7638 8.19876 22.75H14.9713C16.1056 22.7616 17.1911 23.2134 17.9988 24.01C18.7969 24.8152 19.2437 25.9037 19.2413 27.0375Z" fill="#3B82F6"/>
</svg>
