<svg width="188" height="140" viewBox="0 0 188 140" fill="none" xmlns="http://www.w3.org/2000/svg">
<path d="M187.889 123.03H0V123.124H187.889V123.03Z" fill="#E6E6E6"/>
<path d="M176.015 126.344H168.961V126.438H176.015V126.344Z" fill="#E6E6E6"/>
<path d="M143.457 128.922H140.192V129.016H143.457V128.922Z" fill="#E6E6E6"/>
<path d="M112.478 127.626H105.203V127.72H112.478V127.626Z" fill="#E6E6E6"/>
<path d="M46.6416 127.577H30.4117V127.671H46.6416V127.577Z" fill="#E6E6E6"/>
<path d="M27.0673 127.577H24.6887V127.671H27.0673V127.577Z" fill="#E6E6E6"/>
<path d="M106.338 125.352H71.1348V125.446H106.338V125.352Z" fill="#E6E6E6"/>
<path d="M89.0594 106.27H16.5004C15.932 106.269 15.3872 106.043 14.9856 105.64C14.584 105.238 14.3585 104.693 14.3585 104.124V2.12691C14.3634 1.56174 14.5911 1.02136 14.9922 0.623123C15.3932 0.224888 15.9352 0.000968151 16.5004 0H89.0594C89.6285 0 90.1743 0.226064 90.5767 0.628459C90.9791 1.03086 91.2051 1.57662 91.2051 2.14569V104.124C91.2051 104.693 90.9791 105.239 90.5767 105.642C90.1743 106.044 89.6285 106.27 89.0594 106.27ZM16.5004 0.075156C15.9569 0.0761514 15.436 0.292756 15.052 0.677426C14.6681 1.0621 14.4524 1.5834 14.4524 2.12691V104.124C14.4524 104.668 14.6681 105.189 15.052 105.574C15.436 105.959 15.9569 106.175 16.5004 106.176H89.0594C89.6033 106.175 90.1246 105.959 90.5091 105.574C90.8937 105.19 91.1102 104.668 91.1112 104.124V2.12691C91.1102 1.58305 90.8937 1.06176 90.5091 0.677196C90.1246 0.292634 89.6033 0.0761493 89.0594 0.075156H16.5004Z" fill="#E6E6E6"/>
<path d="M170.344 106.27H97.7813C97.2125 106.269 96.6673 106.043 96.2651 105.641C95.8629 105.238 95.6366 104.693 95.6356 104.124V2.12691C95.6415 1.5614 95.8701 1.02102 96.2717 0.622887C96.6734 0.224756 97.2157 0.000957592 97.7813 0H170.344C170.909 0.00195574 171.45 0.226312 171.85 0.624441C172.25 1.02257 172.477 1.56239 172.482 2.12691V104.124C172.482 104.692 172.257 105.237 171.856 105.639C171.456 106.041 170.912 106.268 170.344 106.27ZM97.7813 0.075156C97.2374 0.0761493 96.7161 0.292634 96.3315 0.677196C95.947 1.06176 95.7305 1.58305 95.7295 2.12691V104.124C95.7305 104.668 95.947 105.19 96.3315 105.574C96.7161 105.959 97.2374 106.175 97.7813 106.176H170.344C170.888 106.175 171.409 105.959 171.794 105.574C172.178 105.19 172.395 104.668 172.396 104.124V2.12691C172.395 1.58305 172.178 1.06176 171.794 0.677196C171.409 0.292634 170.888 0.0761493 170.344 0.075156H97.7813Z" fill="#E6E6E6"/>
<path d="M98.0631 7.01955H22.062V61.1805H98.0631V7.01955Z" fill="#FAFAFA"/>
<path d="M99.4685 7.01955H22.7195V61.1805H99.4685V7.01955Z" fill="#F5F5F5"/>
<path d="M97.4995 58.9671V9.22911L24.6887 9.22911V58.9671L97.4995 58.9671Z" fill="#FAFAFA"/>
<path d="M37.9462 58.9671L49.4976 9.22911H64.6415L53.09 58.9671H37.9462Z" fill="white"/>
<path d="M55.54 58.9671L67.0952 9.22911H73.9344L62.3792 58.9671H55.54Z" fill="white"/>
<path d="M97.4995 58.9671V9.22911H97.2477V58.9671H97.4995Z" fill="#FAFAFA"/>
<path d="M20.5851 6.92935V28.3938H26.2632C26.2632 28.3938 36.4505 21.7388 38.7841 8.04916C38.8406 7.7213 38.8247 7.38503 38.7373 7.064C38.6499 6.74298 38.4932 6.445 38.2783 6.19103C38.0634 5.93706 37.7954 5.73327 37.4933 5.594C37.1911 5.45472 36.8621 5.38335 36.5294 5.3849H22.1296C21.72 5.3849 21.3271 5.54761 21.0375 5.83725C20.7479 6.1269 20.5851 6.51973 20.5851 6.92935Z" fill="#E0E0E0"/>
<path d="M20.5851 67.8055V30.1262H26.2632C26.2632 30.1262 37.7883 52.3159 39.1223 67.8055H20.5851Z" fill="#E0E0E0"/>
<path d="M26.0978 28.3938H20.7919C20.4785 28.3938 20.2244 28.6478 20.2244 28.9612V29.5587C20.2244 29.8721 20.4785 30.1261 20.7919 30.1261H26.0978C26.4112 30.1261 26.6653 29.8721 26.6653 29.5587V28.9612C26.6653 28.6478 26.4112 28.3938 26.0978 28.3938Z" fill="#F5F5F5"/>
<path d="M101.084 6.92936V28.3938H95.395C95.395 28.3938 85.1927 21.7388 82.8741 8.04918C82.8182 7.72141 82.8347 7.38538 82.9223 7.06464C83.01 6.7439 83.1667 6.4462 83.3815 6.19239C83.5963 5.93858 83.864 5.73479 84.1658 5.59531C84.4676 5.45583 84.7963 5.38402 85.1288 5.38491H99.5436C99.9523 5.38689 100.344 5.55037 100.632 5.83969C100.921 6.129 101.083 6.5207 101.084 6.92936Z" fill="#E0E0E0"/>
<path d="M101.084 67.8055V30.1262H95.3951C95.3951 30.1262 83.8738 52.3159 82.536 67.8055H101.084Z" fill="#E0E0E0"/>
<path d="M95.5604 30.1224H100.866C101.18 30.1224 101.434 29.8683 101.434 29.555V28.9575C101.434 28.6441 101.18 28.3901 100.866 28.3901H95.5604C95.247 28.3901 94.993 28.6441 94.993 28.9575V29.555C94.993 29.8683 95.247 30.1224 95.5604 30.1224Z" fill="#F5F5F5"/>
<path d="M99.3671 74.6522H86.88V123.03H99.3671V74.6522Z" fill="#FAFAFA"/>
<path d="M96.0339 123.03H99.3671V117.442H92.5392L96.0339 123.03Z" fill="#F4F8FF"/>
<path d="M39.6258 74.6522H27.1387V123.03H39.6258V74.6522Z" fill="#E0E0E0"/>
<path d="M99.367 74.6522H36.7173V121.106H99.367V74.6522Z" fill="#FAFAFA"/>
<path d="M55.54 66.4376C55.54 70.947 59.884 74.6521 65.1975 74.6521H69.9925C75.3022 74.6521 79.6462 70.9545 79.6462 66.4376H55.54Z" fill="#EBEBEB"/>
<path d="M52.7593 56.115H61.7779C61.7779 56.115 60.211 60.2485 60.211 62.6836C60.211 65.1186 67.0727 74.6521 57.2686 74.6521C47.4646 74.6521 54.3263 65.1149 54.3263 62.6836C54.3263 60.2523 52.7593 56.115 52.7593 56.115Z" fill="#E0E0E0"/>
<path d="M96.7817 77.4818H39.3027V89.1948H96.7817V77.4818Z" fill="#EBEBEB"/>
<path d="M40.0504 123.03H36.7173V117.442H43.5489L40.0504 123.03Z" fill="#FAFAFA"/>
<path d="M66.2761 83.3363C66.2761 83.6857 66.3796 84.0271 66.5737 84.3176C66.7678 84.608 67.0436 84.8344 67.3663 84.9681C67.6891 85.1017 68.0442 85.1367 68.3868 85.0686C68.7294 85.0004 69.0441 84.8322 69.2911 84.5852C69.5381 84.3382 69.7063 84.0235 69.7744 83.6809C69.8426 83.3383 69.8076 82.9832 69.6739 82.6605C69.5403 82.3377 69.3139 82.0619 69.0234 81.8678C68.733 81.6738 68.3915 81.5702 68.0422 81.5702C67.5738 81.5702 67.1246 81.7563 66.7934 82.0875C66.4621 82.4187 66.2761 82.8679 66.2761 83.3363Z" fill="#FAFAFA"/>
<path d="M96.7817 92.0244H39.3027V103.737H96.7817V92.0244Z" fill="#EBEBEB"/>
<path d="M66.2761 97.879C66.2761 98.2283 66.3796 98.5698 66.5737 98.8602C66.7678 99.1507 67.0436 99.377 67.3663 99.5107C67.6891 99.6444 68.0442 99.6794 68.3868 99.6112C68.7294 99.5431 69.0441 99.3748 69.2911 99.1278C69.5381 98.8808 69.7063 98.5662 69.7744 98.2235C69.8426 97.8809 69.8076 97.5258 69.6739 97.2031C69.5403 96.8804 69.3139 96.6046 69.0234 96.4105C68.733 96.2164 68.3915 96.1128 68.0422 96.1128C67.5738 96.1128 67.1246 96.2989 66.7934 96.6301C66.4621 96.9613 66.2761 97.4106 66.2761 97.879Z" fill="#FAFAFA"/>
<path d="M96.7817 106.563H39.3027V118.276H96.7817V106.563Z" fill="#EBEBEB"/>
<path d="M68.0422 114.188C69.0176 114.188 69.8084 113.397 69.8084 112.422C69.8084 111.446 69.0176 110.655 68.0422 110.655C67.0668 110.655 66.2761 111.446 66.2761 112.422C66.2761 113.397 67.0668 114.188 68.0422 114.188Z" fill="#FAFAFA"/>
<path d="M138.993 6.36569H111.099V26.2218H138.993V6.36569Z" fill="#E0E0E0"/>
<path d="M141.27 6.36569H112.685V26.2218H141.27V6.36569Z" fill="#F5F5F5"/>
<path d="M139.448 24.3993V8.1882L114.507 8.1882V24.3993H139.448Z" fill="white"/>
<path d="M135.058 19.6758V12.908L118.896 12.908V19.6758H135.058Z" fill="#F5F5F5"/>
<path d="M161.622 16.2937H144.645V34.0981H161.622V16.2937Z" fill="#E0E0E0"/>
<path d="M163.907 16.2937H146.234V34.0981H163.907V16.2937Z" fill="#F5F5F5"/>
<path d="M162.085 32.2756V18.1163H148.057V32.2756H162.085Z" fill="white"/>
<path d="M152.446 25.1959C152.446 24.5707 152.694 23.971 153.136 23.5286C153.577 23.0861 154.177 22.837 154.802 22.836H155.336C155.961 22.837 156.56 23.0861 157.002 23.5286C157.444 23.971 157.692 24.5707 157.692 25.1959C157.692 25.8208 157.443 26.4201 157.002 26.862C156.56 27.3038 155.96 27.5521 155.336 27.5521H154.821C154.51 27.5545 154.201 27.4954 153.913 27.3781C153.625 27.2608 153.363 27.0877 153.143 26.8686C152.922 26.6496 152.747 26.389 152.627 26.1019C152.507 25.8149 152.446 25.5069 152.446 25.1959Z" fill="#F5F5F5"/>
<path d="M187.889 40.1519H143.059H134.908V50.5121H126.758V60.8723H118.607V71.2325H110.456V81.5928H102.306V91.9492H94.155V102.309H86.0044V112.67H77.8538V123.03H86.0044H187.889V40.1519Z" fill="#FAFAFA"/>
<path d="M123.473 112.67H77.0157V115.777H123.473V112.67Z" fill="#EBEBEB"/>
<path d="M131.624 102.309H85.1664V105.417H131.624V102.309Z" fill="#EBEBEB"/>
<path d="M139.774 91.9492H93.317V95.0569H139.774V91.9492Z" fill="#EBEBEB"/>
<path d="M147.925 81.589H101.468V84.6967H147.925V81.589Z" fill="#EBEBEB"/>
<path d="M156.076 71.2325H109.618V74.3402H156.076V71.2325Z" fill="#EBEBEB"/>
<path d="M164.226 60.8723H117.769V63.98H164.226V60.8723Z" fill="#EBEBEB"/>
<path d="M172.377 50.5121H125.92V53.6198H172.377V50.5121Z" fill="#EBEBEB"/>
<path d="M180.528 40.1519H134.07V43.2596H180.528V40.1519Z" fill="#EBEBEB"/>
<path d="M179.739 40.1519V50.5121H171.588V60.8723H163.437V71.2325H155.287V81.5928H147.136V91.9492H138.985V102.309H130.835V112.67H122.684V123.03H130.835H187.889V50.5121V40.1519H179.739Z" fill="white"/>
<path d="M93.9446 140C134.184 140 166.804 138.095 166.804 135.746C166.804 133.397 134.184 131.492 93.9446 131.492C53.7053 131.492 21.0849 133.397 21.0849 135.746C21.0849 138.095 53.7053 140 93.9446 140Z" fill="#F5F5F5"/>
<path d="M137.215 40.2083C137.742 41.9707 140.455 45.27 140.669 47.6712C140.883 50.0725 136.257 53.9129 136.257 53.9129C136.257 53.9129 132.8 42.354 134.965 41.0049C137.129 39.6559 137.215 40.2083 137.215 40.2083Z" fill="#263238"/>
<path d="M127.716 52.6954C126.896 53.3793 126.092 53.9543 125.254 54.5442C124.416 55.1342 123.552 55.6716 122.673 56.1751C121.79 56.6973 120.881 57.1727 119.948 57.5993C119.475 57.8135 119.005 58.0239 118.517 58.2081C118.276 58.3058 118.032 58.3997 117.784 58.4824L117.032 58.7454C116.39 58.9251 115.717 58.9737 115.056 58.8882C114.503 58.8235 113.955 58.718 113.417 58.5726C112.415 58.2953 111.434 57.9462 110.483 57.5279C108.635 56.7211 106.852 55.7726 105.15 54.6908L105.853 53.3831C106.74 53.7589 107.649 54.1346 108.551 54.4616C109.453 54.7885 110.362 55.1342 111.272 55.416C112.158 55.7066 113.062 55.9425 113.977 56.1225C114.398 56.2047 114.823 56.2562 115.251 56.2766C115.57 56.3013 115.891 56.2682 116.198 56.1789C117.055 55.8508 117.894 55.4745 118.708 55.0515C119.125 54.8336 119.539 54.6119 119.945 54.3714C120.35 54.1309 120.764 53.8979 121.166 53.6499C121.974 53.1501 122.763 52.6203 123.545 52.0754C124.326 51.5305 125.104 50.948 125.799 50.3956L127.716 52.6954Z" fill="#E58A7B"/>
<path d="M129.7 48.6933C128.768 47.9643 124.913 50.3505 123.744 51.3463L124.597 56.5058C124.597 56.5058 130.14 54.1835 130.47 52.5977C130.82 50.9405 130.395 49.2495 129.7 48.6933Z" fill="#407BFF"/>
<path opacity="0.2" d="M129.7 48.6933C128.768 47.9643 124.913 50.3505 123.744 51.3463L124.597 56.5058C124.597 56.5058 130.14 54.1835 130.47 52.5977C130.82 50.9405 130.395 49.2495 129.7 48.6933Z" fill="black"/>
<path d="M142.668 64.307L130.966 66.5879C124.92 50.2153 126.235 49.6779 126.235 49.6779C127.086 49.2106 127.964 48.7965 128.866 48.4378L129.023 48.3777C129.775 48.1034 129.925 48.0621 130.925 47.7689C132.646 47.3593 134.251 47.0174 136.238 46.7356L136.614 46.6829C136.99 46.6379 137.332 46.6003 137.678 46.5665C137.911 46.5402 138.144 46.5251 138.365 46.5101L139.117 46.4688C140.402 46.4049 141.323 46.4237 141.323 46.4237C140.966 56.6486 141.544 59.5834 142.668 64.307Z" fill="#407BFF"/>
<path opacity="0.2" d="M142.668 64.307L130.966 66.5879C124.92 50.2153 126.235 49.6779 126.235 49.6779C127.086 49.2106 127.964 48.7965 128.866 48.4378L129.023 48.3777C129.775 48.1034 129.925 48.0621 130.925 47.7689C132.646 47.3593 134.251 47.0174 136.238 46.7356L136.614 46.6829C136.99 46.6379 137.332 46.6003 137.678 46.5665C137.911 46.5402 138.144 46.5251 138.365 46.5101L139.117 46.4688C140.402 46.4049 141.323 46.4237 141.323 46.4237C140.966 56.6486 141.544 59.5834 142.668 64.307Z" fill="black"/>
<path d="M133.503 41.3845C132.751 42.6283 135.476 43.2032 137.088 41.9293C138.377 40.9072 138.072 38.5473 136.967 37.9987C135.863 37.4501 133.503 41.3845 133.503 41.3845Z" fill="#407BFF"/>
<path opacity="0.4" d="M133.503 41.3845C132.751 42.6283 135.476 43.2032 137.088 41.9293C138.377 40.9072 138.072 38.5473 136.967 37.9987C135.863 37.4501 133.503 41.3845 133.503 41.3845Z" fill="black"/>
<path d="M144.893 132.075L141.965 132.293L140.894 125.555L143.822 125.337L144.893 132.075Z" fill="#E58A7B"/>
<path d="M165.598 122.658L163.114 124.221L158.691 118.975L161.175 117.408L165.598 122.658Z" fill="#E58A7B"/>
<path d="M140.894 125.555L141.488 129.298L144.374 128.813L143.825 125.341L140.894 125.555Z" fill="#CF6F64"/>
<path d="M161.179 117.412L158.691 118.975L160.525 121.147L163.065 119.648L161.179 117.412Z" fill="#CF6F64"/>
<path d="M131.147 66.5879C131.147 66.5879 131.105 89.8185 133.003 98.5667C134.98 107.668 140.793 128.373 140.793 128.373L145.009 127.829C145.009 127.829 141.714 106.913 140.308 97.8677C138.779 88.011 139.718 64.9195 139.718 64.9195L131.147 66.5879Z" fill="#407BFF"/>
<path opacity="0.7" d="M131.147 66.5879C131.147 66.5879 131.105 89.8185 133.003 98.5667C134.98 107.668 140.793 128.373 140.793 128.373L145.009 127.829C145.009 127.829 141.714 106.913 140.308 97.8677C138.779 88.011 139.718 64.9195 139.718 64.9195L131.147 66.5879Z" fill="black"/>
<path opacity="0.5" d="M139.455 75.2158L137.388 73.1565C137.467 82.0813 137.967 86.4891 139.684 91.2916C139.414 86.2148 139.391 80.2099 139.455 75.2158Z" fill="black"/>
<path d="M134.055 65.9867C134.055 65.9867 140.357 85.1852 143.483 96.2444C146.783 107.912 159.431 120.817 159.431 120.817L163.062 118.72C163.062 118.72 154.419 106.469 151.24 95.583C144.776 73.4835 147.433 68.8013 142.664 64.307L134.055 65.9867Z" fill="#407BFF"/>
<path opacity="0.7" d="M134.055 65.9867C134.055 65.9867 140.357 85.1852 143.483 96.2444C146.783 107.912 159.431 120.817 159.431 120.817L163.062 118.72C163.062 118.72 154.419 106.469 151.24 95.583C144.776 73.4835 147.433 68.8013 142.664 64.307L134.055 65.9867Z" fill="black"/>
<path d="M129.102 34.6054C130.778 35.1653 132.3 39.3252 132.364 40.9636C132.428 42.602 127.509 44.8604 127.509 44.8604C127.509 44.8604 125.341 39.5995 125.946 36.2175C126.209 34.7482 129.102 34.6054 129.102 34.6054Z" fill="#263238"/>
<path d="M106.101 53.5221L104.113 51.3576L103.463 54.0708C103.463 54.0708 104.876 55.3183 106.018 54.89L106.101 53.5221Z" fill="#E58A7B"/>
<path d="M102.099 50.7376L100.709 51.8424L103.463 54.0707L104.113 51.3576L102.099 50.7376Z" fill="#E58A7B"/>
<path d="M162.336 123.661L164.659 121.32C164.699 121.28 164.752 121.256 164.808 121.252C164.865 121.247 164.921 121.264 164.967 121.298L167.082 122.868C167.135 122.909 167.178 122.961 167.209 123.02C167.24 123.079 167.258 123.144 167.261 123.21C167.265 123.277 167.255 123.343 167.231 123.405C167.208 123.468 167.171 123.524 167.124 123.571C166.297 124.371 165.861 124.717 164.839 125.747C164.211 126.382 163.358 127.37 162.49 128.246C161.622 129.121 160.709 128.306 160.987 127.87C162.254 125.89 162.028 125.149 162.115 124.142C162.128 123.96 162.206 123.789 162.336 123.661Z" fill="#263238"/>
<path d="M141.77 131.872H145.069C145.127 131.872 145.183 131.892 145.228 131.929C145.273 131.966 145.303 132.018 145.313 132.075L145.832 134.683C145.844 134.747 145.841 134.813 145.824 134.876C145.807 134.939 145.777 134.997 145.735 135.047C145.693 135.097 145.64 135.137 145.581 135.164C145.522 135.192 145.458 135.206 145.392 135.205C144.239 135.186 143.683 135.119 142.232 135.119C141.341 135.119 139.5 135.209 138.268 135.209C137.035 135.209 136.904 133.991 137.411 133.882C139.666 133.386 140.549 132.706 141.289 132.052C141.423 131.938 141.593 131.874 141.77 131.872Z" fill="#263238"/>
<g style="mix-blend-mode:multiply" opacity="0.27">
<path d="M141.702 52.3497L139.899 53.4244L141.98 61.2519C141.526 58.8807 141.729 56.2766 141.702 52.3497Z" fill="#407BFF"/>
</g>
<path d="M131.451 40.1293C132.732 41.2003 134.593 42.7598 136.783 40.9373C138.662 39.3665 139.977 35.2442 136.607 35.0939C134.844 35.015 131.451 40.1293 131.451 40.1293Z" fill="#263238"/>
<path d="M134.547 40.8622C134.547 42.6358 134.822 45.8337 136.238 46.7431C136.238 46.7431 136.111 48.5694 132.932 49.1856C129.441 49.8658 130.925 47.7765 130.925 47.7765C132.744 46.9498 132.428 45.5443 131.827 44.2817L134.547 40.8622Z" fill="#E58A7B"/>
<path d="M133.439 42.2563L131.831 44.2817C131.971 44.5745 132.087 44.8787 132.176 45.1911C132.883 44.9431 133.728 43.951 133.657 43.1732C133.641 42.8567 133.568 42.5458 133.439 42.2563Z" fill="#CF6F64"/>
<path d="M134.716 36.7887C135.092 39.6784 135.321 40.8922 134.164 42.6396C132.424 45.27 128.794 45.1009 127.558 42.384C126.431 39.9377 126.01 35.62 128.58 33.9478C129.145 33.5737 129.797 33.3504 130.473 33.2992C131.148 33.248 131.826 33.3706 132.441 33.6554C133.056 33.9401 133.588 34.3775 133.987 34.926C134.385 35.4744 134.636 36.1157 134.716 36.7887Z" fill="#E58A7B"/>
<path d="M129.696 31.727C127.742 33.1136 131.661 33.5232 131.665 35.5336C131.665 36.3641 133.029 38.9983 134.968 38.848L136.847 35.511C138.824 32.3169 134.153 28.5591 129.696 31.727Z" fill="#263238"/>
<path d="M129.696 31.727C126.258 31.5466 124.758 34.2823 125.153 36.7399C127.552 36.1418 130.033 35.945 132.496 36.1574C137.208 36.6384 129.696 31.727 129.696 31.727Z" fill="#263238"/>
<path d="M135.656 39.2801C135.704 39.841 135.527 40.3979 135.164 40.8283C134.679 41.3957 134.036 41.0613 133.811 40.3886C133.619 39.7799 133.642 38.754 134.296 38.4308C134.44 38.364 134.599 38.3342 134.758 38.3442C134.917 38.3541 135.07 38.4034 135.205 38.4877C135.34 38.572 135.452 38.6886 135.531 38.8269C135.61 38.9652 135.653 39.121 135.656 39.2801Z" fill="#E58A7B"/>
<path d="M130.542 38.4311C130.587 38.6642 130.501 38.8748 130.35 38.9048C130.2 38.9349 130.038 38.7695 129.993 38.5288C129.948 38.2882 130.034 38.0814 130.185 38.0513C130.335 38.0212 130.497 38.198 130.542 38.4311Z" fill="#263238"/>
<path d="M127.915 38.9421C127.96 39.1753 127.874 39.3896 127.724 39.4197C127.573 39.4497 127.411 39.2843 127.366 39.0437C127.321 38.803 127.408 38.5962 127.558 38.5699C127.709 38.5436 127.87 38.7053 127.915 38.9421Z" fill="#263238"/>
<path d="M127.63 38.5737L127.039 38.5248C127.039 38.5248 127.412 38.9046 127.63 38.5737Z" fill="#263238"/>
<path d="M128.689 39.2087C128.583 39.778 128.401 40.3304 128.148 40.8509C128.283 40.9137 128.429 40.9462 128.578 40.9462C128.727 40.9462 128.874 40.9137 129.008 40.8509L128.689 39.2087Z" fill="#DF5753"/>
<path d="M129.989 41.6031C129.973 41.6034 129.957 41.5978 129.945 41.5875C129.933 41.5771 129.924 41.5627 129.922 41.5467C129.92 41.5378 129.92 41.5287 129.922 41.5199C129.924 41.511 129.928 41.5027 129.933 41.4953C129.938 41.488 129.945 41.4817 129.953 41.477C129.96 41.4723 129.969 41.4691 129.978 41.4678C130.269 41.4172 130.543 41.299 130.78 41.1226C131.016 40.9462 131.208 40.7167 131.339 40.4526C131.343 40.4442 131.348 40.4365 131.354 40.4301C131.36 40.4237 131.368 40.4186 131.376 40.4151C131.385 40.4116 131.394 40.4098 131.403 40.4098C131.412 40.4097 131.421 40.4115 131.429 40.415C131.438 40.4184 131.445 40.4235 131.452 40.4299C131.458 40.4363 131.463 40.4439 131.467 40.4523C131.47 40.4607 131.472 40.4697 131.472 40.4787C131.472 40.4878 131.47 40.4968 131.467 40.5052C131.329 40.7922 131.124 41.0419 130.87 41.233C130.615 41.4241 130.318 41.5511 130.004 41.6031H129.989Z" fill="#263238"/>
<path d="M131.147 37.4316C131.113 37.432 131.08 37.42 131.053 37.3978C130.927 37.2776 130.774 37.189 130.606 37.1393C130.439 37.0897 130.262 37.0803 130.091 37.112C130.053 37.1215 130.013 37.1156 129.979 37.0955C129.946 37.0754 129.922 37.0428 129.912 37.0049C129.903 36.967 129.909 36.9269 129.929 36.8934C129.949 36.8599 129.982 36.8358 130.019 36.8263C130.236 36.7836 130.46 36.7931 130.673 36.8539C130.885 36.9147 131.08 37.0251 131.241 37.176C131.267 37.202 131.282 37.2371 131.282 37.2737C131.282 37.3103 131.267 37.3454 131.241 37.3715C131.231 37.3876 131.217 37.4013 131.201 37.4117C131.185 37.4221 131.166 37.4289 131.147 37.4316Z" fill="#263238"/>
<path d="M126.461 37.9542C126.443 37.9581 126.425 37.9581 126.408 37.9542C126.391 37.9472 126.375 37.9369 126.362 37.9238C126.349 37.9107 126.339 37.8951 126.332 37.8779C126.325 37.8608 126.321 37.8424 126.321 37.8238C126.322 37.8053 126.326 37.787 126.333 37.77C126.413 37.5643 126.541 37.3809 126.707 37.235C126.872 37.0891 127.07 36.985 127.284 36.9315C127.302 36.9277 127.321 36.9277 127.339 36.9314C127.357 36.935 127.374 36.9424 127.389 36.953C127.405 36.9635 127.417 36.9771 127.427 36.9928C127.437 37.0085 127.443 37.026 127.446 37.0443C127.45 37.0621 127.45 37.0805 127.446 37.0984C127.443 37.1162 127.436 37.1332 127.426 37.1483C127.416 37.1634 127.402 37.1763 127.387 37.1862C127.372 37.1961 127.355 37.2028 127.337 37.206C127.168 37.2521 127.012 37.3369 126.881 37.4537C126.751 37.5705 126.649 37.7161 126.585 37.879C126.573 37.9015 126.555 37.9203 126.533 37.9335C126.511 37.9468 126.486 37.9539 126.461 37.9542Z" fill="#263238"/>
<path d="M161.465 125.026C161.4 125.024 161.337 125.007 161.281 124.975C161.224 124.944 161.177 124.899 161.141 124.845C161.114 124.813 161.097 124.775 161.089 124.734C161.082 124.693 161.086 124.651 161.1 124.612C161.231 124.259 162.269 124.033 162.386 124.007C162.399 124.004 162.413 124.006 162.426 124.011C162.439 124.017 162.449 124.026 162.457 124.037C162.465 124.048 162.469 124.061 162.469 124.075C162.469 124.088 162.465 124.101 162.457 124.112C162.254 124.447 161.856 125.007 161.483 125.026H161.465ZM162.25 124.18C161.841 124.285 161.299 124.473 161.231 124.661C161.225 124.678 161.223 124.697 161.227 124.715C161.231 124.733 161.241 124.75 161.254 124.763C161.277 124.801 161.31 124.833 161.35 124.855C161.39 124.877 161.434 124.888 161.48 124.887C161.679 124.875 161.961 124.616 162.25 124.18Z" fill="#407BFF"/>
<path d="M162.081 124.18C161.705 124.18 161.235 124.086 161.096 123.883C161.065 123.837 161.051 123.782 161.056 123.726C161.061 123.671 161.084 123.619 161.122 123.579C161.155 123.537 161.197 123.502 161.244 123.478C161.292 123.453 161.344 123.439 161.397 123.436H161.427C161.848 123.436 162.427 124.003 162.45 124.026C162.459 124.034 162.465 124.045 162.469 124.057C162.472 124.069 162.472 124.082 162.469 124.094C162.465 124.105 162.459 124.116 162.45 124.124C162.442 124.133 162.431 124.139 162.42 124.143C162.309 124.169 162.195 124.182 162.081 124.18ZM161.427 123.575H161.404C161.371 123.576 161.338 123.585 161.308 123.6C161.278 123.616 161.252 123.638 161.232 123.665C161.179 123.736 161.194 123.778 161.213 123.804C161.326 123.977 161.901 124.075 162.254 124.034C162.029 123.804 161.741 123.644 161.427 123.575Z" fill="#407BFF"/>
<path d="M140.691 132.387C140.439 132.409 140.186 132.346 139.974 132.206C139.923 132.167 139.884 132.116 139.859 132.058C139.834 131.999 139.824 131.935 139.831 131.872C139.831 131.834 139.84 131.797 139.859 131.764C139.877 131.731 139.904 131.704 139.936 131.684C140.282 131.481 141.492 132.082 141.627 132.15C141.64 132.157 141.65 132.167 141.657 132.18C141.664 132.193 141.666 132.207 141.665 132.221C141.663 132.236 141.657 132.249 141.648 132.26C141.638 132.27 141.626 132.278 141.612 132.282C141.309 132.345 141.001 132.38 140.691 132.387ZM140.135 131.778C140.091 131.775 140.047 131.784 140.007 131.804C139.995 131.811 139.984 131.821 139.978 131.834C139.971 131.847 139.968 131.861 139.97 131.876C139.966 131.918 139.973 131.961 139.989 132C140.005 132.039 140.031 132.074 140.064 132.101C140.252 132.263 140.736 132.289 141.375 132.184C140.987 131.98 140.568 131.843 140.135 131.778Z" fill="#407BFF"/>
<path d="M141.598 132.275H141.571C141.195 132.113 140.47 131.474 140.522 131.147C140.522 131.072 140.59 130.974 140.778 130.955H140.834C141.489 130.955 141.658 132.151 141.665 132.203C141.667 132.216 141.666 132.229 141.661 132.241C141.656 132.252 141.649 132.263 141.639 132.271C141.626 132.276 141.612 132.277 141.598 132.275ZM140.846 131.087H140.804C140.684 131.087 140.676 131.143 140.676 131.158C140.646 131.357 141.143 131.857 141.519 132.079C141.444 131.786 141.252 131.094 140.831 131.094L140.846 131.087Z" fill="#407BFF"/>
<path d="M130.256 38.0626L129.666 38.01C129.666 38.01 130.038 38.3935 130.256 38.0626Z" fill="#263238"/>
<path d="M132.838 51.6846C126.551 53.0862 128.494 49.2833 128.869 48.4454L129.027 48.3852C129.779 48.1109 129.929 48.0696 130.929 47.7765C132.673 47.3056 134.449 46.9603 136.242 46.7431L136.618 46.6905C136.994 46.6416 137.336 46.604 137.681 46.574C137.914 46.5477 138.147 46.5326 138.369 46.5176L139.121 46.4725C139.248 47.0587 139.56 50.1927 132.838 51.6846Z" fill="#E58A7B"/>
<path d="M142.706 63.5855L143.438 64.5324C143.495 64.6038 143.416 64.7053 143.28 64.7316L131.008 67.1215C130.902 67.1441 130.805 67.1215 130.786 67.0426L130.474 66.0167C130.474 65.9453 130.534 65.8664 130.647 65.8439L142.499 63.5366C142.535 63.5261 142.572 63.525 142.609 63.5336C142.645 63.5422 142.678 63.56 142.706 63.5855Z" fill="#26395A"/>
<path d="M141.372 65.221L141.692 65.1608C141.755 65.1608 141.797 65.1082 141.786 65.0668L141.372 63.7358C141.372 63.6944 141.297 63.6756 141.233 63.6869L140.917 63.7471C140.853 63.7471 140.812 63.8035 140.823 63.8411L141.237 65.1759C141.248 65.2135 141.312 65.236 141.372 65.221Z" fill="#407BFF"/>
<path d="M134.183 69.6543L131.737 68.7449L132.112 71.071C132.112 71.071 133.886 71.7098 134.792 70.8906L134.183 69.6543Z" fill="#E58A7B"/>
<path d="M129.407 69.3612L128.824 70.8868L132.112 71.071L131.737 68.7449L129.407 69.3612Z" fill="#E58A7B"/>
<path d="M131.921 67.0623L132.241 67.0021C132.301 67.0021 132.346 66.9495 132.331 66.9081L131.917 65.5771C131.917 65.5357 131.846 65.5169 131.782 65.5282L131.462 65.5884C131.398 65.5884 131.357 65.6448 131.372 65.6824L131.786 67.0172C131.797 67.0548 131.857 67.0773 131.921 67.0623Z" fill="#407BFF"/>
<path d="M136.648 66.1379L136.964 66.0777C137.028 66.0777 137.07 66.0251 137.058 65.9837L136.645 64.6527C136.645 64.6113 136.569 64.5925 136.506 64.6038L136.19 64.664C136.126 64.664 136.084 64.7204 136.096 64.758L136.509 66.0928C136.524 66.1145 136.546 66.1307 136.571 66.1389C136.596 66.1471 136.623 66.1467 136.648 66.1379Z" fill="#407BFF"/>
<path d="M135.31 45.2512C135.577 45.1498 135.911 46.0892 135.829 46.2095C135.637 46.4838 132.127 47.442 131.97 46.9047C131.96 46.6134 132.004 46.3228 132.101 46.0479C132.203 45.8675 132.98 46.1982 135.31 45.2512Z" fill="#407BFF"/>
<path d="M134.717 45.2741C134.852 44.962 135.239 44.462 135.578 44.7477C135.916 45.0335 136.059 45.6501 135.837 45.7516C135.615 45.8532 134.483 45.7968 134.717 45.2741Z" fill="#407BFF"/>
<path d="M135.434 45.4356C135.667 45.1874 136.186 44.8453 136.423 45.2288C136.66 45.6123 136.574 46.2402 136.333 46.259C136.092 46.2778 135.039 45.8454 135.434 45.4356Z" fill="#407BFF"/>
<path d="M135.562 45.379C135.543 45.1792 135.582 44.9782 135.675 44.8002C135.768 44.6222 135.91 44.4747 136.084 44.3757C136.513 44.0976 136.93 43.9172 137.095 43.6241C137.166 43.8989 137.181 44.1854 137.137 44.4658C137.05 44.8679 135.716 45.1761 135.806 45.5255L135.562 45.379Z" fill="#407BFF"/>
<path d="M135.506 45.3602C135.381 45.2025 135.305 45.0121 135.286 44.8121C135.268 44.6121 135.307 44.4109 135.4 44.2329C135.603 43.7669 135.859 43.3911 135.844 43.0604C136.053 43.2527 136.22 43.4854 136.336 43.7444C136.479 44.1201 135.528 45.1084 135.795 45.3564L135.506 45.3602Z" fill="#407BFF"/>
<path d="M161.641 118.769C161.633 118.768 161.626 118.766 161.619 118.762C161.613 118.758 161.607 118.753 161.603 118.746C161.517 118.626 152.927 106.368 149.778 95.598C147.723 88.6897 146.143 81.6486 145.05 74.5244C144.4 70.5111 144.006 68.0873 142.713 66.0994C142.704 66.0903 142.7 66.0782 142.7 66.0656C142.7 66.053 142.704 66.0409 142.713 66.0318C142.722 66.0241 142.733 66.0199 142.745 66.0199C142.757 66.0199 142.768 66.0241 142.777 66.0318C144.085 68.0384 144.479 70.4697 145.129 74.4943C146.227 81.6084 147.809 88.6392 149.864 95.5379C153.009 106.293 161.592 118.536 161.679 118.66C161.686 118.669 161.689 118.68 161.689 118.691C161.689 118.703 161.686 118.714 161.679 118.723C161.678 118.734 161.674 118.744 161.667 118.752C161.661 118.76 161.651 118.766 161.641 118.769Z" fill="#407BFF"/>
<path opacity="0.4" d="M161.641 118.769C161.633 118.768 161.626 118.766 161.619 118.762C161.613 118.758 161.607 118.753 161.603 118.746C161.517 118.626 152.927 106.368 149.778 95.598C147.723 88.6897 146.143 81.6486 145.05 74.5244C144.4 70.5111 144.006 68.0873 142.713 66.0994C142.704 66.0903 142.7 66.0782 142.7 66.0656C142.7 66.053 142.704 66.0409 142.713 66.0318C142.722 66.0241 142.733 66.0199 142.745 66.0199C142.757 66.0199 142.768 66.0241 142.777 66.0318C144.085 68.0384 144.479 70.4697 145.129 74.4943C146.227 81.6084 147.809 88.6392 149.864 95.5379C153.009 106.293 161.592 118.536 161.679 118.66C161.686 118.669 161.689 118.68 161.689 118.691C161.689 118.703 161.686 118.714 161.679 118.723C161.678 118.734 161.674 118.744 161.667 118.752C161.661 118.76 161.651 118.766 161.641 118.769Z" fill="black"/>
<path d="M145.764 127.813L140.023 128.557L139.647 126.957L145.625 125.69L145.764 127.813Z" fill="#407BFF"/>
<path d="M163.366 118.592L159.131 121.038L157.703 119.817L162.336 116.683L163.366 118.592Z" fill="#407BFF"/>
<path d="M143.491 50.4031C143.694 51.4478 143.81 52.4323 143.923 53.4507C144.036 54.4691 144.077 55.4761 144.107 56.4945C144.137 57.5209 144.115 58.5481 144.04 59.5721C143.998 60.0869 143.953 60.6018 143.882 61.1203C143.852 61.3759 143.818 61.6352 143.769 61.8944L143.63 62.6911C143.476 63.3404 143.194 63.9524 142.8 64.4911C142.476 64.9442 142.12 65.3726 141.732 65.7725C141.007 66.5173 140.229 67.2081 139.403 67.8393C137.805 69.0696 136.114 70.1739 134.345 71.1423L133.54 69.8948C134.292 69.2973 135.044 68.681 135.795 68.0534C136.547 67.4259 137.261 66.7908 137.948 66.1295C138.628 65.4929 139.269 64.8165 139.869 64.104C140.144 63.7743 140.395 63.4252 140.62 63.0594C140.798 62.7928 140.925 62.4961 140.996 62.1838C141.118 61.2716 141.19 60.3532 141.21 59.4331C141.21 58.9634 141.21 58.4936 141.21 58.0239C141.21 57.5542 141.191 57.077 141.169 56.6035C141.124 55.6565 141.037 54.7246 140.936 53.7626C140.834 52.8006 140.703 51.8499 140.56 50.9593L143.491 50.4031Z" fill="#E58A7B"/>
<path d="M143.036 47.209C144.641 48.5092 144.258 52.3722 144.258 52.3722L138.846 54.1534C138.846 54.1534 139.094 49.7004 139.365 48.0996C139.681 46.1944 141.454 45.9276 143.036 47.209Z" fill="#407BFF"/>
<path opacity="0.2" d="M143.036 47.209C144.641 48.5092 144.258 52.3722 144.258 52.3722L138.846 54.1534C138.846 54.1534 139.094 49.7004 139.365 48.0996C139.681 46.1944 141.454 45.9276 143.036 47.209Z" fill="black"/>
<path d="M71.552 63.3299C71.342 62.4188 70.8294 61.6058 70.0977 61.0236C69.3661 60.4414 68.4587 60.1245 67.5237 60.1245H37.4614C36.3651 60.1245 35.3137 60.56 34.5385 61.3352C33.7633 62.1104 33.3278 63.1618 33.3278 64.2581V131.079C33.3278 132.175 33.7633 133.227 34.5385 134.002C35.3137 134.777 36.3651 135.213 37.4614 135.213H132.909C134.005 135.213 135.057 134.777 135.832 134.002C136.607 133.227 137.043 132.175 137.043 131.079V74.949C137.043 73.8527 136.607 72.8013 135.832 72.0261C135.057 71.2509 134.005 70.8154 132.909 70.8154H80.9577C78.7743 70.8158 76.6554 70.0757 74.947 68.7161C73.2386 67.3565 72.0417 65.4577 71.552 63.3299Z" fill="#407BFF"/>
<path opacity="0.6" d="M71.552 63.3299C71.342 62.4188 70.8294 61.6058 70.0977 61.0236C69.3661 60.4414 68.4587 60.1245 67.5237 60.1245H37.4614C36.3651 60.1245 35.3137 60.56 34.5385 61.3352C33.7633 62.1104 33.3278 63.1618 33.3278 64.2581V131.079C33.3278 132.175 33.7633 133.227 34.5385 134.002C35.3137 134.777 36.3651 135.213 37.4614 135.213H132.909C134.005 135.213 135.057 134.777 135.832 134.002C136.607 133.227 137.043 132.175 137.043 131.079V74.949C137.043 73.8527 136.607 72.8013 135.832 72.0261C135.057 71.2509 134.005 70.8154 132.909 70.8154H80.9577C78.7743 70.8158 76.6554 70.0757 74.947 68.7161C73.2386 67.3565 72.0417 65.4577 71.552 63.3299Z" fill="black"/>
<path opacity="0.22" d="M60.94 42.5193L63.6193 51.196C63.9613 52.3003 64.7277 53.2237 65.75 53.7634C66.7723 54.3031 67.9671 54.415 69.0718 54.0745L77.7448 51.3952L60.94 42.5193Z" fill="#407BFF"/>
<path d="M60.94 42.5193L29.9383 52.0979C29.3911 52.266 28.8823 52.5404 28.4412 52.9054C28 53.2703 27.6352 53.7186 27.3675 54.2247C27.0998 54.7308 26.9345 55.2847 26.8811 55.8547C26.8276 56.4247 26.8871 56.9997 27.0561 57.5467L44.7553 114.845C44.9242 115.392 45.1993 115.901 45.5647 116.342C45.9302 116.782 46.3789 117.147 46.8852 117.414C47.3916 117.681 47.9456 117.846 48.5157 117.9C49.0858 117.953 49.6608 117.893 50.2078 117.724L89.8862 105.466C90.4332 105.297 90.9415 105.023 91.3823 104.658C91.823 104.293 92.1874 103.844 92.4548 103.338C92.7221 102.832 92.8871 102.278 92.9402 101.708C92.9934 101.139 92.9338 100.564 92.7647 100.017L77.7336 51.3952L60.94 42.5193Z" fill="#407BFF"/>
<path opacity="0.8" d="M60.94 42.5193L29.9383 52.0979C29.3911 52.266 28.8823 52.5404 28.4412 52.9054C28 53.2703 27.6352 53.7186 27.3675 54.2247C27.0998 54.7308 26.9345 55.2847 26.8811 55.8547C26.8276 56.4247 26.8871 56.9997 27.0561 57.5467L44.7553 114.845C44.9242 115.392 45.1993 115.901 45.5647 116.342C45.9302 116.782 46.3789 117.147 46.8852 117.414C47.3916 117.681 47.9456 117.846 48.5157 117.9C49.0858 117.953 49.6608 117.893 50.2078 117.724L89.8862 105.466C90.4332 105.297 90.9415 105.023 91.3823 104.658C91.823 104.293 92.1874 103.844 92.4548 103.338C92.7221 102.832 92.8871 102.278 92.9402 101.708C92.9934 101.139 92.9338 100.564 92.7647 100.017L77.7336 51.3952L60.94 42.5193Z" fill="white"/>
<g opacity="0.28">
<path d="M77.6207 102.963L51.8273 110.93C51.3449 111.078 50.8235 111.029 50.3771 110.794C49.9306 110.559 49.5955 110.156 49.4449 109.675C49.298 109.192 49.348 108.671 49.5838 108.226C49.8197 107.78 50.2223 107.446 50.7037 107.296L76.4972 99.3258C76.98 99.1778 77.5019 99.2271 77.9484 99.4631C78.3949 99.699 78.7298 100.102 78.8796 100.585C79.0265 101.067 78.9765 101.588 78.7406 102.034C78.5048 102.479 78.1022 102.813 77.6207 102.963Z" fill="#407BFF"/>
</g>
<g opacity="0.28">
<path d="M49.8621 56.2089L36.2213 60.4214C35.7389 60.5685 35.218 60.5192 34.7718 60.2842C34.3256 60.0491 33.9903 59.6473 33.8389 59.1663C33.6919 58.6834 33.7417 58.1621 33.9775 57.7158C34.2134 57.2695 34.616 56.9346 35.0977 56.7839L48.7385 52.5714C49.2208 52.4222 49.7427 52.4706 50.1894 52.7059C50.6361 52.9413 50.9712 53.3443 51.1209 53.8265C51.2679 54.3094 51.218 54.8308 50.9822 55.277C50.7464 55.7233 50.3438 56.0583 49.8621 56.2089Z" fill="#407BFF"/>
</g>
<g opacity="0.28">
<path d="M60.9927 60.6769L38.446 67.6401C37.9646 67.7847 37.4456 67.7336 37.0017 67.4979C36.5578 67.2622 36.2247 66.861 36.0748 66.3812C35.9268 65.8994 35.9757 65.3785 36.211 64.9326C36.4462 64.4868 36.8486 64.1524 37.3299 64.0026L59.8766 57.0394C60.359 56.8912 60.8804 56.9401 61.3268 57.1753C61.7733 57.4105 62.1084 57.8129 62.259 58.2945C62.4047 58.7784 62.3533 59.3001 62.1161 59.7463C61.879 60.1925 61.4752 60.527 60.9927 60.6769Z" fill="#407BFF"/>
</g>
<g opacity="0.28">
<path d="M73.5811 64.694L40.678 74.84C40.1961 74.9881 39.6752 74.9391 39.2293 74.7038C38.7835 74.4686 38.4491 74.0662 38.2993 73.5849C38.1521 73.1025 38.2015 72.5816 38.4365 72.1354C38.6716 71.6892 39.0733 71.3539 39.5544 71.2025L72.4575 61.0565C72.9394 60.9094 73.4599 60.9589 73.9054 61.194C74.351 61.4291 74.6856 61.8308 74.8362 62.3116C74.9844 62.7939 74.9355 63.3153 74.7003 63.7618C74.4651 64.2082 74.0627 64.5434 73.5811 64.694Z" fill="#407BFF"/>
</g>
<g opacity="0.28">
<path d="M75.8095 71.909L56.6824 77.8199C56.2 77.9668 55.6792 77.9168 55.2335 77.681C54.7878 77.4451 54.4536 77.0425 54.3037 76.5611C54.1567 76.0792 54.2062 75.5588 54.4413 75.1132C54.6764 74.6676 55.0781 74.333 55.5588 74.1824L74.6859 68.2714C75.1688 68.1255 75.6897 68.1758 76.1358 68.4115C76.5818 68.6471 76.9169 69.0491 77.0684 69.5303C77.2152 70.0126 77.1653 70.5335 76.9294 70.9792C76.6936 71.4248 76.291 71.7591 75.8095 71.909Z" fill="#407BFF"/>
</g>
<g opacity="0.28">
<path d="M47.9118 80.5293L42.9102 82.0737C42.4278 82.2219 41.9064 82.173 41.4599 81.9378C41.0135 81.7026 40.6783 81.3002 40.5277 80.8186C40.3797 80.3358 40.4291 79.8139 40.665 79.3674C40.901 78.9209 41.3043 78.586 41.7866 78.4362L46.7882 76.8917C47.2706 76.7446 47.7915 76.7939 48.2377 77.029C48.6839 77.2641 49.0192 77.6658 49.1706 78.1468C49.3166 78.6297 49.2662 79.1506 49.0306 79.5967C48.7949 80.0427 48.3929 80.3778 47.9118 80.5293Z" fill="#407BFF"/>
</g>
<g opacity="0.28">
<path d="M78.0416 79.1277L45.1385 89.2925C44.6561 89.4393 44.1352 89.3894 43.6896 89.1535C43.2439 88.9177 42.9097 88.5151 42.7598 88.0336C42.6118 87.5517 42.6607 87.0308 42.896 86.585C43.1312 86.1392 43.5336 85.8047 44.0149 85.6549L76.918 75.4901C77.3999 75.3431 77.9204 75.3926 78.3659 75.6277C78.8115 75.8628 79.1461 76.2645 79.2967 76.7452C79.4449 77.2276 79.396 77.749 79.1608 78.1955C78.9256 78.6419 78.5232 78.9771 78.0416 79.1277Z" fill="#407BFF"/>
</g>
<g opacity="0.28">
<path d="M67.5725 90.2657L47.3669 96.5074C46.885 96.6544 46.3645 96.605 45.919 96.3699C45.4734 96.1347 45.1388 95.733 44.9882 95.2523C44.8411 94.7699 44.8904 94.249 45.1254 93.8028C45.3605 93.3566 45.7622 93.0213 46.2433 92.8699L66.4489 86.6282C66.9317 86.4812 67.4531 86.5311 67.8994 86.7669C68.3457 87.0027 68.6806 87.4053 68.8313 87.887C68.9792 88.3694 68.9297 88.8907 68.6937 89.3367C68.4577 89.7826 68.0545 90.1167 67.5725 90.2657Z" fill="#407BFF"/>
</g>
<g opacity="0.28">
<path d="M80.27 86.3464L74.8776 88.0111C74.3947 88.158 73.8734 88.1082 73.4271 87.8724C72.9808 87.6366 72.6458 87.2339 72.4952 86.7522C72.3483 86.2698 72.3983 85.749 72.6341 85.3033C72.87 84.8576 73.2726 84.5234 73.754 84.3735L79.1465 82.7088C79.6283 82.5608 80.1492 82.6097 80.5951 82.845C81.0409 83.0802 81.3753 83.4826 81.5251 83.9639C81.6733 84.4463 81.6244 84.9677 81.3892 85.4142C81.154 85.8606 80.7516 86.1958 80.27 86.3464Z" fill="#407BFF"/>
</g>
<g opacity="0.28">
<path d="M82.4984 93.5688L49.6027 103.715C49.1199 103.863 48.598 103.813 48.1515 103.577C47.7049 103.342 47.3701 102.938 47.2203 102.456C47.0724 101.974 47.1219 101.452 47.3579 101.006C47.5939 100.56 47.9971 100.226 48.4791 100.077L81.3785 89.9125C81.8614 89.7665 82.3823 89.8168 82.8283 90.0525C83.2743 90.2882 83.6095 90.6902 83.761 91.1713C83.8364 91.4116 83.8636 91.6645 83.8409 91.9153C83.8183 92.1662 83.7462 92.4101 83.6288 92.6329C83.5114 92.8558 83.3511 93.0532 83.1571 93.2138C82.9631 93.3745 82.7392 93.4951 82.4984 93.5688Z" fill="#407BFF"/>
</g>
<path d="M83.2048 20.9722L93.0427 42.8951C93.2981 43.4674 93.3166 44.1175 93.0941 44.7033C92.8716 45.2892 92.4262 45.7631 91.8553 46.0216L50.1213 64.7541C49.5492 65.0106 48.8987 65.0295 48.3125 64.8069C47.7264 64.5843 47.2525 64.1383 46.9948 63.5667L37.1532 41.6438C36.8956 41.0712 36.876 40.4198 37.0987 39.8327C37.3214 39.2457 37.7681 38.7712 38.3407 38.5135L80.0746 19.781C80.6479 19.5257 81.2989 19.5076 81.8855 19.7309C82.472 19.9541 82.9463 20.4003 83.2048 20.9722Z" fill="#407BFF"/>
<path opacity="0.3" d="M83.2048 20.9722L93.0427 42.8951C93.2981 43.4674 93.3166 44.1175 93.0941 44.7033C92.8716 45.2892 92.4262 45.7631 91.8553 46.0216L50.1213 64.7541C49.5492 65.0106 48.8987 65.0295 48.3125 64.8069C47.7264 64.5843 47.2525 64.1383 46.9948 63.5667L37.1532 41.6438C36.8956 41.0712 36.876 40.4198 37.0987 39.8327C37.3214 39.2457 37.7681 38.7712 38.3407 38.5135L80.0746 19.781C80.6479 19.5257 81.2989 19.5076 81.8855 19.7309C82.472 19.9541 82.9463 20.4003 83.2048 20.9722Z" fill="black"/>
<path d="M76.6283 19.8886L75.2938 20.4872L75.4477 20.8303L76.7822 20.2316L76.6283 19.8886Z" fill="#407BFF"/>
<path d="M73.4258 21.3233L69.2669 23.1889L69.4207 23.5318L73.5796 21.6662L73.4258 21.3233Z" fill="#407BFF"/>
<path d="M37.1162 43.8532L36.7734 44.0071L37.9124 46.5439L38.2552 46.39L37.1162 43.8532Z" fill="#407BFF"/>
<path opacity="0.6" d="M81.807 19.7021L71.0447 40.7832C70.046 42.7372 68.4106 44.2919 66.4086 45.1904C64.4066 46.0889 62.158 46.2774 60.0344 45.7247L37.1307 39.7536C37.3656 39.2041 37.7971 38.7619 38.3407 38.5135L80.0746 19.781C80.6213 19.5365 81.2403 19.5083 81.807 19.7021Z" fill="#407BFF"/>
<path d="M96.6013 46.683L64.2167 48.6821C63.6446 48.7161 63.0848 48.8626 62.5694 49.1132C62.0539 49.3638 61.5929 49.7136 61.2128 50.1426C60.8327 50.5715 60.541 51.0713 60.3542 51.6131C60.1675 52.155 60.0894 52.7283 60.1245 53.3004L63.8184 113.154C63.8529 113.727 64 114.287 64.2513 114.802C64.5025 115.318 64.8531 115.779 65.2828 116.159C65.7125 116.538 66.213 116.83 66.7555 117.016C67.298 117.202 67.8719 117.279 68.4442 117.243L109.893 114.684C110.464 114.649 111.023 114.502 111.538 114.252C112.052 114.001 112.512 113.651 112.892 113.222C113.271 112.793 113.561 112.293 113.747 111.751C113.933 111.21 114.01 110.637 113.974 110.065L110.855 59.2715L96.6013 46.683Z" fill="#407BFF"/>
<path opacity="0.8" d="M96.6013 46.683L64.2167 48.6821C63.6446 48.7161 63.0848 48.8626 62.5694 49.1132C62.0539 49.3638 61.5929 49.7136 61.2128 50.1426C60.8327 50.5715 60.541 51.0713 60.3542 51.6131C60.1675 52.155 60.0894 52.7283 60.1245 53.3004L63.8184 113.154C63.8529 113.727 64 114.287 64.2513 114.802C64.5025 115.318 64.8531 115.779 65.2828 116.159C65.7125 116.538 66.213 116.83 66.7555 117.016C67.298 117.202 67.8719 117.279 68.4442 117.243L109.893 114.684C110.464 114.649 111.023 114.502 111.538 114.252C112.052 114.001 112.512 113.651 112.892 113.222C113.271 112.793 113.561 112.293 113.747 111.751C113.933 111.21 114.01 110.637 113.974 110.065L110.855 59.2715L96.6013 46.683Z" fill="white"/>
<g opacity="0.22">
<path d="M98.5591 109.352L71.612 111.016C71.1086 111.045 70.6143 110.873 70.2369 110.539C69.8595 110.205 69.6298 109.734 69.5979 109.231C69.569 108.728 69.7399 108.234 70.0735 107.856C70.407 107.478 70.8762 107.247 71.3791 107.213L98.3261 105.552C98.8295 105.523 99.3243 105.693 99.7024 106.027C100.081 106.361 100.311 106.83 100.344 107.334C100.374 107.838 100.203 108.333 99.8683 108.711C99.5338 109.089 99.063 109.32 98.5591 109.352Z" fill="#407BFF"/>
</g>
<g opacity="0.22">
<path d="M82.6111 57.3738L68.3579 58.2456C67.8547 58.2745 67.3604 58.1036 66.9826 57.7701C66.6047 57.4365 66.3737 56.9673 66.3399 56.4645C66.3111 55.9607 66.4825 55.4659 66.8168 55.0879C67.1512 54.7099 67.6213 54.4794 68.1249 54.4465L82.3781 53.5672C82.8812 53.5374 83.3756 53.708 83.753 54.0419C84.1305 54.3757 84.3604 54.8455 84.3923 55.3484C84.4242 55.8531 84.2546 56.3498 83.9207 56.7295C83.5867 57.1093 83.1157 57.341 82.6111 57.3738Z" fill="#407BFF"/>
</g>
<g opacity="0.22">
<path d="M92.3738 64.3408L68.8238 65.7913C68.3201 65.8221 67.8248 65.6519 67.4465 65.318C67.0682 64.9841 66.8378 64.5137 66.8059 64.0101C66.7761 63.506 66.9471 63.0107 67.2817 62.6325C67.6162 62.2543 68.0869 62.0241 68.5908 61.9921L92.1371 60.5416C92.6408 60.5108 93.1361 60.681 93.5144 61.0149C93.8928 61.3488 94.1231 61.8192 94.155 62.3228C94.1849 62.8263 94.0143 63.321 93.6806 63.6991C93.3469 64.0772 92.8771 64.3079 92.3738 64.3408Z" fill="#407BFF"/>
</g>
<g opacity="0.22">
<path d="M103.658 71.2138L69.2898 73.3332C68.7847 73.3641 68.288 73.1936 67.9084 72.859C67.5288 72.5245 67.2972 72.0531 67.2643 71.5482C67.2345 71.0452 67.4052 70.5508 67.739 70.1733C68.0728 69.7958 68.5426 69.566 69.0455 69.534L103.418 67.4109C103.921 67.3821 104.416 67.5536 104.793 67.8881C105.17 68.2225 105.4 68.6926 105.432 69.1958C105.462 69.6981 105.293 70.1918 104.96 70.5696C104.628 70.9475 104.16 71.179 103.658 71.2138Z" fill="#407BFF"/>
</g>
<g opacity="0.22">
<path d="M104.124 78.7518L84.1443 79.9844C83.6409 80.0143 83.1461 79.8437 82.768 79.51C82.3899 79.1762 82.1592 78.7064 82.1264 78.2032C82.0955 77.6995 82.2657 77.2042 82.5996 76.8259C82.9336 76.4476 83.404 76.2172 83.9076 76.1853L103.888 74.9527C104.391 74.9219 104.887 75.0921 105.265 75.426C105.643 75.7599 105.874 76.2303 105.906 76.7339C105.935 77.2373 105.765 77.7321 105.431 78.1102C105.097 78.4883 104.628 78.719 104.124 78.7518Z" fill="#407BFF"/>
</g>
<g opacity="0.22">
<path d="M74.9791 80.5481L69.752 80.8713C69.249 80.9011 68.7546 80.7304 68.3771 80.3966C67.9996 80.0628 67.7698 79.593 67.7378 79.0901C67.708 78.5867 67.8786 78.0919 68.2123 77.7138C68.546 77.3357 69.0158 77.105 69.519 77.0722L74.7461 76.749C75.2499 76.7201 75.7447 76.8916 76.1227 77.2259C76.5006 77.5602 76.7312 78.0304 76.764 78.5339C76.7929 79.0373 76.6213 79.5317 76.2869 79.9091C75.9525 80.2864 75.4823 80.5162 74.9791 80.5481Z" fill="#407BFF"/>
</g>
<g opacity="0.22">
<path d="M104.59 86.29L70.2179 88.4094C69.7145 88.4392 69.2197 88.2687 68.8416 87.9349C68.4635 87.6012 68.2328 87.1314 68.2 86.6282C68.1711 86.1244 68.3426 85.6296 68.6769 85.2516C69.0112 84.8737 69.4814 84.6431 69.9849 84.6103L104.354 82.4909C104.858 82.461 105.353 82.6321 105.731 82.9666C106.109 83.3012 106.34 83.7719 106.372 84.2758C106.401 84.7788 106.231 85.2732 105.897 85.6507C105.563 86.0282 105.093 86.2581 104.59 86.29Z" fill="#407BFF"/>
</g>
<g opacity="0.22">
<path d="M91.7914 94.6473L70.684 95.9512C70.1802 95.9801 69.6854 95.8087 69.3074 95.4743C68.9294 95.14 68.6989 94.6698 68.666 94.1663C68.6372 93.6629 68.8088 93.1685 69.1432 92.7912C69.4776 92.4138 69.9478 92.1841 70.451 92.1521L91.5584 90.8482C92.0618 90.8194 92.5562 90.9909 92.9336 91.3253C93.3109 91.6598 93.5407 92.1299 93.5726 92.6331C93.6035 93.1364 93.4331 93.6313 93.0991 94.0091C92.7651 94.3868 92.2947 94.6164 91.7914 94.6473Z" fill="#407BFF"/>
</g>
<g opacity="0.22">
<path d="M105.053 93.8319L99.4159 94.1776C98.9129 94.2074 98.4185 94.0367 98.041 93.7029C97.6635 93.3691 97.4337 92.8993 97.4018 92.3964C97.3709 91.8927 97.5411 91.3974 97.875 91.0191C98.209 90.6407 98.6793 90.4104 99.183 90.3785L104.82 90.0327C105.323 90.0019 105.819 90.1721 106.197 90.506C106.575 90.84 106.806 91.3103 106.838 91.8139C106.866 92.3177 106.695 92.8125 106.361 93.1905C106.026 93.5684 105.556 93.799 105.053 93.8319Z" fill="#407BFF"/>
</g>
<g opacity="0.22">
<path d="M105.519 101.37L71.1498 103.489C70.6464 103.519 70.1516 103.349 69.7735 103.015C69.3954 102.681 69.1648 102.211 69.1319 101.708C69.102 101.205 69.2726 100.71 69.6063 100.332C69.9401 99.9538 70.4098 99.7231 70.9131 99.6902L105.286 97.5709C105.789 97.541 106.283 97.7117 106.66 98.0455C107.038 98.3793 107.268 98.8491 107.3 99.352C107.331 99.8557 107.16 100.351 106.826 100.729C106.492 101.108 106.022 101.338 105.519 101.37Z" fill="#407BFF"/>
</g>
<path opacity="0.22" d="M96.6013 46.683L97.1612 55.7467C97.1962 56.3182 97.3434 56.8772 97.5944 57.3918C97.8454 57.9064 98.1954 58.3665 98.6242 58.7458C99.0531 59.1251 99.5525 59.4162 100.094 59.6025C100.635 59.7888 101.208 59.8666 101.78 59.8314L110.855 59.2715L96.6013 46.683Z" fill="#407BFF"/>
<path opacity="0.5" d="M85.9969 69.2935C85.9912 68.8592 85.8985 68.4304 85.7243 68.0324C85.5502 67.6345 85.298 67.2755 84.9827 66.9767C84.6674 66.6779 84.2954 66.4453 83.8888 66.2927C83.4821 66.1401 83.0489 66.0705 82.6149 66.0881H52.515C50.2341 66.0881 48.0057 67.9407 47.5773 70.2217L35.699 131.079C35.2555 133.36 36.7436 135.213 39.0246 135.213H134.472C136.753 135.213 138.963 133.364 139.41 131.079L149.207 80.9126C149.65 78.6279 148.162 76.779 145.881 76.779H93.9446C89.4353 76.779 86.151 73.6751 85.9969 69.2935Z" fill="#407BFF"/>
</svg>
